<?xml version="1.0" encoding="utf-8"?>
<!-- Generator: Adobe Illustrator 16.0.0, SVG Export Plug-In . SVG Version: 6.00 Build 0)  -->
<!DOCTYPE svg PUBLIC "-//W3C//DTD SVG 1.1//EN" "http://www.w3.org/Graphics/SVG/1.1/DTD/svg11.dtd">
<svg version="1.1" id="Layer_1" xmlns="http://www.w3.org/2000/svg" xmlns:xlink="http://www.w3.org/1999/xlink" x="0px" y="0px"
	 width="153.667px" height="91.333px" viewBox="0 0 153.667 91.333" enable-background="new 0 0 153.667 91.333"
	 xml:space="preserve">
<g>
	<g>
		<path fill="#F78500" d="M35.371,65.963c-7.95,0-13.874-3.074-17.774-7.425c-3.975-4.425-6.6-10.949-6.6-19.199
			c0-12.974,5.55-21.824,14.774-25.724c3.15-1.35,6.675-1.95,10.575-1.95c6.075,0,10.649,1.875,14.249,4.65l-1.875,3
			c-2.55-1.8-5.175-3-7.8-3.675c-9.225-2.25-16.574,1.725-20.774,6.899c-3.15,3.9-5.4,9.525-5.4,16.424
			c0,10.95,4.5,18.6,12.075,21.974c2.55,1.125,5.325,1.726,8.475,1.726c5.025,0,9.299-1.274,12.75-3.899v-16.5h-12.45v-3.3h16.05
			v21.074C47.295,63.413,42.795,65.963,35.371,65.963z"/>
		<path fill="#F78500" d="M59.82,82.162l1.05-3.074c0.15,0.149,0.825,0.225,2.025,0.225c2.999,0,5.399-2.1,7.124-6.225l3.45-8.324
			L59.295,27.564h3.75l11.324,30.523l0.9,2.85c4.2-11.249,8.699-22.198,13.05-33.373h3.675l-18.3,45.148
			c-1.649,4.05-3.524,7.875-7.425,9.375c-1.05,0.375-2.175,0.6-3.524,0.6C61.695,82.688,60.72,82.537,59.82,82.162z"/>
		<path fill="#F78500" d="M110.971,29.89c-4.275,0-7.65,2.475-10.125,7.424v27.749h-3.3V27.564h3.3v5.925
			c1.575-2.325,3.149-4.05,4.875-5.1c1.725-1.05,3.675-1.575,5.774-1.575c1.725,0,3.45,0.6,4.8,1.05l-1.05,3.225
			C114.045,30.264,112.845,29.89,110.971,29.89z"/>
		<path fill="#F78500" d="M124.095,18.115c-2.399,0-3.825-3.15-1.95-4.8c0.601-0.525,1.275-0.75,1.95-0.75
			c1.575,0,2.85,1.125,2.85,2.7C126.944,16.84,125.67,18.115,124.095,18.115z M122.445,27.564h3.374v37.498h-3.374V27.564z"/>
		<path fill="#F78500" d="M137.895,65.063V9.565h3.375v55.497H137.895z"/>
	</g>
</g>
</svg>
