<svg xmlns="http://www.w3.org/2000/svg" viewBox="0 0 1514.06 658.38"><title>Asset 45</title><g id="Layer_2" data-name="Layer 2"><g id="Layer_1-2" data-name="Layer 1"><ellipse cx="279.06" cy="649.82" rx="52.58" ry="8.56"/><path d="M483.24,167.62C493.61,89.19,472.82,8.47,472.82,8.47S409.2-10.13,275.68,7.79C165.94,22.52,74.89,79.82,72,168.5c51.06-16.31,124.9-26.55,207-26.55C359.68,141.95,432.3,151.83,483.24,167.62Z"/><path d="M134,291.4c36.66,28.75,86.61,46.46,141.68,46.46,54.12,0,103.29-17.11,139.77-45-40.33,6.54-86.85,10.27-136.4,10.27C225.93,303.13,176.27,298.84,134,291.4Z"/><path d="M72,172.82q0-2.17.07-4.32c-44.76,14.3-72,33.24-72,54,0,29.17,53.65,54.71,134,68.86C95.75,261.4,72,219.36,72,172.82Z"/><path d="M558.11,222.54c0-21.23-28.43-40.53-74.87-54.92-5.58,42.22-20.19,83.78-52,111.72l0,0a187.63,187.63,0,0,1-15.8,13.49C500.58,279.05,558.11,252.74,558.11,222.54Z"/><path d="M378.73,448.81c0,63.78-49.53,142.35-100.41,142.35s-99-78.57-99-142.35,48.13-109.41,99-109.41S378.73,385,378.73,448.81Z"/><ellipse cx="379.25" cy="226.96" rx="49.34" ry="22.32" transform="translate(77.83 550.2) rotate(-77.9)"/><ellipse cx="184.81" cy="226.96" rx="22.32" ry="49.34" transform="translate(-43.48 43.79) rotate(-12.1)"/><path d="M1167.25,293.85h-1.05L1130,446.14h-48.89l-51.35-233.9h42.91l36.23,174.45h1.41l35.87-155.81h43.61L1226.34,387h.7l33.77-174.8H1303l-50.3,233.9h-47.84Z"/><path d="M1302.67,446.14l80.89-233.9h47.84l82.66,233.9h-45.73l-21.1-61.9h-82.3l-20.76,61.9Zm70.69-94.26h65.42l-31.66-100.24h-1.05Z"/><rect x="757.5" y="90.86" width="7.73" height="476.66"/></g></g></svg>