<?xml version="1.0" standalone="no"?>
<!DOCTYPE svg PUBLIC "-//W3C//DTD SVG 20010904//EN"
 "http://www.w3.org/TR/2001/REC-SVG-20010904/DTD/svg10.dtd">
<svg version="1.0" xmlns="http://www.w3.org/2000/svg"
 width="5000.000000pt" height="5000.000000pt" viewBox="0 0 5000.000000 5000.000000"
 preserveAspectRatio="xMidYMid meet">
<metadata>
Created by potrace 1.11, written by Peter Selinger 2001-2013
</metadata>
<g transform="translate(0.000000,5000.000000) scale(0.100000,-0.100000)"
fill="#000000" stroke="none">
<path d="M0 25000 l0 -25000 25000 0 25000 0 0 25000 0 25000 -25000 0 -25000
0 0 -25000z m8954 13096 c937 -96 1777 -382 2556 -870 567 -355 1094 -832
1510 -1366 657 -845 1069 -1849 1194 -2915 41 -353 47 -929 11 -1260 -198
-1867 -1226 -3484 -2825 -4446 -1231 -741 -2723 -997 -4150 -713 -1311 260
-2492 965 -3354 1999 -690 828 -1136 1831 -1291 2899 -44 305 -57 497 -58 836
0 424 27 722 103 1120 147 770 478 1559 927 2208 217 313 397 527 687 817 314
313 571 524 928 759 807 531 1768 862 2713 936 77 5 158 12 180 14 98 9 730
-4 869 -18z m-296 -13856 c1311 -64 2494 -525 3507 -1366 168 -140 560 -531
705 -704 681 -811 1125 -1765 1300 -2793 65 -384 84 -663 77 -1096 -7 -414
-36 -689 -113 -1063 -201 -980 -642 -1881 -1295 -2643 -133 -155 -470 -492
-624 -624 -923 -789 -2006 -1252 -3245 -1388 -232 -25 -911 -25 -1145 0 -463
50 -861 136 -1271 272 -704 234 -1340 589 -1925 1075 -163 136 -576 550 -713
715 -416 500 -729 1024 -959 1606 -538 1357 -551 2865 -36 4232 463 1227 1340
2274 2474 2954 977 586 2132 878 3263 823z m24638 -177 c-19 -48 -7032 -12181
-7038 -12175 -5 6 -6911 11963 -7010 12140 l-30 52 7042 0 c6574 0 7042 -1
7036 -17z m14150 1 c-19 -49 -7032 -12181 -7038 -12175 -9 7 -7038 12181
-7038 12187 0 2 3168 4 7041 4 6419 0 7041 -1 7035 -16z"/>
</g>
</svg>
