<?xml version="1.0" encoding="utf-8"?>
<!-- Generator: Adobe Illustrator 16.0.0, SVG Export Plug-In . SVG Version: 6.00 Build 0)  -->
<!DOCTYPE svg PUBLIC "-//W3C//DTD SVG 1.1//EN" "http://www.w3.org/Graphics/SVG/1.1/DTD/svg11.dtd">
<svg version="1.1" id="Layer_1" xmlns="http://www.w3.org/2000/svg" xmlns:xlink="http://www.w3.org/1999/xlink" x="0px" y="0px"
	 width="200px" height="100px" viewBox="0 0 200 100" enable-background="new 0 0 200 100" xml:space="preserve">
<g>
	<path fill="#646463" stroke="#646463" stroke-width="0.2293" stroke-miterlimit="10" d="M78.039,43.82v-14.81l4.351-0.42v30.694
		c0,6.029,0.167,10.738,0.498,14.129l-3.905,0.314l-0.629-3.592c-3.687,2.674-7.436,4.012-11.244,4.012
		c-4.212,0-7.017-1.549-8.415-4.641c-0.805-1.746-1.254-3.596-1.351-5.543c-0.096-1.949-0.145-3.662-0.145-5.139
		s0.015-2.967,0.04-4.469c0.027-1.504,0.135-2.892,0.328-4.167c0.192-1.276,0.494-2.426,0.905-3.448
		c0.409-1.021,0.999-1.891,1.769-2.607c1.59-1.485,4.215-2.229,7.877-2.229C71.778,41.906,75.084,42.545,78.039,43.82z
		 M78.143,66.598c-0.087-1.623-0.131-4.133-0.131-7.521l0.026-11.665c-3.146-1.049-6.187-1.573-9.123-1.573
		c-2.131,0-3.537,0.174-4.22,0.523c-0.681,0.351-1.201,0.804-1.559,1.364c-0.359,0.56-0.652,1.328-0.878,2.306
		c-0.402,1.836-0.603,4.859-0.603,9.07v0.578c0,3.93,0.428,6.648,1.284,8.152c0.926,1.588,2.647,2.383,5.163,2.383h0.394
		c2.411,0,4.98-0.77,7.707-2.307c0.751-0.418,1.398-0.84,1.94-1.256L78.143,66.598L78.143,66.598z"/>
	<path fill="#646463" stroke="#646463" stroke-width="0.2293" stroke-miterlimit="10" d="M110.289,71.973
		c-3.617,1.451-7.609,2.174-11.978,2.174c-2.536,0-4.684-0.262-6.449-0.785c-2.814-0.803-4.683-2.467-5.609-4.98
		c-0.856-2.359-1.285-5.854-1.285-10.486v-1.336c0-5.539,1.153-9.427,3.459-11.664c2.08-1.992,5.549-2.988,10.408-2.988
		c4.733,0,7.969,1.171,9.698,3.512c0.838,1.137,1.393,2.514,1.664,4.127c0.271,1.616,0.406,3.159,0.406,4.628
		c0,2.289-0.051,4.063-0.158,5.322c-2.463,0.104-4.676,0.156-6.633,0.156h-4.217c-4.403,0-7.794-0.193-10.171-0.576
		c0,4.018,0.508,6.824,1.521,8.414c1.241,1.938,3.714,2.908,7.42,2.908c3.702,0,7.249-0.725,10.642-2.176L110.289,71.973z
		 M106.174,56.01v-2.518c0-2.743-0.533-4.699-1.6-5.872c-1.189-1.311-3.242-1.966-6.159-1.966c-3.496,0-5.882,0.76-7.156,2.281
		c-1.223,1.452-1.835,4.141-1.835,8.074H106.174z"/>
	<path fill="#646463" stroke="#646463" stroke-width="0.2293" stroke-miterlimit="10" d="M113.648,29.063l4.326-0.368v44.928h-4.273
		L113.648,29.063z"/>
	<path fill="#646463" stroke="#646463" stroke-width="0.2293" stroke-miterlimit="10" d="M123.566,29.063l4.324-0.368v44.928h-4.271
		L123.566,29.063z"/>
	<path fill="#646463" stroke="#646463" stroke-width="0.2293" stroke-miterlimit="10" d="M134.736,34.962
		c-1.172,0-1.922-0.167-2.252-0.5c-0.525-0.542-0.789-1.289-0.789-2.242c0-0.952,0.057-1.633,0.172-2.044
		c0.113-0.41,0.283-0.729,0.51-0.957c0.42-0.419,1.063-0.629,1.928-0.629s1.484,0.043,1.861,0.131
		c0.377,0.087,0.684,0.253,0.93,0.498c0.42,0.42,0.629,1.105,0.629,2.058c0,0.952-0.047,1.633-0.143,2.043
		c-0.098,0.412-0.258,0.74-0.486,0.985C136.658,34.742,135.871,34.962,134.736,34.962z M132.613,42.431h4.301v31.192h-4.248
		L132.613,42.431z"/>
	<path fill="#646463" stroke="#646463" stroke-width="0.2293" stroke-miterlimit="10" d="M163.213,72.232
		c-2.43,1.277-5.758,1.916-9.986,1.916c-2.5,0-4.336-0.193-5.506-0.576c-2.988-1.014-4.943-2.736-5.871-5.166
		c-0.646-1.693-1.021-3.52-1.127-5.477s-0.158-3.607-0.158-4.955s0.035-2.66,0.105-3.943c0.07-1.286,0.24-2.522,0.512-3.71
		c0.271-1.189,0.688-2.293,1.244-3.317c0.561-1.021,1.32-1.917,2.281-2.686c2.08-1.609,5.068-2.412,8.965-2.412
		c2.867,0,5.504,0.419,7.916,1.258c0.646,0.211,1.135,0.411,1.467,0.603l-1.311,3.88c-3.355-1.293-6.104-1.939-8.244-1.939
		s-3.713,0.245-4.717,0.734c-1.006,0.488-1.787,1.231-2.346,2.227c-0.943,1.713-1.416,4.858-1.416,9.438
		c0,1.834,0.063,3.508,0.184,5.018c0.123,1.514,0.428,2.811,0.916,3.893c1.031,2.238,3.16,3.355,6.385,3.355
		c3.223,0,6.355-0.559,9.396-1.676L163.213,72.232z"/>
	<path fill="#646463" stroke="#646463" stroke-width="0.2293" stroke-miterlimit="10" d="M190.625,62.561
		c0,3.48,0.166,7.098,0.498,10.854l-3.879,0.314l-0.658-3.643c-2.217,1.781-5.152,3.021-8.805,3.723
		c-1.189,0.225-2.246,0.338-3.172,0.338c-0.928,0-1.742-0.043-2.451-0.129c-0.709-0.09-1.391-0.258-2.043-0.512
		c-0.656-0.254-1.264-0.607-1.822-1.061c-0.561-0.457-1.051-1.059-1.469-1.811c-0.891-1.59-1.336-3.498-1.336-5.729
		c0-2.227,0.16-3.957,0.484-5.189c0.322-1.23,0.859-2.258,1.611-3.08c1.484-1.625,3.984-2.438,7.498-2.438
		c3.512,0,7.26,0.664,11.244,1.992v-3.406c0-3.792-1.564-6.039-4.693-6.738c-1.012-0.228-2.174-0.34-3.484-0.34
		c-2.988,0-6.09,0.593-9.305,1.783l-0.971-3.776c0.893-0.594,3.162-1.126,6.814-1.598c1.154-0.141,2.537-0.21,4.154-0.21
		s3.205,0.192,4.758,0.576c1.557,0.385,2.85,1.015,3.881,1.887c2.096,1.731,3.146,4.536,3.146,8.416v9.775H190.625L190.625,62.561z
		 M186.221,59.469c-4.09-1.031-7.863-1.547-11.324-1.547c-2.133,0-3.547,0.611-4.244,1.836c-0.473,0.854-0.709,2.125-0.709,3.801
		s0.09,2.891,0.273,3.645c0.186,0.75,0.484,1.369,0.906,1.859c0.818,0.928,2.174,1.389,4.063,1.389c2.953,0,5.879-0.76,8.779-2.279
		c0.893-0.457,1.693-0.963,2.414-1.52C186.273,64.764,186.221,62.369,186.221,59.469z"/>
	<g>
		<path fill="#646463" d="M33.85,25.87c0.018,0,0.034,0.002,0.051,0.003c0.016-0.001,0.033-0.003,0.05-0.003H33.85z"/>
		<path fill="#646463" d="M29.373,49.577L33.9,37.034l4.527,12.543h5.417c-3.938-9.629-7.99-19.902-8.583-21.404
			c-0.735-1.898-1.003-2.289-1.361-2.322c-0.357,0.033-0.625,0.412-1.36,2.312c-0.593,1.501-4.643,11.786-8.58,21.415H29.373z"/>
		<path fill="#646463" d="M58.281,73.035c-0.641,0-1.601-0.07-2.564-0.389c-1.347-0.387-3.207-1.422-5.515-7.129
			c-1.288-3.207-3.241-8.08-5.316-13.26l-5.307,0.57l6.904,18.35c0.384,1.027,0,1.604-0.385,1.734
			c-0.256,0.063-0.449,0.189-0.449,0.447c0,0.383,0.704,0.383,1.924,0.449c4.425,0.127,9.106,0.127,10.068,0.127
			c0.706,0,1.283-0.129,1.283-0.516C58.923,73.1,58.667,73.035,58.281,73.035z"/>
		<path fill="#646463" d="M21.702,72.912c-0.384-0.131-0.769-0.707-0.384-1.734l6.425-17.076l-5.812,0.625
			c-1.7,4.242-3.253,8.115-4.333,10.809c-2.309,5.707-4.168,6.734-5.515,7.119c-0.962,0.32-1.924,0.385-2.564,0.385
			c-0.386,0-0.641,0.064-0.641,0.385c0,0.385,0.577,0.514,1.282,0.514c0.962,0,5.643,0,10.067-0.129
			c1.22-0.064,1.924-0.064,1.924-0.447C22.15,73.104,21.958,72.975,21.702,72.912z"/>
	</g>
</g>
</svg>
