<?xml version="1.0" encoding="utf-8"?>
<!-- Generator: Adobe Illustrator 16.0.0, SVG Export Plug-In . SVG Version: 6.00 Build 0)  -->
<!DOCTYPE svg PUBLIC "-//W3C//DTD SVG 1.1//EN" "http://www.w3.org/Graphics/SVG/1.1/DTD/svg11.dtd">
<svg version="1.1" id="Layer_1" xmlns="http://www.w3.org/2000/svg" xmlns:xlink="http://www.w3.org/1999/xlink" x="0px" y="0px"
	 width="795.479px" height="211.168px" viewBox="411.069 459.511 795.479 211.168"
	 enable-background="new 411.069 459.511 795.479 211.168" xml:space="preserve">
<path fill="#636362" stroke="#636362" stroke-miterlimit="10" d="M712.744,537.892v-64.601l18.978-1.831v133.884
	c0,26.3,0.726,46.841,2.171,61.632l-17.033,1.372l-2.744-15.667c-16.082,11.664-32.432,17.497-49.047,17.497
	c-18.373,0-30.607-6.749-36.704-20.238c-3.511-7.622-5.472-15.684-5.892-24.177c-0.416-8.503-0.629-15.977-0.629-22.416
	c0-6.438,0.063-12.938,0.174-19.495c0.118-6.56,0.589-12.613,1.43-18.178c0.838-5.565,2.154-10.582,3.947-15.037
	c1.789-4.455,4.363-8.248,7.719-11.374c6.935-6.479,18.385-9.721,34.356-9.721C685.433,529.543,699.857,532.327,712.744,537.892z
	 M713.201,637.248c-0.381-7.087-0.571-18.025-0.571-32.813l0.114-50.879c-13.723-4.578-26.984-6.861-39.792-6.861
	c-9.299,0-15.433,0.76-18.405,2.283c-2.975,1.527-5.242,3.509-6.802,5.95c-1.565,2.438-2.842,5.79-3.829,10.055
	c-1.755,8.011-2.634,21.198-2.634,39.563v2.519c0,17.146,1.868,29.003,5.605,35.556c4.038,6.939,11.546,10.404,22.521,10.404h1.718
	c10.519,0,21.726-3.354,33.615-10.062c3.276-1.83,6.099-3.662,8.461-5.482L713.201,637.248L713.201,637.248z"/>
<path fill="#636362" stroke="#636362" stroke-miterlimit="10" d="M853.414,660.691c-15.774,6.326-33.192,9.486-52.244,9.486
	c-11.056,0-20.429-1.147-28.129-3.433c-12.274-3.502-20.428-10.749-24.465-21.719c-3.738-10.294-5.604-25.539-5.604-45.74v-5.827
	c0-24.164,5.03-41.125,15.091-50.88c9.07-8.691,24.202-13.037,45.392-13.037c20.655,0,34.761,5.108,42.305,15.321
	c3.657,4.957,6.08,10.964,7.256,18.005c1.188,7.051,1.775,13.778,1.775,20.185c0,9.986-0.226,17.723-0.687,23.211
	c-10.75,0.454-20.395,0.686-28.929,0.686H806.77c-19.207,0-33.994-0.842-44.363-2.516c0,17.532,2.213,29.765,6.63,36.698
	c5.416,8.462,16.201,12.693,32.364,12.693c16.154,0,31.628-3.165,46.421-9.487L853.414,660.691z M835.466,591.056v-10.979
	c0-11.963-2.325-20.498-6.976-25.608c-5.185-5.717-14.142-8.579-26.864-8.579c-15.25,0-25.654,3.319-31.215,9.954
	c-5.336,6.328-8.006,18.06-8.006,35.212H835.466z"/>
<path fill="#636362" stroke="#636362" stroke-miterlimit="10" d="M868.075,473.522l18.867-1.604v195.973h-18.641L868.075,473.522z"
	/>
<path fill="#636362" stroke="#636362" stroke-miterlimit="10" d="M911.332,473.522l18.862-1.604v195.973h-18.632L911.332,473.522z"
	/>
<path fill="#636362" stroke="#636362" stroke-miterlimit="10" d="M960.059,499.25c-5.11,0-8.384-0.729-9.83-2.177
	c-2.287-2.363-3.438-5.623-3.438-9.78c0-4.149,0.253-7.121,0.749-8.913c0.495-1.792,1.235-3.183,2.228-4.174
	c1.828-1.83,4.635-2.746,8.404-2.746c3.771,0,6.48,0.189,8.116,0.572c1.642,0.382,2.988,1.104,4.062,2.174
	c1.823,1.83,2.742,4.82,2.742,8.976c0,4.156-0.205,7.127-0.625,8.913c-0.424,1.796-1.127,3.226-2.117,4.294
	C968.444,498.288,965.008,499.25,960.059,499.25z M950.794,531.828h18.758v136.063h-18.525L950.794,531.828z"/>
<path fill="#636362" stroke="#636362" stroke-miterlimit="10" d="M1084.27,661.831c-10.603,5.565-25.116,8.348-43.562,8.348
	c-10.904,0-18.908-0.842-24.013-2.518c-13.035-4.417-21.57-11.93-25.613-22.526c-2.818-7.389-4.457-15.354-4.915-23.895
	c-0.456-8.535-0.687-15.734-0.687-21.609c0-5.872,0.148-11.606,0.461-17.205c0.302-5.603,1.044-10.998,2.228-16.178
	c1.181-5.188,2.996-10.004,5.427-14.468c2.442-4.458,5.761-8.36,9.95-11.714c9.073-7.021,22.104-10.522,39.104-10.522
	c12.5,0,24.011,1.831,34.53,5.487c2.817,0.918,4.953,1.792,6.398,2.631l-5.714,16.923c-14.637-5.644-26.624-8.461-35.96-8.461
	c-9.335,0-16.197,1.069-20.574,3.206c-4.392,2.126-7.797,5.369-10.235,9.71c-4.117,7.474-6.175,21.19-6.175,41.166
	c0,8.001,0.269,15.308,0.798,21.893c0.535,6.595,1.867,12.255,3.997,16.978c4.501,9.765,13.784,14.636,27.85,14.636
	c14.058,0,27.719-2.436,40.984-7.315L1084.27,661.831z"/>
<path fill="#636362" stroke="#636362" stroke-miterlimit="10" d="M1203.84,619.637c0,15.177,0.717,30.955,2.167,47.34l-16.919,1.372
	l-2.865-15.895c-9.676,7.777-22.481,13.188-38.412,16.239c-5.189,0.985-9.791,1.484-13.832,1.484s-7.604-0.191-10.692-0.572
	c-3.089-0.387-6.064-1.125-8.916-2.229c-2.857-1.106-5.508-2.65-7.947-4.631c-2.438-1.985-4.574-4.61-6.405-7.892
	c-3.883-6.936-5.828-15.261-5.828-24.98s0.701-17.265,2.115-22.64c1.41-5.376,3.751-9.851,7.029-13.435
	c6.48-7.089,17.384-10.635,32.701-10.635c15.323,0,31.671,2.898,49.048,8.692v-14.863c0-16.535-6.823-26.337-20.464-29.385
	c-4.419-0.994-9.486-1.486-15.207-1.486c-13.036,0-26.559,2.59-40.585,7.777l-4.23-16.47c3.888-2.591,13.79-4.913,29.724-6.972
	c5.031-0.609,11.069-0.916,18.122-0.916c7.051,0,13.972,0.84,20.752,2.511c6.784,1.68,12.426,4.428,16.921,8.235
	c9.147,7.55,13.727,19.782,13.727,36.705v42.644H1203.84z M1184.63,606.149c-17.839-4.497-34.305-6.746-49.395-6.746
	c-9.301,0-15.472,2.667-18.52,8.004c-2.06,3.731-3.089,9.263-3.089,16.576c0,7.315,0.395,12.616,1.199,15.895
	c0.801,3.274,2.109,5.981,3.942,8.117c3.576,4.042,9.486,6.061,17.719,6.061c12.889,0,25.652-3.317,38.305-9.949
	c3.889-1.982,7.389-4.19,10.525-6.626C1184.857,629.24,1184.63,618.804,1184.63,606.149z"/>
<g>
	<path fill="#636362" d="M519.996,459.592c0.075,0,0.146,0.007,0.22,0.015c0.073-0.007,0.146-0.015,0.22-0.015H519.996z"/>
	<path fill="#636362" d="M500.469,563l19.748-54.709L539.964,563h23.631c-17.178-42-34.856-86.81-37.443-93.36
		c-3.208-8.283-4.374-9.985-5.937-10.129c-1.562,0.145-2.727,1.798-5.933,10.082C511.696,476.14,494.031,521,476.859,563H500.469z"
		/>
	<path fill="#636362" d="M626.566,665.319c-2.795,0-6.987-0.301-11.187-1.698c-5.874-1.678-13.987-6.193-24.057-31.088
		c-5.614-13.992-14.136-35.244-23.193-57.839l-23.146,2.489l30.117,80.043c1.677,4.479,0,6.994-1.679,7.557
		c-1.117,0.276-1.958,0.832-1.958,1.956c0,1.675,3.072,1.675,8.391,1.957c19.303,0.562,39.724,0.559,43.916,0.559
		c3.077,0,5.594-0.565,5.594-2.248C629.365,665.608,628.248,665.319,626.566,665.319z"/>
	<path fill="#636362" d="M467.01,664.783c-1.678-0.562-3.354-3.078-1.678-7.557l28.027-74.488l-25.349,2.728
		c-7.416,18.505-14.187,35.396-18.903,47.15c-10.067,24.893-18.181,29.369-24.055,31.047c-4.197,1.397-8.391,1.677-11.187,1.677
		c-1.681,0-2.797,0.279-2.797,1.68c0,1.678,2.516,2.242,5.593,2.242c4.193,0,24.613,0,43.914-0.564
		c5.318-0.278,8.391-0.278,8.391-1.956C468.967,665.619,468.128,665.063,467.01,664.783z"/>
</g>
<line fill="none" x1="1" y1="1200" x2="1600" y2="1200"/>
<polyline fill="#D1D1D1" points="1.518,1137.995 68.183,1137.995 68.183,1200 1.518,1200 "/>
<text transform="matrix(1 0 0 1 21.4131 1188.9355)" font-family="'MyriadPro-Regular'" font-size="60.7553">6</text>
</svg>
