<?xml version="1.0" encoding="utf-8"?>
<!-- Generator: Adobe Illustrator 16.0.0, SVG Export Plug-In . SVG Version: 6.00 Build 0)  -->
<!DOCTYPE svg PUBLIC "-//W3C//DTD SVG 1.1//EN" "http://www.w3.org/Graphics/SVG/1.1/DTD/svg11.dtd">
<svg version="1.1" id="Layer_1" xmlns="http://www.w3.org/2000/svg" xmlns:xlink="http://www.w3.org/1999/xlink" x="0px" y="0px"
	 width="200px" height="100px" viewBox="0 0 200 100" enable-background="new 0 0 200 100" xml:space="preserve">
<g>
	<g>
		<path fill-rule="evenodd" clip-rule="evenodd" fill="none" d="M174.894,24.877c6.741,0,13.483,0.016,20.225-0.021
			c0.79-0.004,0.969,0.179,0.968,0.969c-0.026,16.327-0.039,32.654,0.018,48.981c0.005,1.27-0.664,0.944-1.302,0.944
			c-40.607,0.004-81.214,0.004-121.821,0.004c-22.279,0-44.557-0.011-66.836,0.03c-1.082,0.002-1.315-0.21-1.297-1.295
			c0.078-4.528,0.033-9.059,0.033-13.588c0.125-0.008,0.25-0.017,0.375-0.024c0.578-0.008,1.168-0.099,1.729-0.007
			c1.51,0.247,2.152-0.444,2.705-1.821c3.925-9.771,7.896-19.526,11.984-29.231c0.864-2.049,0.173-3.464-0.993-4.942
			c7.163,0,14.326,0,21.489,0c0.004,0.109,0.007,0.218,0.011,0.327c-0.02,8.779-0.041,17.558-0.059,26.336
			c-0.005,2.715-0.001,2.675,2.706,2.623c0.897-0.018,1.155-0.294,1.151-1.18c-0.041-9.252-0.043-18.506-0.056-27.759
			c0.013-0.116,0.026-0.231,0.039-0.348c5.583,0,11.166,0,16.749,0c0.013,0.116,0.026,0.231,0.039,0.347
			c-0.013,0.419-0.036,0.838-0.038,1.258c-0.009,2.063-0.007,2.064,2.111,2.064c6.876,0,13.752,0,20.628,0
			c3.226,0,3.226,0,3.085-3.292c0.03-0.125,0.059-0.251,0.088-0.376c2.949,0,5.898,0,8.848,0c0.003,0.108,0.006,0.216,0.009,0.324
			c-0.02,0.364-0.062,0.729-0.056,1.092c0.036,2.569-0.35,2.148,2.228,2.284c1.312,0.07,1.814-0.329,1.625-1.635
			c-0.082-0.563-0.038-1.146-0.052-1.719c0.013-0.116,0.025-0.23,0.038-0.346c2.949,0,5.898,0,8.848,0
			c0.113,0.105,0.227,0.211,0.339,0.317c0.121,0.284,0.208,0.589,0.367,0.85c7.024,11.54,14.742,22.63,22.043,33.991
			c0.289,0.45,0.587,0.845,1.228,0.826c1.185-0.033,2.372-0.009,3.953-0.009c-7.597-12.252-15.489-23.893-23.197-35.652
			c0.003-0.108,0.006-0.216,0.008-0.324c6.426,0,12.851,0,19.276,0c0.017,0.111,0.033,0.222,0.05,0.332
			c-0.017,6.624,0.084,13.25-0.098,19.869c-0.095,3.446,2.365,5.442,3.824,8.021c0-9.3,0-18.6,0-27.899
			c0.005-0.107,0.011-0.215,0.016-0.322c6.952,0,13.904,0,20.857,0c-0.439,0.524-0.711,1.134-0.969,1.764
			c-4.474,10.935-8.961,21.863-13.438,32.795c-0.172,0.419-0.522,0.813-0.294,1.367c0.353,0.017,0.728-0.014,1.081,0.06
			c1.96,0.406,2.791-0.533,3.499-2.313c3.82-9.612,7.734-19.188,11.748-28.72c0.864-2.053,0.176-3.473-0.996-4.953
			c2.317,0,4.635,0,6.952,0c0.019,0.129,0.038,0.257,0.058,0.386c1.268,0.227,1.396,1.085,1.361,2.186
			c-0.021,0.695-0.418,1.548,0.405,2.111c0.107-0.103,0.287-0.191,0.312-0.311c0.286-1.408-0.477-3.152,1.327-4.074
			c0.044-0.022,0.011-0.196,0.013-0.299c0.105,0,0.211,0,0.316,0c0.221,1.559-0.488,3.192,0.382,4.698
			c0.091-0.077,0.183-0.153,0.273-0.229c0.509-0.719-0.023-1.602,0.354-2.361c0.517,0.024,0.575,0.754,1.116,0.694
			c0.299,0.031,0.569-0.006,0.729-0.307c0.562-0.281,1.184-0.76,1.053,0.502c-0.049,0.477-0.161,1.011,0.189,1.457
			c0.087,0.082,0.175,0.163,0.263,0.245C175.38,28.069,174.673,26.436,174.894,24.877z M189.107,68.483
			c0.13,0.005,0.261,0.009,0.391,0.014c-0.073,0.139-0.137,0.283-0.221,0.416c-0.413,0.651-1.117,1.311-0.398,2.098
			c0.682,0.747,1.479,0.167,2.189-0.087c0.341-0.121,0.836-0.229,0.802-0.82c-0.463-0.044-0.922-0.088-1.47-0.14
			c0.207-0.958,0.59-1.594,1.589-1.76c0.493-0.082,1.251-0.358,0.901-0.932c-0.403-0.661,0.067-0.817,0.281-1.173
			c0.245-0.408,0.85-0.67,0.561-1.345c-0.947-0.017-1.553,0.494-2.088,1.18c-0.512,0.656-0.957,1.403-1.845,1.644
			c-0.264-0.131-0.352-0.361-0.36-0.637c0.328-0.319,0.579-0.755,0.218-1.095c-0.372-0.35-0.736,0.136-1.084,0.297
			c-0.675,0.312-0.672,1.114-1.009,1.639c-0.596-0.145,0.196-1.443-0.945-0.94c-0.553,0.244-1.626-0.048-1.061,1.278
			c0.224,0.526-0.354,1.154-0.763,1.65c-0.323,0.391-1.202,0.694-0.511,1.349c0.57,0.537,1.058-0.121,1.476-0.455
			C186.81,69.829,187.433,68.356,189.107,68.483z M181.175,70.952c0.378-0.104,0.752-0.215,0.977-0.578
			c1.288-0.604,1.92-1.716,2.365-2.994c0.167-0.476-0.029-0.826-0.272-1.162c-0.22-0.303-0.549-0.286-0.846-0.104
			c-1.343,0.819-2.78,1.526-3.762,2.811c-0.434,0.568-1.061,1.25-0.584,1.976C179.627,71.776,180.453,71.227,181.175,70.952z
			 M176.032,67.884c0.157-0.272,0.33-0.537,0.467-0.82c0.198-0.41,0.603-0.883,0.152-1.278c-0.42-0.369-0.907,0.02-1.297,0.232
			c-1.234,0.675-2.309,1.552-3.21,2.693c1.157,0.377,1.494-1.065,2.587-1.039c-0.594,1.074-0.995,2.147-2.235,2.556
			c-0.32,0.105-0.884,0.47-0.69,0.721c0.834,1.081-0.357,1.486-0.635,2.169c-0.298,0.733-1.076,1.253-1.086,2.22
			c1.031,0.012,1.559-0.419,2.02-1.254c0.584-1.055,0.989-2.533,2.442-2.63c1.896-0.126,2.955-1.365,4.071-2.569
			c0.525-0.567,1.148-1.431,0.541-2.085c-0.593-0.638-1.309,0.209-1.931,0.511c-0.275,0.134-0.496,0.382-0.741,0.578
			C176.336,67.887,176.185,67.885,176.032,67.884z M101.264,46.207c0-4.416-0.031-8.832,0.022-13.247
			c0.013-1.023-0.259-1.469-1.309-1.329c-0.361,0.048-0.742,0.055-1.102,0c-1.208-0.186-1.485,0.337-1.479,1.496
			c0.047,8.779,0.044,17.557,0.003,26.335c-0.005,1.093,0.29,1.561,1.405,1.401c0.361-0.052,0.742-0.054,1.102,0
			c1.14,0.173,1.393-0.34,1.379-1.41C101.23,55.038,101.264,50.622,101.264,46.207z M77.563,46.358
			c0-4.468-0.032-8.937,0.024-13.404c0.013-1.034-0.275-1.459-1.315-1.324c-0.362,0.048-0.742,0.055-1.102,0
			c-1.218-0.189-1.479,0.352-1.473,1.502c0.046,8.778,0.044,17.557,0.002,26.335c-0.005,1.101,0.303,1.553,1.411,1.396
			c0.361-0.052,0.742-0.055,1.102,0c1.148,0.175,1.387-0.354,1.374-1.416C77.531,55.085,77.563,50.722,77.563,46.358z
			 M110.354,32.257c-0.134,0.572-0.191,0.705-0.191,0.837c-0.005,8.846,0.021,17.692-0.024,26.539
			c-0.01,1.971,1.379,1.05,2.214,1.201c0.956,0.172,1.653,0.081,1.634-1.313c-0.08-6.002-0.281-12.02,0.056-18.003
			C114.254,37.769,111.905,35.488,110.354,32.257z M24.262,51.468c-1.894,0-3.804,0.155-5.676-0.044
			c-1.836-0.195-2.628,0.55-3.117,2.199c-0.285,0.963-0.324,1.273,0.813,1.25c2.998-0.062,5.997-0.021,8.995-0.021
			c4.152,0,4.25-0.036,5.694,3.853c0.629,1.694,1.453,2.396,3.286,2.2c1.125-0.121,1.515-0.222,0.983-1.416
			c-1.024-2.302-1.972-4.64-2.863-6.997c-0.322-0.852-0.799-1.063-1.646-1.041C28.577,51.504,26.419,51.468,24.262,51.468z
			 M153.776,54.852c3.609,0,6.973,0,10.336,0c4.046,0,4.046,0,5.619,3.787c0.967,2.326,0.966,2.287,3.515,2.237
			c0.991-0.02,1.185-0.262,0.786-1.188c-1.036-2.411-2.012-4.85-2.974-7.291c-0.266-0.676-0.629-0.952-1.389-0.946
			c-4.523,0.036-9.047,0.029-13.571,0.006c-0.658-0.004-1.097,0.147-1.324,0.812C154.506,53.055,154.178,53.82,153.776,54.852z
			 M52.389,60.855c3.045,0,6.093-0.064,9.135,0.03c1.329,0.041,1.346-0.685,1.219-1.565c-0.111-0.77,0.626-1.979-1.117-1.963
			c-6.143,0.053-12.287,0.049-18.43,0.002c-1.644-0.013-0.99,1.128-1.052,1.859c-0.064,0.77-0.34,1.703,1.109,1.662
			C46.297,60.796,49.344,60.855,52.389,60.855z M30.546,48.117c-2.083-5.079-4.166-10.155-6.378-15.55
			c-0.521,1.236-0.837,2.121-1.258,2.952c-0.579,1.145-0.615,2.184-0.039,3.397c1.01,2.126,1.827,4.344,2.717,6.526
			c1.269,3.11,1.266,3.111,4.635,2.803C30.273,48.24,30.32,48.208,30.546,48.117z M162.896,32.563
			c-0.693,1.663-1.243,2.993-1.803,4.319c-0.163,0.387,0.005,0.706,0.146,1.048c1.294,3.149,2.585,6.3,3.863,9.455
			c0.232,0.573,0.507,0.907,1.231,0.948c3.106,0.177,3.115,0.205,1.934-2.689C166.534,41.398,164.784,37.16,162.896,32.563z
			 M157.117,73.691c0.343,0.088,0.485,0.166,0.619,0.153c4.661-0.412,9.113-1.483,13.026-4.2c0.614-0.426,1.199-0.971,0.973-1.821
			c-0.235-0.887-1.071-0.959-1.791-0.993c-1.521-0.072-3.048-0.029-4.571-0.085c-0.32-0.012-0.803,0-0.893-0.468
			c-0.086-0.451,0.317-0.627,0.629-0.803c1.253-0.703,2.625-1.107,4.022-1.316c0.821-0.123,1.651-0.751,2.601,0.131
			c0.404,0.376,1.069-0.61,1.574-1.035c0.251-0.21,0.47-0.525,0.226-0.817c-0.399-0.476-0.965-0.284-1.465-0.19
			c-1.863,0.351-3.681,0.865-5.407,1.658c-1.243,0.57-2.488,1.154-3.381,2.251c-0.397,0.489-0.529,0.777,0.178,1.338
			c1.537,1.218,3.239,0.96,4.942,1c0.515,0.012,1.196-0.04,1.323,0.565c0.131,0.629-0.542,0.822-1.008,1.023
			c-2.384,1.028-4.958,1.302-7.452,1.898c-0.663,0.158-0.651-0.985-1.356-0.401C159.068,72.273,158.013,72.69,157.117,73.691z"/>
		<path fill-rule="evenodd" clip-rule="evenodd" fill="none" d="M5.255,60.878c-0.125,0.008-0.25,0.017-0.375,0.024
			c0-11.552,0.014-23.103-0.024-34.654c-0.003-1.047,0.1-1.438,1.332-1.412c4.619,0.102,9.24,0.041,13.861,0.041
			c-0.439,0.523-0.715,1.13-0.973,1.76c-3.638,8.88-7.32,17.741-10.916,26.639C7.145,55.788,5.863,58.207,5.255,60.878z"/>
		<path fill-rule="evenodd" clip-rule="evenodd" fill="#FCB713" d="M5.255,60.878c0.608-2.671,1.89-5.09,2.905-7.603
			c3.595-8.897,7.278-17.759,10.916-26.639c0.258-0.629,0.533-1.237,0.973-1.76c0.211,0,0.421,0,0.632,0
			c1.167,1.478,1.857,2.893,0.993,4.942c-4.088,9.705-8.06,19.459-11.984,29.231c-0.553,1.377-1.194,2.068-2.705,1.821
			C6.424,60.779,5.833,60.87,5.255,60.878z"/>
		<path fill-rule="evenodd" clip-rule="evenodd" fill="#FCB713" d="M159.409,24.877c1.172,1.48,1.86,2.9,0.996,4.953
			c-4.014,9.532-7.928,19.108-11.748,28.72c-0.708,1.78-1.539,2.72-3.499,2.313c-0.354-0.073-0.729-0.043-1.081-0.06
			c-0.229-0.555,0.122-0.948,0.294-1.367c4.477-10.933,8.964-21.861,13.438-32.795c0.258-0.63,0.529-1.24,0.969-1.764
			C158.987,24.877,159.198,24.877,159.409,24.877z"/>
		<path fill-rule="evenodd" clip-rule="evenodd" fill="#FDDA89" d="M62.749,25.224c-0.013-0.116-0.026-0.231-0.039-0.347
			c8.638,0,17.275,0,25.913,0c-0.029,0.125-0.059,0.251-0.088,0.376C79.939,25.244,71.344,25.234,62.749,25.224z"/>
		<path fill-rule="evenodd" clip-rule="evenodd" fill="#FEFCF7" d="M173.008,27.372c-0.159,0.301-0.43,0.338-0.729,0.307
			c0.123-0.748-0.479-1.069-0.885-1.505c-0.208-0.316-0.415-0.632-0.622-0.948c0.005-0.116,0.009-0.233,0.013-0.349
			c1.158,0,2.317,0,3.477,0c0.005,0.119,0.01,0.237,0.016,0.355c-0.183,0.303-0.364,0.606-0.546,0.91
			C173.366,26.479,172.943,26.782,173.008,27.372z"/>
		<path fill-rule="evenodd" clip-rule="evenodd" fill="#FDEDC7" d="M169.837,24.877c-0.002,0.103,0.031,0.276-0.013,0.299
			c-1.804,0.922-1.041,2.667-1.327,4.074c-0.024,0.12-0.204,0.208-0.312,0.311c0.522-1.392-0.841-3.246,1.054-4.299
			c-0.939,0.002-1.88,0.002-2.82,0.002c-0.02-0.129-0.039-0.257-0.058-0.386C167.52,24.877,168.679,24.877,169.837,24.877z"/>
		<path fill-rule="evenodd" clip-rule="evenodd" fill="#FEF3D9" d="M174.277,25.232c-0.006-0.118-0.011-0.237-0.016-0.355
			c0.21,0,0.421,0,0.632,0c-0.221,1.559,0.486,3.192-0.381,4.699C174.509,28.124,174.95,26.648,174.277,25.232z"/>
		<path fill-rule="evenodd" clip-rule="evenodd" fill="#FEF3D9" d="M170.785,24.877c-0.004,0.116-0.008,0.233-0.013,0.349
			c-0.677,1.417-0.232,2.896-0.237,4.349c-0.87-1.506-0.161-3.14-0.382-4.698C170.363,24.877,170.574,24.877,170.785,24.877z"/>
		<path fill-rule="evenodd" clip-rule="evenodd" fill="#FDDB8C" d="M110.45,25.194c-0.112-0.106-0.226-0.211-0.339-0.317
			c1.58,0,3.16,0,4.74,0c-0.002,0.108-0.005,0.216-0.008,0.324C113.38,25.198,111.915,25.196,110.45,25.194z"/>
		<path fill-rule="evenodd" clip-rule="evenodd" fill="#FDDA88" d="M97.48,25.201c-0.003-0.108-0.006-0.216-0.009-0.324
			c1.264,0,2.528,0,3.792,0c-0.013,0.116-0.025,0.23-0.038,0.346C99.977,25.216,98.729,25.208,97.48,25.201z"/>
		<path fill-rule="evenodd" clip-rule="evenodd" fill="#FCC94D" d="M137.92,24.877c-0.005,0.107-0.011,0.215-0.016,0.322
			c-1.242,0.003-2.484,0.007-3.727,0.01c-0.017-0.11-0.033-0.221-0.05-0.332C135.393,24.877,136.656,24.877,137.92,24.877z"/>
		<path fill-rule="evenodd" clip-rule="evenodd" fill="#FDDA88" d="M42.181,25.204c-0.004-0.109-0.007-0.218-0.011-0.327
			c1.264,0,2.528,0,3.792,0c-0.013,0.116-0.026,0.232-0.039,0.348C44.675,25.218,43.428,25.21,42.181,25.204z"/>
		<path fill-rule="evenodd" clip-rule="evenodd" fill="#FCB713" d="M110.45,25.194c1.465,0.002,2.93,0.004,4.394,0.007
			c7.708,11.759,15.601,23.399,23.197,35.652c-1.581,0-2.769-0.024-3.953,0.009c-0.641,0.019-0.938-0.376-1.228-0.826
			c-7.301-11.361-15.019-22.451-22.043-33.991C110.658,25.783,110.571,25.478,110.45,25.194z"/>
		<path fill-rule="evenodd" clip-rule="evenodd" fill="#FCB713" d="M101.264,46.207c0,4.416-0.033,8.832,0.022,13.247
			c0.014,1.07-0.239,1.583-1.379,1.41c-0.36-0.054-0.741-0.052-1.102,0c-1.115,0.159-1.41-0.309-1.405-1.401
			c0.041-8.778,0.044-17.557-0.003-26.335c-0.006-1.159,0.27-1.682,1.479-1.496c0.36,0.055,0.74,0.049,1.102,0
			c1.05-0.14,1.322,0.306,1.309,1.329C101.232,37.375,101.264,41.791,101.264,46.207z"/>
		<path fill-rule="evenodd" clip-rule="evenodd" fill="#FCB713" d="M77.563,46.358c0,4.363-0.032,8.727,0.023,13.089
			c0.013,1.063-0.226,1.591-1.374,1.416c-0.359-0.055-0.741-0.052-1.102,0c-1.107,0.157-1.416-0.295-1.411-1.396
			c0.042-8.778,0.044-17.557-0.002-26.335c-0.006-1.15,0.255-1.691,1.473-1.502c0.359,0.055,0.74,0.048,1.102,0
			c1.041-0.136,1.328,0.29,1.315,1.324C77.531,37.422,77.563,41.89,77.563,46.358z"/>
		<path fill-rule="evenodd" clip-rule="evenodd" fill="#FCB713" d="M42.181,25.204c1.247,0.007,2.494,0.014,3.742,0.021
			c0.013,9.253,0.016,18.506,0.056,27.759c0.004,0.886-0.254,1.162-1.151,1.18c-2.707,0.052-2.711,0.092-2.706-2.623
			C42.14,42.762,42.161,33.982,42.181,25.204z"/>
		<path fill-rule="evenodd" clip-rule="evenodd" fill="#FCB814" d="M110.354,32.257c1.551,3.231,3.899,5.511,3.688,9.262
			c-0.337,5.983-0.136,12.001-0.056,18.003c0.02,1.394-0.678,1.484-1.634,1.313c-0.835-0.151-2.224,0.77-2.214-1.201
			c0.045-8.847,0.02-17.693,0.024-26.539C110.163,32.962,110.221,32.829,110.354,32.257z"/>
		<path fill-rule="evenodd" clip-rule="evenodd" fill="#FCB713" d="M134.178,25.209c1.242-0.003,2.484-0.006,3.727-0.01
			c0,9.3,0,18.6,0,27.899c-1.459-2.579-3.919-4.575-3.824-8.021C134.262,38.459,134.161,31.833,134.178,25.209z"/>
		<path fill-rule="evenodd" clip-rule="evenodd" fill="#FCB815" d="M62.749,25.224c8.595,0.01,17.191,0.02,25.787,0.029
			c0.14,3.292,0.14,3.292-3.086,3.292c-6.876,0-13.752,0-20.628,0c-2.118,0-2.12,0-2.111-2.064
			C62.712,26.063,62.735,25.644,62.749,25.224z"/>
		<path fill-rule="evenodd" clip-rule="evenodd" fill="#FCB814" d="M24.262,51.468c2.157,0,4.314,0.036,6.47-0.018
			c0.846-0.021,1.323,0.189,1.646,1.041c0.892,2.357,1.839,4.695,2.863,6.997c0.531,1.194,0.142,1.295-0.983,1.416
			c-1.833,0.196-2.657-0.506-3.286-2.2c-1.445-3.889-1.542-3.853-5.694-3.853c-2.998,0-5.997-0.04-8.995,0.021
			c-1.138,0.023-1.099-0.287-0.813-1.25c0.489-1.649,1.281-2.395,3.117-2.199C20.458,51.623,22.369,51.468,24.262,51.468z"/>
		<path fill-rule="evenodd" clip-rule="evenodd" fill="#FCB814" d="M153.776,54.852c0.401-1.031,0.729-1.797,0.998-2.584
			c0.228-0.664,0.666-0.815,1.324-0.812c4.524,0.023,9.048,0.03,13.571-0.006c0.76-0.006,1.123,0.271,1.389,0.946
			c0.962,2.441,1.938,4.88,2.974,7.291c0.398,0.927,0.205,1.169-0.786,1.188c-2.549,0.05-2.548,0.089-3.515-2.237
			c-1.573-3.787-1.573-3.787-5.619-3.787C160.749,54.852,157.386,54.852,153.776,54.852z"/>
		<path fill-rule="evenodd" clip-rule="evenodd" fill="#FCB814" d="M52.389,60.855c-3.045,0-6.092-0.06-9.135,0.025
			c-1.449,0.041-1.174-0.893-1.109-1.662c0.062-0.731-0.592-1.872,1.052-1.859c6.143,0.047,12.287,0.051,18.43-0.002
			c1.744-0.016,1.006,1.193,1.117,1.963c0.127,0.881,0.11,1.606-1.219,1.565C58.482,60.791,55.435,60.855,52.389,60.855z"/>
		<path fill-rule="evenodd" clip-rule="evenodd" fill="#FCB714" d="M30.546,48.117c-0.226,0.09-0.273,0.123-0.323,0.128
			c-3.369,0.308-3.366,0.307-4.635-2.803c-0.89-2.182-1.707-4.4-2.717-6.526c-0.576-1.213-0.54-2.252,0.039-3.397
			c0.421-0.831,0.737-1.716,1.258-2.952C26.38,37.962,28.463,43.039,30.546,48.117z"/>
		<path fill-rule="evenodd" clip-rule="evenodd" fill="#FCB714" d="M162.896,32.563c1.888,4.596,3.638,8.835,5.371,13.081
			c1.182,2.894,1.173,2.866-1.934,2.689c-0.725-0.041-0.999-0.375-1.231-0.948c-1.278-3.155-2.569-6.306-3.863-9.455
			c-0.141-0.343-0.309-0.662-0.146-1.048C161.653,35.557,162.203,34.227,162.896,32.563z"/>
		<path fill-rule="evenodd" clip-rule="evenodd" fill="#FCB814" d="M157.117,73.691c0.896-1.001,1.951-1.418,2.789-2.112
			c0.705-0.584,0.693,0.56,1.356,0.401c2.494-0.597,5.068-0.87,7.452-1.898c0.466-0.201,1.139-0.395,1.008-1.023
			c-0.127-0.605-0.809-0.554-1.323-0.565c-1.703-0.04-3.405,0.218-4.942-1c-0.707-0.561-0.575-0.849-0.178-1.338
			c0.893-1.097,2.138-1.681,3.381-2.251c1.727-0.793,3.544-1.308,5.407-1.658c0.5-0.094,1.065-0.285,1.465,0.19
			c0.244,0.292,0.025,0.607-0.226,0.817c-0.505,0.425-1.17,1.411-1.574,1.035c-0.949-0.882-1.779-0.254-2.601-0.131
			c-1.397,0.209-2.77,0.613-4.022,1.316c-0.312,0.176-0.715,0.352-0.629,0.803c0.09,0.468,0.572,0.456,0.893,0.468
			c1.523,0.056,3.05,0.013,4.571,0.085c0.72,0.034,1.556,0.106,1.791,0.993c0.227,0.851-0.358,1.396-0.973,1.821
			c-3.913,2.717-8.365,3.788-13.026,4.2C157.603,73.857,157.46,73.779,157.117,73.691z"/>
		<path fill-rule="evenodd" clip-rule="evenodd" fill="#FCB816" d="M176.487,67.888c0.245-0.196,0.466-0.444,0.741-0.578
			c0.622-0.302,1.338-1.148,1.931-0.511c0.607,0.654-0.016,1.518-0.541,2.085c-1.116,1.204-2.175,2.443-4.071,2.569
			c-1.453,0.097-1.858,1.575-2.442,2.63c-0.461,0.835-0.988,1.266-2.02,1.254c0.01-0.967,0.788-1.486,1.086-2.22
			c0.277-0.683,1.469-1.088,0.635-2.169c-0.193-0.251,0.37-0.615,0.69-0.721c1.24-0.408,1.642-1.481,2.235-2.556
			c-1.093-0.026-1.43,1.416-2.587,1.039c0.901-1.142,1.976-2.019,3.21-2.693c0.39-0.213,0.877-0.602,1.297-0.232
			c0.45,0.396,0.046,0.868-0.152,1.278c-0.137,0.283-0.31,0.548-0.466,0.82c-0.529,0.308-0.569,0.774-0.422,1.302
			c-0.126,0.313-0.648,0.544-0.337,0.933c0.262,0.325,0.697,0.196,1.005-0.016c0.763-0.525,1.361-1.192,1.736-2.142
			c-0.83-0.248-1.211,0.608-1.857,0.475C176.268,68.253,176.378,68.07,176.487,67.888z"/>
		<path fill-rule="evenodd" clip-rule="evenodd" fill="#FCB917" d="M97.48,25.201c1.249,0.007,2.497,0.015,3.746,0.022
			c0.014,0.574-0.03,1.156,0.052,1.719c0.188,1.306-0.313,1.705-1.625,1.635c-2.578-0.136-2.192,0.285-2.228-2.284
			C97.418,25.93,97.46,25.565,97.48,25.201z"/>
		<path fill-rule="evenodd" clip-rule="evenodd" fill="#FCB919" d="M189.8,67.579c0.888-0.241,1.333-0.988,1.845-1.645
			c0.535-0.686,1.141-1.196,2.088-1.18c0.289,0.675-0.315,0.937-0.561,1.345c-0.214,0.355-0.685,0.512-0.281,1.173
			c0.35,0.573-0.408,0.85-0.901,0.932c-0.999,0.166-1.382,0.802-1.589,1.76c0.548,0.052,1.007,0.096,1.47,0.14
			c0.034,0.591-0.461,0.699-0.802,0.82c-0.71,0.254-1.508,0.834-2.189,0.087c-0.719-0.787-0.015-1.446,0.398-2.098
			c0.084-0.133,0.147-0.277,0.221-0.416C189.728,68.233,189.417,67.792,189.8,67.579z"/>
		<path fill-rule="evenodd" clip-rule="evenodd" fill="#FCB817" d="M181.175,70.952c-0.722,0.274-1.548,0.824-2.122-0.053
			c-0.477-0.726,0.15-1.407,0.584-1.976c0.981-1.284,2.419-1.991,3.762-2.811c0.297-0.182,0.626-0.198,0.846,0.104
			c0.243,0.336,0.439,0.687,0.272,1.162c-0.445,1.278-1.077,2.391-2.365,2.994c-0.096-0.086-0.19-0.172-0.286-0.258
			c0.575-0.652,1.568-1.208,0.499-2.308c-0.778,0.736-1.459,1.486-1.742,2.521C180.807,70.537,180.99,70.744,181.175,70.952z"/>
		<path fill-rule="evenodd" clip-rule="evenodd" fill="#FCB917" d="M189.107,68.483c-1.675-0.127-2.298,1.346-3.347,2.181
			c-0.418,0.334-0.905,0.992-1.476,0.455c-0.691-0.654,0.188-0.958,0.511-1.349c0.409-0.496,0.986-1.124,0.763-1.65
			c-0.565-1.326,0.508-1.034,1.061-1.278c1.142-0.503,0.35,0.796,0.945,0.94c0.337-0.524,0.334-1.327,1.009-1.639
			c0.348-0.161,0.712-0.646,1.084-0.297c0.361,0.34,0.11,0.775-0.218,1.095C188.821,67.346,189.315,67.99,189.107,68.483z"/>
		<path fill-rule="evenodd" clip-rule="evenodd" fill="#FCB817" d="M166.419,25.263c0.94,0,1.881,0,2.82-0.002
			c-1.895,1.054-0.531,2.908-1.054,4.299c-0.823-0.563-0.427-1.417-0.405-2.111C167.815,26.348,167.687,25.49,166.419,25.263z"/>
		<path fill-rule="evenodd" clip-rule="evenodd" fill="#FCBA1C" d="M170.535,29.575c0.005-1.454-0.439-2.932,0.237-4.349
			c0.207,0.316,0.414,0.632,0.622,0.948c-1.11,0.889-0.473,2.1-0.586,3.172C170.718,29.422,170.626,29.499,170.535,29.575z"/>
		<path fill-rule="evenodd" clip-rule="evenodd" fill="#FCC43E" d="M170.809,29.346c0.113-1.072-0.524-2.284,0.586-3.172
			c0.406,0.437,1.008,0.758,0.885,1.505c-0.541,0.061-0.6-0.669-1.116-0.694C170.785,27.744,171.317,28.627,170.809,29.346z"/>
		<path fill-rule="evenodd" clip-rule="evenodd" fill="#FCBB1E" d="M174.277,25.232c0.673,1.416,0.231,2.892,0.235,4.343
			c-0.088-0.082-0.176-0.163-0.263-0.245c-0.196-1.06,0.553-2.272-0.519-3.189C173.913,25.839,174.095,25.536,174.277,25.232z"/>
		<path fill-rule="evenodd" clip-rule="evenodd" fill="#FCBE28" d="M173.731,26.142c1.071,0.917,0.322,2.129,0.519,3.189
			c-0.351-0.446-0.238-0.98-0.189-1.457c0.131-1.262-0.491-0.783-1.053-0.502C172.943,26.782,173.366,26.479,173.731,26.142z"/>
		<path fill-rule="evenodd" clip-rule="evenodd" fill="#FEF3D7" d="M189.107,68.483c0.208-0.493-0.286-1.138,0.332-1.542
			c0.009,0.275,0.097,0.506,0.36,0.638c-0.383,0.213-0.072,0.654-0.302,0.918C189.368,68.492,189.237,68.488,189.107,68.483z"/>
		<path fill-rule="evenodd" clip-rule="evenodd" fill="#FDD067" d="M175.611,69.186c-0.147-0.527-0.107-0.994,0.422-1.302
			c0.151,0.001,0.303,0.003,0.454,0.004c-0.109,0.183-0.22,0.365-0.329,0.548C176.116,68.788,175.926,69.032,175.611,69.186z"/>
		<path fill-rule="evenodd" clip-rule="evenodd" fill="#FDCA50" d="M181.865,70.116c0.096,0.086,0.19,0.172,0.286,0.258
			c-0.225,0.363-0.599,0.474-0.977,0.578c-0.185-0.208-0.368-0.415-0.553-0.623C181.087,70.552,181.457,70.224,181.865,70.116z"/>
		<path fill-rule="evenodd" clip-rule="evenodd" fill="#FEF7E6" d="M175.611,69.186c0.314-0.153,0.505-0.397,0.547-0.75
			c0.646,0.134,1.027-0.723,1.857-0.475c-0.375,0.949-0.974,1.616-1.736,2.142c-0.308,0.212-0.743,0.341-1.005,0.016
			C174.963,69.729,175.485,69.498,175.611,69.186z"/>
		<path fill-rule="evenodd" clip-rule="evenodd" fill="#FEF7E7" d="M181.865,70.116c-0.408,0.107-0.778,0.436-1.243,0.213
			c0.283-1.034,0.964-1.784,1.742-2.521C183.434,68.908,182.44,69.464,181.865,70.116z"/>
	</g>
</g>
</svg>
