<?xml version="1.0" encoding="utf-8"?>
<!-- Generator: Adobe Illustrator 19.1.0, SVG Export Plug-In . SVG Version: 6.00 Build 0)  -->
<!DOCTYPE svg PUBLIC "-//W3C//DTD SVG 1.1//EN" "http://www.w3.org/Graphics/SVG/1.1/DTD/svg11.dtd">
<svg version="1.1" id="Layer_1" xmlns="http://www.w3.org/2000/svg" xmlns:xlink="http://www.w3.org/1999/xlink" x="0px" y="0px"
	 width="351px" height="159.2px" viewBox="0 0 351 159.2" style="enable-background:new 0 0 351 159.2;" xml:space="preserve">
<style type="text/css">
	.st0{fill:#878787;}
	.st1{fill:#3FB498;}
	.st2{fill:#205C6C;}
</style>
<g>
	<g>
		<g>
			<path class="st0" d="M157.3,158c-0.8-2.3-1.6-4.7-2.5-7c-0.9-2.3-1.7-4.6-2.5-7h-25.1c-0.8,2.4-1.6,4.8-2.5,7.1
				c-0.8,2.3-1.7,4.6-2.5,6.9h-11.3c2.2-6.4,4.3-12.2,6.4-17.6c2-5.4,4-10.5,5.9-15.3c1.9-4.8,3.8-9.4,5.7-13.7
				c1.9-4.4,3.8-8.6,5.8-12.9h10.3c2,4.2,4,8.5,5.8,12.9c1.9,4.4,3.8,8.9,5.7,13.7c1.9,4.8,3.9,9.9,5.9,15.3
				c2,5.4,4.2,11.3,6.4,17.6H157.3z M139.7,110c-1.3,3-2.8,6.7-4.5,11.1c-1.7,4.4-3.5,9.1-5.3,14.2h19.6c-1.8-5.1-3.6-9.8-5.3-14.3
				C142.4,116.6,140.9,112.9,139.7,110z"/>
			<path class="st0" d="M175.9,114.6c2-0.6,4.6-1.1,7.8-1.6c3.2-0.5,6.8-0.8,10.7-0.8c3.7,0,6.7,0.5,9.2,1.5c2.5,1,4.4,2.4,5.9,4.2
				c1.5,1.8,2.5,4,3.1,6.5c0.6,2.5,0.9,5.3,0.9,8.4V158H203v-23.6c0-2.4-0.2-4.5-0.5-6.1c-0.3-1.7-0.8-3.1-1.5-4.1
				c-0.7-1.1-1.7-1.8-2.9-2.3c-1.2-0.5-2.7-0.7-4.5-0.7c-1.3,0-2.7,0.1-4.1,0.3c-1.4,0.2-2.5,0.3-3.2,0.4V158h-10.4V114.6z"/>
			<path class="st0" d="M225.6,101.3l10.4-1.7v13.6h16v8.7h-16v18.3c0,3.6,0.6,6.2,1.7,7.7c1.1,1.5,3.1,2.3,5.8,2.3
				c1.9,0,3.6-0.2,5-0.6c1.5-0.4,2.6-0.8,3.5-1.1l1.7,8.2c-1.2,0.5-2.8,1-4.7,1.6c-1.9,0.5-4.2,0.8-6.9,0.8c-3.2,0-5.9-0.4-8-1.3
				c-2.1-0.9-3.9-2.1-5.1-3.7c-1.3-1.6-2.1-3.6-2.7-5.9c-0.5-2.3-0.8-5-0.8-7.9V101.3z"/>
			<path class="st0" d="M258.8,135.8c0-4,0.6-7.4,1.8-10.4c1.2-3,2.7-5.5,4.7-7.4c1.9-2,4.2-3.5,6.7-4.5c2.5-1,5.1-1.5,7.7-1.5
				c6.2,0,11,1.9,14.5,5.8c3.5,3.8,5.2,9.6,5.2,17.2c0,0.6,0,1.2,0,1.9c0,0.7-0.1,1.4-0.1,1.9h-29.6c0.3,3.6,1.6,6.4,3.8,8.4
				c2.3,2,5.5,3,9.8,3c2.5,0,4.8-0.2,6.9-0.7c2.1-0.5,3.7-0.9,4.9-1.5l1.4,8.5c-0.6,0.3-1.4,0.6-2.4,0.9c-1,0.3-2.1,0.6-3.4,0.9
				c-1.3,0.3-2.7,0.5-4.2,0.6c-1.5,0.2-3,0.3-4.6,0.3c-4,0-7.4-0.6-10.3-1.8c-2.9-1.2-5.3-2.8-7.2-4.9c-1.9-2.1-3.3-4.6-4.2-7.4
				C259.3,142.3,258.8,139.2,258.8,135.8z M289,131.2c0-1.4-0.2-2.8-0.6-4.1c-0.4-1.3-1-2.4-1.8-3.4c-0.8-0.9-1.7-1.7-2.8-2.2
				c-1.1-0.5-2.4-0.8-4-0.8c-1.6,0-3,0.3-4.2,0.9c-1.2,0.6-2.2,1.4-3,2.4c-0.8,1-1.5,2.1-1.9,3.4c-0.5,1.3-0.8,2.5-0.9,3.9H289z"/>
			<path class="st0" d="M351,135.5c0,3.6-0.5,6.8-1.5,9.7c-1,2.9-2.5,5.4-4.4,7.5c-1.9,2.1-4.2,3.7-6.8,4.8
				c-2.7,1.1-5.6,1.7-8.8,1.7c-3.2,0-6.1-0.6-8.8-1.7c-2.6-1.1-4.9-2.7-6.8-4.8c-1.9-2.1-3.4-4.6-4.4-7.5c-1.1-2.9-1.6-6.2-1.6-9.7
				c0-3.6,0.5-6.8,1.6-9.7c1.1-2.9,2.5-5.4,4.5-7.4c1.9-2.1,4.2-3.7,6.8-4.8c2.6-1.1,5.5-1.7,8.7-1.7c3.1,0,6.1,0.6,8.7,1.7
				c2.7,1.1,4.9,2.7,6.8,4.8c1.9,2.1,3.4,4.5,4.4,7.4C350.4,128.8,351,132,351,135.5z M340.3,135.5c0-4.5-1-8-2.9-10.6
				c-1.9-2.6-4.6-3.9-8-3.9c-3.4,0-6.1,1.3-8,3.9c-1.9,2.6-2.9,6.1-2.9,10.6c0,4.5,1,8.1,2.9,10.7c1.9,2.6,4.6,4,8,4
				c3.4,0,6.1-1.3,8-4C339.4,143.6,340.3,140.1,340.3,135.5z"/>
		</g>
	</g>
	<g>
		<g>
			<path class="st1" d="M145.3,72.6h-16.1c0-31.1-25.3-56.5-56.5-56.5S16.1,41.5,16.1,72.6s25.3,56.5,56.5,56.5v16.1
				c-40,0-72.6-32.6-72.6-72.6C0,32.6,32.6,0,72.6,0C112.7,0,145.3,32.6,145.3,72.6z"/>
		</g>
		<g>
			<path class="st2" d="M72.6,107.3V72.7h34.7c0,0,0,0,0,0c0-19.1-15.5-34.7-34.7-34.7S38,53.5,38,72.6
				C38,91.8,53.5,107.3,72.6,107.3z"/>
		</g>
	</g>
</g>
</svg>
