<?xml version="1.0" encoding="utf-8"?>
<!-- Generator: Adobe Illustrator 16.0.0, SVG Export Plug-In . SVG Version: 6.00 Build 0)  -->
<!DOCTYPE svg PUBLIC "-//W3C//DTD SVG 1.1//EN" "http://www.w3.org/Graphics/SVG/1.1/DTD/svg11.dtd">
<svg version="1.1" id="Layer_1" xmlns="http://www.w3.org/2000/svg" xmlns:xlink="http://www.w3.org/1999/xlink" x="0px" y="0px"
	 width="200px" height="100px" viewBox="0 0 200 100" enable-background="new 0 0 200 100" xml:space="preserve">
<g>
	<g>
		<g>
			<g>
				<path fill="#878787" d="M90.591,90.533c-0.414-1.189-0.827-2.43-1.293-3.619c-0.465-1.189-0.878-2.379-1.292-3.619H75.029
					c-0.413,1.24-0.827,2.482-1.293,3.67c-0.414,1.189-0.879,2.379-1.292,3.568h-5.843c1.138-3.309,2.224-6.309,3.31-9.1
					c1.033-2.791,2.067-5.428,3.05-7.91c0.982-2.48,1.964-4.859,2.947-7.082c0.981-2.275,1.965-4.447,2.998-6.67h5.325
					c1.034,2.172,2.068,4.395,2.999,6.67c0.982,2.273,1.965,4.602,2.946,7.082c0.983,2.482,2.017,5.119,3.051,7.91
					s2.171,5.842,3.309,9.1H90.591z M81.491,65.717c-0.672,1.551-1.447,3.465-2.326,5.738c-0.879,2.275-1.809,4.705-2.74,7.342
					h10.134c-0.931-2.637-1.862-5.066-2.74-7.393C82.888,69.129,82.112,67.217,81.491,65.717z"/>
				<path fill="#878787" d="M100.207,68.096c1.034-0.311,2.378-0.568,4.032-0.828c1.655-0.258,3.516-0.414,5.532-0.414
					c1.912,0,3.463,0.26,4.756,0.777s2.274,1.24,3.05,2.172c0.776,0.93,1.294,2.066,1.603,3.359c0.311,1.293,0.467,2.74,0.467,4.342
					v13.029h-5.429V78.332c0-1.24-0.104-2.326-0.259-3.154c-0.155-0.879-0.414-1.602-0.775-2.119c-0.362-0.568-0.879-0.93-1.5-1.189
					c-0.619-0.258-1.396-0.361-2.326-0.361c-0.672,0-1.396,0.051-2.12,0.156c-0.724,0.102-1.292,0.154-1.654,0.205v18.664h-5.376
					V68.096L100.207,68.096z"/>
				<path fill="#878787" d="M125.901,61.219l5.377-0.879v7.033h8.271v4.496h-8.271v9.461c0,1.861,0.311,3.205,0.879,3.982
					c0.569,0.775,1.603,1.188,2.999,1.188c0.981,0,1.861-0.104,2.585-0.311c0.774-0.205,1.344-0.412,1.809-0.568l0.879,4.24
					c-0.619,0.258-1.446,0.518-2.43,0.826c-0.981,0.26-2.171,0.414-3.567,0.414c-1.653,0-3.05-0.207-4.136-0.672
					c-1.085-0.465-2.017-1.086-2.637-1.914c-0.672-0.826-1.086-1.859-1.396-3.049c-0.258-1.189-0.413-2.586-0.413-4.084V61.219
					H125.901z"/>
				<path fill="#878787" d="M143.065,79.055c0-2.066,0.312-3.824,0.931-5.375c0.621-1.551,1.396-2.844,2.431-3.826
					c0.982-1.035,2.171-1.811,3.463-2.326c1.294-0.518,2.637-0.775,3.981-0.775c3.206,0,5.688,0.982,7.496,2.998
					c1.811,1.965,2.688,4.963,2.688,8.893c0,0.311,0,0.621,0,0.982s-0.052,0.725-0.052,0.982h-15.303
					c0.155,1.861,0.827,3.309,1.965,4.342c1.188,1.035,2.844,1.551,5.066,1.551c1.292,0,2.481-0.104,3.567-0.361
					s1.913-0.465,2.533-0.775l0.724,4.395c-0.31,0.154-0.724,0.311-1.241,0.467c-0.517,0.154-1.085,0.309-1.757,0.463
					c-0.672,0.156-1.396,0.26-2.172,0.313c-0.775,0.102-1.552,0.154-2.378,0.154c-2.068,0-3.825-0.311-5.325-0.93
					c-1.499-0.621-2.74-1.449-3.723-2.535s-1.706-2.377-2.171-3.826C143.324,82.416,143.065,80.814,143.065,79.055z M158.68,76.678
					c0-0.725-0.104-1.447-0.311-2.119c-0.207-0.674-0.517-1.24-0.931-1.758c-0.414-0.467-0.879-0.879-1.447-1.137
					c-0.569-0.26-1.24-0.414-2.068-0.414c-0.827,0-1.551,0.154-2.172,0.465c-0.62,0.309-1.137,0.725-1.551,1.24
					c-0.413,0.518-0.775,1.086-0.981,1.758c-0.259,0.672-0.413,1.293-0.467,2.016h9.928V76.678z"/>
				<path fill="#878787" d="M190.733,78.9c0,1.861-0.259,3.516-0.775,5.016c-0.517,1.498-1.292,2.791-2.275,3.877
					c-0.981,1.086-2.171,1.912-3.516,2.482c-1.396,0.568-2.895,0.879-4.549,0.879s-3.153-0.311-4.55-0.879
					c-1.345-0.57-2.533-1.396-3.516-2.482s-1.758-2.379-2.274-3.877c-0.569-1.5-0.828-3.205-0.828-5.016
					c0-1.861,0.259-3.516,0.828-5.016c0.568-1.498,1.292-2.791,2.325-3.824c0.983-1.086,2.173-1.912,3.516-2.482
					c1.346-0.568,2.845-0.879,4.499-0.879c1.603,0,3.153,0.311,4.497,0.879c1.396,0.57,2.534,1.396,3.516,2.482
					c0.983,1.086,1.759,2.326,2.275,3.824C190.423,75.438,190.733,77.092,190.733,78.9z M185.201,78.9
					c0-2.326-0.517-4.137-1.499-5.48c-0.981-1.344-2.378-2.016-4.136-2.016s-3.153,0.672-4.136,2.016s-1.5,3.154-1.5,5.48
					s0.518,4.188,1.5,5.533c0.982,1.344,2.378,2.066,4.136,2.066s3.154-0.672,4.136-2.066
					C184.736,83.088,185.201,81.279,185.201,78.9z"/>
			</g>
		</g>
		<g>
			<g>
				<path fill="#3FB397" d="M84.387,46.381h-8.324c0-16.079-13.08-29.211-29.21-29.211c-16.131,0-29.262,13.132-29.262,29.211
					c0,16.08,13.079,29.21,29.21,29.21v8.324c-20.68,0-37.534-16.855-37.534-37.535c0-20.68,16.854-37.535,37.534-37.535
					C67.533,8.847,84.387,25.701,84.387,46.381z"/>
			</g>
			<g>
				<path fill="#245D6D" d="M46.801,64.322V46.433h17.94l0,0c0-9.875-8.015-17.94-17.94-17.94s-17.888,8.013-17.888,17.888
					C28.913,56.309,36.926,64.322,46.801,64.322z"/>
			</g>
		</g>
	</g>
</g>
</svg>
