<svg id="Layer_1" data-name="Layer 1" xmlns="http://www.w3.org/2000/svg" viewBox="0 0 1020 377.54"><defs><style>.cls-1{fill:#fff;}</style></defs><title>Artboard 11</title><circle class="cls-1" cx="83.81" cy="85.62" r="83.81"/><circle class="cls-1" cx="83.81" cy="284.31" r="83.81"/><polygon class="cls-1" points="339.62 377.54 440.46 202.88 238.78 202.88 339.62 377.54"/><polygon class="cls-1" points="542.23 377.54 643.07 202.88 441.38 202.88 542.23 377.54"/><path class="cls-1" d="M728.62,64.48V0h33.93c12.28,0,18.56,7.83,18.56,16.43,0,8.12-5,13.53-11.12,14.79,6.86,1.06,12.37,7.73,12.37,15.85,0,9.67-6.48,17.4-18.75,17.4ZM767.1,18.85c0-4.06-2.9-7.06-7.54-7.06H742.35v14h17.21C764.2,25.81,767.1,22.91,767.1,18.85Zm1.26,26.3c0-4.06-2.9-7.54-8.31-7.54H742.35v15H760C765.26,52.59,768.35,49.79,768.35,45.15Z"/><path class="cls-1" d="M786.53,41.09c0-13.53,10-24.46,24.17-24.46,13.92,0,23.39,10.44,23.39,25.72v2.71H799.39c.77,5.9,5.51,10.83,13.44,10.83,4,0,9.47-1.74,12.47-4.64l5.41,7.93c-4.64,4.25-12,6.48-19.24,6.48C797.26,65.64,786.53,56.07,786.53,41.09ZM810.7,26.39c-7.64,0-10.92,5.7-11.5,10.34h23C821.91,32.29,818.82,26.39,810.7,26.39Z"/><path class="cls-1" d="M840.09,64.48V17.79h12.28v6.38c3.29-4.16,9.09-7.54,14.89-7.54v12a16.33,16.33,0,0,0-3.38-.29c-4.06,0-9.47,2.32-11.5,5.32V64.48Z"/><path class="cls-1" d="M871,76.47l5.51-8.89c3.77,4.16,8.7,5.8,14.6,5.8S904,70.77,904,61.58V56.84a18.18,18.18,0,0,1-14.41,7.35C877.89,64.19,869,56,869,40.41c0-15.27,8.8-23.78,20.59-23.78A18,18,0,0,1,904,23.78v-6h12.37v43.5c0,17.79-13.73,22.14-25.23,22.14C883.11,83.43,876.92,81.59,871,76.47ZM904,48V32.87c-2-3.09-6.48-5.32-10.54-5.32-7,0-11.79,4.83-11.79,12.86s4.83,12.86,11.79,12.86A13.6,13.6,0,0,0,904,48Z"/><path class="cls-1" d="M922.65,41.09c0-13.53,10-24.46,24.17-24.46,13.92,0,23.39,10.44,23.39,25.72v2.71H935.51c.77,5.9,5.51,10.83,13.44,10.83,4,0,9.47-1.74,12.47-4.64l5.41,7.93c-4.64,4.25-12,6.48-19.24,6.48C933.38,65.64,922.65,56.07,922.65,41.09Zm24.17-14.69c-7.64,0-10.92,5.7-11.5,10.34h23C958,32.29,954.94,26.39,946.82,26.39Z"/><path class="cls-1" d="M1007.72,64.48V36.25c0-6.48-3.38-8.7-8.6-8.7a13.29,13.29,0,0,0-10.63,5.51V64.48H976.21V17.79h12.28v6.09a21.38,21.38,0,0,1,16.34-7.25c10.25,0,15.18,5.8,15.18,14.89v33Z"/><path class="cls-1" d="M777.93,180.49l-11.31-44.28L755.4,180.49H740.8L722.34,116h15.37L749,162.61,761.3,116H772l12.18,46.6L795.42,116h15.47l-18.37,64.48Z"/><path class="cls-1" d="M807.32,157.1c0-13.24,9.28-24.46,24.65-24.46s24.75,11.21,24.75,24.46-9.28,24.55-24.75,24.55S807.32,170.44,807.32,157.1Zm36.64,0c0-7.25-4.35-13.54-12-13.54s-11.89,6.28-11.89,13.54,4.25,13.63,11.89,13.63S844,164.45,844,157.1Z"/><path class="cls-1" d="M862.91,180.49V133.8h12.28v6.38c3.29-4.16,9.09-7.54,14.89-7.54v12a16.33,16.33,0,0,0-3.38-.29c-4.06,0-9.47,2.32-11.5,5.32v30.84Z"/><path class="cls-1" d="M925.07,180.49l-12.37-18-5.61,6v12H894.81V116h12.28v38.57l17.69-20.79h15.08L921.39,155l19,25.52Z"/><path class="cls-1" d="M939.57,174.4l5.32-8.6A26.73,26.73,0,0,0,961,172.18c5.32,0,7.83-2.13,7.83-5,0-7.73-27.75-1.45-27.75-19.82,0-7.83,6.86-14.69,19.14-14.69A29.83,29.83,0,0,1,979.11,139l-4.93,8.41c-2.8-3-8.12-5.41-13.82-5.41-4.45,0-7.35,2-7.35,4.64,0,7,27.65,1.16,27.65,20,0,8.51-7.25,15-20.21,15C952.33,181.65,944.5,178.95,939.57,174.4Z"/></svg>