<svg xmlns="http://www.w3.org/2000/svg" viewBox="0 0 200 100"><defs><style>.cls-1{isolation:isolate;}.cls-2{fill:#393939;}.cls-3{fill:#fff;}.cls-4{fill:#f79a2a;}.cls-5{fill:#a61f5f;}.cls-6{fill:#f19d24;}.cls-7{fill:#881c53;}.cls-8{fill:#e17326;opacity:0.25;mix-blend-mode:multiply;}</style></defs><title>diggecard</title><g class="cls-1"><g id="Layer_1" data-name="Layer 1"><path class="cls-2" d="M64.46,82.7h3.86a6.15,6.15,0,0,1,2.63.49,4.44,4.44,0,0,1,1.67,1.32,5,5,0,0,1,.88,1.88,9.22,9.22,0,0,1,.26,2.18,8.14,8.14,0,0,1-.32,2.33,5.07,5.07,0,0,1-1,1.87A4.69,4.69,0,0,1,70.73,94a6,6,0,0,1-2.45.45H64.46Zm3.89,11.15A5.62,5.62,0,0,0,70,93.59a4,4,0,0,0,1.51-.86,4.35,4.35,0,0,0,1.1-1.62A6.69,6.69,0,0,0,73,88.57a7.76,7.76,0,0,0-.24-2.06,5.08,5.08,0,0,0-.63-1.44,3.26,3.26,0,0,0-.89-.92,4.39,4.39,0,0,0-1-.52,5,5,0,0,0-1.07-.24,9.17,9.17,0,0,0-1-.06h-3V93.85Z"/><path class="cls-2" d="M75.49,84.4V82.7h.63v1.7Zm0,10.07V86h.63v8.47Z"/><path class="cls-2" d="M85.1,86v8a5.73,5.73,0,0,1-.16,1.38,3.06,3.06,0,0,1-.57,1.18,2.78,2.78,0,0,1-1.11.82,4.55,4.55,0,0,1-1.79.31,5.5,5.5,0,0,1-1.27-.14,3.05,3.05,0,0,1-1-.45,2.27,2.27,0,0,1-.72-.81,2.87,2.87,0,0,1-.3-1.24h.63a2.27,2.27,0,0,0,.28,1,2,2,0,0,0,.6.65,2.54,2.54,0,0,0,.83.37,4.07,4.07,0,0,0,1,.12,3.56,3.56,0,0,0,1.46-.26,2.53,2.53,0,0,0,.93-.68,2.47,2.47,0,0,0,.49-1,4.26,4.26,0,0,0,.14-1.08V92.23h0a3.37,3.37,0,0,1-1.21,1.43,3.34,3.34,0,0,1-1.85.49,3.77,3.77,0,0,1-1.62-.32,3.13,3.13,0,0,1-1.13-.89A3.83,3.83,0,0,1,78,91.62,5.85,5.85,0,0,1,77.73,90a5.29,5.29,0,0,1,.24-1.6,4,4,0,0,1,.7-1.33,3.38,3.38,0,0,1,1.15-.91,3.72,3.72,0,0,1,3.43.17,2.84,2.84,0,0,1,1.21,1.45h0V86Zm-3.71.35a2.74,2.74,0,0,0-1.34.31,2.84,2.84,0,0,0-.94.82,3.74,3.74,0,0,0-.56,1.16A4.72,4.72,0,0,0,78.36,90a5.13,5.13,0,0,0,.19,1.41,3.34,3.34,0,0,0,.58,1.16,2.81,2.81,0,0,0,1,.78,2.86,2.86,0,0,0,1.31.29,2.92,2.92,0,0,0,1.35-.3,2.81,2.81,0,0,0,1-.81,3.54,3.54,0,0,0,.58-1.16,5.06,5.06,0,0,0,0-2.75,3.45,3.45,0,0,0-.58-1.16,2.85,2.85,0,0,0-1-.8A2.92,2.92,0,0,0,81.39,86.34Z"/><path class="cls-2" d="M94,86v8a5.74,5.74,0,0,1-.16,1.38,3.06,3.06,0,0,1-.57,1.18,2.78,2.78,0,0,1-1.11.82,4.55,4.55,0,0,1-1.79.31,5.5,5.5,0,0,1-1.27-.14,3.05,3.05,0,0,1-1-.45,2.27,2.27,0,0,1-.72-.81,2.87,2.87,0,0,1-.3-1.24h.63a2.27,2.27,0,0,0,.28,1,2,2,0,0,0,.6.65,2.54,2.54,0,0,0,.83.37,4.07,4.07,0,0,0,1,.12,3.56,3.56,0,0,0,1.46-.26,2.53,2.53,0,0,0,.93-.68,2.47,2.47,0,0,0,.49-1,4.26,4.26,0,0,0,.14-1.08V92.23h0a3.37,3.37,0,0,1-1.21,1.43,3.34,3.34,0,0,1-1.85.49,3.77,3.77,0,0,1-1.62-.32,3.13,3.13,0,0,1-1.13-.89,3.83,3.83,0,0,1-.67-1.33A5.85,5.85,0,0,1,86.59,90a5.29,5.29,0,0,1,.24-1.6,4,4,0,0,1,.7-1.33,3.38,3.38,0,0,1,1.15-.91,3.72,3.72,0,0,1,3.43.17,2.84,2.84,0,0,1,1.21,1.45h0V86Zm-3.71.35a2.74,2.74,0,0,0-1.34.31,2.84,2.84,0,0,0-.94.82,3.74,3.74,0,0,0-.56,1.16A4.72,4.72,0,0,0,87.21,90a5.13,5.13,0,0,0,.19,1.41A3.34,3.34,0,0,0,88,92.54a2.81,2.81,0,0,0,1,.78,2.86,2.86,0,0,0,1.31.29,2.92,2.92,0,0,0,1.35-.3,2.81,2.81,0,0,0,1-.81,3.54,3.54,0,0,0,.58-1.16,5.06,5.06,0,0,0,0-2.75,3.45,3.45,0,0,0-.58-1.16,2.85,2.85,0,0,0-1-.8A2.92,2.92,0,0,0,90.25,86.34Z"/><path class="cls-2" d="M104.21,82.7v1h-7v4.25h6.56v1H97.2v4.65h7.09v1H96.08V82.7Z"/><path class="cls-2" d="M110.87,87.13a2.26,2.26,0,0,0-1.62-.54,2.63,2.63,0,0,0-1.3.31,2.86,2.86,0,0,0-.93.82,3.75,3.75,0,0,0-.56,1.16,4.74,4.74,0,0,0,0,2.65,3.74,3.74,0,0,0,.56,1.16,2.86,2.86,0,0,0,.93.82,2.62,2.62,0,0,0,1.3.31,2.3,2.3,0,0,0,.91-.18,2.44,2.44,0,0,0,.76-.5,2.7,2.7,0,0,0,.54-.77,2.83,2.83,0,0,0,.26-1h1a3.93,3.93,0,0,1-1.14,2.42,3.33,3.33,0,0,1-2.37.87,4,4,0,0,1-1.72-.35,3.66,3.66,0,0,1-1.26-1A4.21,4.21,0,0,1,105.5,92a5.87,5.87,0,0,1,0-3.48,4.21,4.21,0,0,1,.77-1.43,3.76,3.76,0,0,1,1.26-1,3.91,3.91,0,0,1,1.72-.36,3.7,3.7,0,0,1,2.32.73,3.1,3.1,0,0,1,1.13,2.19h-1A2.86,2.86,0,0,0,110.87,87.13Z"/><path class="cls-2" d="M114.43,87.28a2.43,2.43,0,0,1,.72-.89,3,3,0,0,1,1.06-.51,5.18,5.18,0,0,1,1.35-.16,6,6,0,0,1,1.12.11,2.71,2.71,0,0,1,1,.4,2.2,2.2,0,0,1,.73.83,3,3,0,0,1,.28,1.39V93a.55.55,0,0,0,.61.63.8.8,0,0,0,.33-.07v.87l-.32,0-.35,0a1.57,1.57,0,0,1-.63-.11.85.85,0,0,1-.37-.3,1.14,1.14,0,0,1-.17-.47,4,4,0,0,1,0-.6h0a7,7,0,0,1-.57.73,2.82,2.82,0,0,1-.64.54,3,3,0,0,1-.81.33,4.43,4.43,0,0,1-1.08.12,4.26,4.26,0,0,1-1.11-.14,2.49,2.49,0,0,1-.91-.45,2.13,2.13,0,0,1-.61-.77,2.57,2.57,0,0,1-.22-1.11,2.2,2.2,0,0,1,.4-1.39,2.49,2.49,0,0,1,1-.77,6,6,0,0,1,1.47-.37l1.66-.21.58-.08a1,1,0,0,0,.41-.17.8.8,0,0,0,.26-.34,1.46,1.46,0,0,0,.09-.56,1.9,1.9,0,0,0-.17-.87,1.37,1.37,0,0,0-.48-.54,1.93,1.93,0,0,0-.71-.27,4.81,4.81,0,0,0-.87-.07,2.62,2.62,0,0,0-1.62.47,1.84,1.84,0,0,0-.66,1.51h-1A3.45,3.45,0,0,1,114.43,87.28Zm5.19,2.54a.59.59,0,0,1-.38.26,3.88,3.88,0,0,1-.49.12q-.66.12-1.36.21a7.47,7.47,0,0,0-1.28.27,2.5,2.5,0,0,0-.95.52,1.24,1.24,0,0,0-.37,1,1.51,1.51,0,0,0,.16.7,1.7,1.7,0,0,0,.42.53,1.84,1.84,0,0,0,.61.34,2.22,2.22,0,0,0,.71.12,3.57,3.57,0,0,0,1.14-.18,2.8,2.8,0,0,0,.95-.53,2.51,2.51,0,0,0,.88-2V89.82Z"/><path class="cls-2" d="M123.73,86v2h0a3.26,3.26,0,0,1,1.23-1.6,3.22,3.22,0,0,1,2-.51v1a3.13,3.13,0,0,0-1.29.19,2.89,2.89,0,0,0-1,.63,2.86,2.86,0,0,0-.65,1,3.28,3.28,0,0,0-.23,1.24v4.53h-1V86Z"/><path class="cls-2" d="M134.2,94.47V92.86h0a2.45,2.45,0,0,1-.49.76,3.16,3.16,0,0,1-.73.59,3.79,3.79,0,0,1-.88.37,3.44,3.44,0,0,1-.93.13,3.77,3.77,0,0,1-1.69-.35,3.38,3.38,0,0,1-1.2-1,4.17,4.17,0,0,1-.71-1.43,6.55,6.55,0,0,1,0-3.45,4.17,4.17,0,0,1,.71-1.43,3.47,3.47,0,0,1,1.2-1,3.7,3.7,0,0,1,1.69-.36,3.78,3.78,0,0,1,.93.12,3.13,3.13,0,0,1,.85.35,3,3,0,0,1,.7.59,2.47,2.47,0,0,1,.47.81h0V82.7h1V94.47Zm-5.7-2.94a3.62,3.62,0,0,0,.49,1.16,2.72,2.72,0,0,0,.87.83,2.39,2.39,0,0,0,1.27.32,2.79,2.79,0,0,0,1.39-.32,2.75,2.75,0,0,0,.92-.83,3.43,3.43,0,0,0,.51-1.16,5.56,5.56,0,0,0,0-2.62,3.43,3.43,0,0,0-.51-1.16,2.75,2.75,0,0,0-.92-.83,2.79,2.79,0,0,0-1.39-.32,2.39,2.39,0,0,0-1.27.32,2.72,2.72,0,0,0-.87.83,3.62,3.62,0,0,0-.49,1.16,5.56,5.56,0,0,0,0,2.62Z"/><rect class="cls-3" x="64.69" y="4.2" width="71.08" height="71.08" rx="10.54" ry="10.54"/><rect class="cls-3" x="64.09" y="3.6" width="72.28" height="72.28" rx="6.94" ry="6.94"/><path class="cls-4" d="M129.43,4.2a6.34,6.34,0,0,1,6.34,6.34V68.94a6.34,6.34,0,0,1-6.34,6.34H71a6.34,6.34,0,0,1-6.34-6.34V10.55A6.34,6.34,0,0,1,71,4.2h58.39m0-1.2H71a7.55,7.55,0,0,0-7.55,7.55V68.94A7.55,7.55,0,0,0,71,76.48h58.39A7.55,7.55,0,0,0,137,68.94V10.55A7.55,7.55,0,0,0,129.43,3Z"/><rect class="cls-5" x="79.18" y="27.17" width="44.84" height="38.76" rx="1.76" ry="1.76" transform="translate(-1.98 4.58) rotate(-2.56)"/><rect class="cls-6" x="98.29" y="27.02" width="6.63" height="39.58" transform="translate(-1.99 4.59) rotate(-2.56)"/><path class="cls-6" d="M100,27s0-.2-.1-.58-.14-.93-.17-1.63c-1.79-9.9,4.23-13.92,4.65-14.28A7.45,7.45,0,0,1,108,9c8-1.29,11.63,9.46,11.68,9.8a7.38,7.38,0,0,1-.23,4.16,7,7,0,0,1-2.31,3.15c-4.22,4-14.13,1.93-14.81,1.78s-2.29-.71-2.29-.71Zm1.31-.23c0,.32,4.16-.3,6.38-.69a25.2,25.2,0,0,0,3.51-.87,9.77,9.77,0,0,0,3.46-1.85,3.66,3.66,0,0,0,1.09-1.61,3.61,3.61,0,0,0,0-2,8.16,8.16,0,0,0-.35-1c-.17-.31-.32-.64-.52-.94s-.39-.6-.61-.9l-.71-.88a11,11,0,0,0-3.3-2.77,4.21,4.21,0,0,0-2-.4,4,4,0,0,0-1.83.67,9.31,9.31,0,0,0-2.52,3,23.39,23.39,0,0,0-1.51,3.28A31.32,31.32,0,0,0,101.29,26.77Z"/><path class="cls-6" d="M98.86,26.75s-4.8-8.48-9.09-9.82c-2.15-.67-3.37,1.75-4.17,3.47a2.06,2.06,0,0,0,.74,2.6,9.59,9.59,0,0,0,2.47,1.15C90,24.58,98.85,26.75,98.86,26.75Zm1.3,1a6.66,6.66,0,0,1-2.23.43c-1.41.05-3.43-.15-5.86-.34a32.48,32.48,0,0,1-3.91-.51A15.09,15.09,0,0,1,84,25.87a6.56,6.56,0,0,1-1.87-1.57,4.2,4.2,0,0,1-.8-2.43l0-.65c0-.21.09-.42.13-.63a7.23,7.23,0,0,1,.4-1.2c.16-.39.38-.76.57-1.13s.43-.67.64-1l0,0a11.05,11.05,0,0,1,3.57-3.42,5.53,5.53,0,0,1,2.45-.6,5.83,5.83,0,0,1,2.37.63,11.52,11.52,0,0,1,3.37,2.93A25.59,25.59,0,0,1,97.05,20a41.39,41.39,0,0,1,2.52,5.31l.85,2.34Z"/><polygon class="cls-7" points="78.88 41.35 78.88 43.07 98.61 53.88 98.45 50.36 78.88 41.35"/><polygon class="cls-7" points="123.87 41.12 123.64 40.03 105.02 48.91 105.16 51.91 123.87 41.12"/><path class="cls-6" d="M100.23,53.68l33.2,20.18a6.33,6.33,0,0,0,2.34-4.92V33.14Z"/><polygon class="cls-8" points="100.23 53.68 103.99 51.37 133.39 73.83 100.23 53.68"/><path class="cls-6" d="M100.23,53.68,64.69,33.14v35.8A6.35,6.35,0,0,0,71,75.28h58.39a6.31,6.31,0,0,0,4-1.42Z"/></g></g></svg>