<?xml version="1.0" encoding="utf-8"?>
<!-- Generator: Adobe Illustrator 16.0.0, SVG Export Plug-In . SVG Version: 6.00 Build 0)  -->
<!DOCTYPE svg PUBLIC "-//W3C//DTD SVG 1.1//EN" "http://www.w3.org/Graphics/SVG/1.1/DTD/svg11.dtd">
<svg version="1.1" id="Layer_1" xmlns="http://www.w3.org/2000/svg" xmlns:xlink="http://www.w3.org/1999/xlink" x="0px" y="0px"
	 width="200px" height="100px" viewBox="0 0 200 100" enable-background="new 0 0 200 100" xml:space="preserve">
<g>
	<g>
		<g>
			<path fill="#438ECA" d="M73.862,64.188V41.699c0-2.26,0.734-4.172,2.202-5.738c1.468-1.567,3.232-2.352,5.294-2.352h1.948
				c0.535,0,0.96,0.19,1.271,0.571c0.311,0.382,0.466,0.826,0.466,1.335c0,0.508-0.155,0.953-0.466,1.334
				c-0.312,0.381-0.735,0.571-1.271,0.571h-1.102c-1.13,0-2.062,0.367-2.796,1.102c-0.734,0.735-1.101,1.651-1.101,2.752v4.278
				h5.506c0.366,0,0.663,0.163,0.889,0.486c0.227,0.324,0.339,0.714,0.339,1.165s-0.112,0.841-0.339,1.165s-0.521,0.486-0.889,0.486
				h-5.504v15.331c0,0.424-0.228,0.771-0.679,1.037c-0.451,0.271-0.988,0.404-1.608,0.404c-0.622,0-1.139-0.135-1.546-0.404
				C74.067,64.958,73.862,64.611,73.862,64.188z"/>
			<path fill="#438ECA" d="M87.712,64.146V46.993c0-0.424,0.204-0.77,0.614-1.037c0.408-0.27,0.925-0.402,1.546-0.402
				c0.564,0,1.044,0.135,1.439,0.406c0.395,0.271,0.593,0.621,0.593,1.05v1.886c0.479-0.999,1.207-1.848,2.182-2.547
				c0.976-0.699,2.04-1.05,3.198-1.05h1.355c0.45,0,0.846,0.194,1.186,0.578c0.338,0.386,0.508,0.85,0.508,1.392
				s-0.17,1.014-0.508,1.412c-0.339,0.4-0.735,0.599-1.186,0.599h-1.355c-1.354,0-2.549,0.578-3.579,1.731
				c-1.031,1.156-1.546,2.648-1.546,4.479v8.658c0,0.367-0.226,0.705-0.678,1.015c-0.451,0.311-0.988,0.465-1.609,0.465
				s-1.137-0.154-1.546-0.465C87.916,64.851,87.712,64.513,87.712,64.146z"/>
			<path fill="#438ECA" d="M102.578,38.185c0-0.648,0.254-1.2,0.762-1.651c0.509-0.451,1.114-0.678,1.82-0.678
				s1.314,0.227,1.821,0.678c0.508,0.451,0.762,1.003,0.762,1.651c0,0.621-0.254,1.165-0.762,1.631
				c-0.507,0.467-1.115,0.699-1.821,0.699s-1.313-0.232-1.82-0.699C102.833,39.35,102.578,38.806,102.578,38.185z M102.959,64.146
				V46.993c0-0.424,0.203-0.77,0.613-1.037c0.409-0.27,0.939-0.402,1.589-0.402c0.65,0,1.187,0.134,1.609,0.402
				c0.423,0.268,0.636,0.612,0.636,1.037v17.151c0,0.367-0.22,0.707-0.657,1.019c-0.437,0.311-0.968,0.465-1.588,0.465
				c-0.621,0-1.144-0.154-1.567-0.465C103.17,64.851,102.959,64.513,102.959,64.146z"/>
			<path fill="#438ECA" d="M110.794,62.579c0-0.425,0.148-0.859,0.448-1.314c0.299-0.451,0.661-0.678,1.088-0.678
				c0.255,0,0.612,0.168,1.066,0.498c0.456,0.334,1.066,0.666,1.835,0.996c0.768,0.332,1.692,0.498,2.773,0.498
				c2.418,0,3.629-0.769,3.629-2.302c0-0.823-0.354-1.471-1.059-1.938c-0.707-0.467-1.561-0.836-2.563-1.107
				c-1.004-0.27-1.998-0.573-2.985-0.916c-0.989-0.34-1.835-0.924-2.542-1.746c-0.705-0.824-1.06-1.89-1.06-3.195
				c0-1.658,0.595-3.085,1.779-4.28c1.186-1.195,3.007-1.792,5.464-1.792c1.608,0,3.07,0.247,4.382,0.741
				c1.313,0.494,1.972,1.079,1.972,1.757c0,0.396-0.163,0.854-0.487,1.377c-0.325,0.522-0.728,0.783-1.207,0.783
				c-0.169,0-0.748-0.212-1.736-0.635c-0.988-0.425-1.934-0.637-2.839-0.637c-1.129,0-1.982,0.257-2.562,0.769
				c-0.578,0.512-0.869,1.079-0.869,1.705c0,0.681,0.354,1.222,1.06,1.618c0.706,0.397,1.567,0.726,2.583,0.98
				c1.018,0.255,2.019,0.567,3.003,0.936c0.986,0.369,1.826,1.011,2.521,1.919c0.694,0.909,1.042,2.073,1.042,3.493
				c0,1.828-0.649,3.261-1.949,4.302c-1.299,1.039-3.134,1.561-5.506,1.561c-2.005,0-3.721-0.354-5.145-1.061
				C111.506,64.202,110.794,63.425,110.794,62.579z"/>
			<path fill="#438ECA" d="M129.216,64.146V35.051c0-0.424,0.198-0.771,0.596-1.038c0.395-0.268,0.917-0.402,1.565-0.402
				c0.649,0,1.193,0.136,1.631,0.402c0.438,0.27,0.656,0.614,0.656,1.038v18.846l8.854-8.131c0.253-0.254,0.563-0.381,0.931-0.381
				c0.479,0,0.959,0.227,1.44,0.678c0.479,0.451,0.719,0.933,0.719,1.439c0,0.367-0.127,0.678-0.381,0.932l-5.464,4.87l6.648,9.572
				c0.168,0.254,0.254,0.508,0.254,0.762c0,0.508-0.282,1.01-0.848,1.502c-0.565,0.494-1.115,0.742-1.651,0.742
				c-0.479,0-0.876-0.213-1.186-0.635l-6.227-9.191l-3.092,2.795v5.293c0,0.367-0.227,0.707-0.678,1.017
				c-0.453,0.313-0.989,0.467-1.609,0.467c-0.621,0-1.136-0.154-1.546-0.467C129.422,64.851,129.216,64.513,129.216,64.146z"/>
			<path fill="#438ECA" d="M149.333,57.624V47.036c0-0.396,0.227-0.741,0.678-1.038c0.452-0.296,0.975-0.444,1.568-0.444
				c0.593,0,1.107,0.148,1.546,0.444c0.438,0.296,0.656,0.641,0.656,1.034v10.561c0,1.127,0.431,2.141,1.291,3.041
				c0.862,0.902,1.871,1.352,3.029,1.352c1.186,0,2.202-0.442,3.048-1.33c0.849-0.887,1.271-1.907,1.271-3.063V46.988
				c0-0.394,0.22-0.73,0.656-1.013c0.438-0.282,0.967-0.423,1.588-0.423c0.62,0,1.136,0.142,1.546,0.423
				c0.409,0.283,0.614,0.621,0.614,1.018v10.631c0,2.229-0.861,4.178-2.582,5.844c-1.723,1.668-3.771,2.5-6.142,2.5
				c-2.372,0-4.428-0.832-6.161-2.5C150.203,61.802,149.333,59.854,149.333,57.624z"/>
			<path fill="#438ECA" d="M170.044,62.579c0-0.425,0.149-0.859,0.448-1.314c0.3-0.451,0.663-0.678,1.089-0.678
				c0.256,0,0.612,0.168,1.067,0.498c0.455,0.334,1.064,0.666,1.834,0.996c0.768,0.332,1.692,0.498,2.773,0.498
				c2.418,0,3.629-0.769,3.629-2.302c0-0.823-0.354-1.471-1.059-1.938c-0.707-0.467-1.561-0.836-2.563-1.107
				c-1.004-0.27-1.997-0.573-2.985-0.916c-0.989-0.34-1.835-0.924-2.541-1.746c-0.707-0.824-1.061-1.89-1.061-3.195
				c0-1.658,0.594-3.085,1.778-4.28c1.186-1.195,3.008-1.792,5.464-1.792c1.609,0,3.071,0.247,4.383,0.741
				c1.313,0.494,1.971,1.079,1.971,1.757c0,0.396-0.163,0.854-0.487,1.377c-0.325,0.522-0.727,0.783-1.206,0.783
				c-0.17,0-0.748-0.212-1.737-0.635c-0.987-0.425-1.934-0.637-2.838-0.637c-1.13,0-1.981,0.257-2.563,0.769
				c-0.578,0.512-0.868,1.079-0.868,1.705c0,0.681,0.354,1.222,1.06,1.618c0.706,0.397,1.567,0.726,2.584,0.98
				s2.018,0.567,3.003,0.936c0.985,0.369,1.824,1.011,2.52,1.919c0.693,0.909,1.042,2.073,1.042,3.493
				c0,1.828-0.65,3.261-1.949,4.302c-1.299,1.039-3.134,1.561-5.505,1.561c-2.005,0-3.721-0.354-5.146-1.061
				C170.757,64.202,170.044,63.425,170.044,62.579z"/>
		</g>
		<path fill="#85BADE" d="M50.504,61.604c-7.033,12.744-24.347,16.621-35.478,8.068c-0.625-0.479-1.211-0.99-1.591-1.689
			c-0.187-0.344-0.361-0.735-0.12-1.108c0.254-0.396,0.691-0.347,1.064-0.244c1.784,0.496,3.553,1.047,5.343,1.521
			c1.128,0.3,2.273,0.584,3.429,0.726c2.616,0.317,4.917-0.441,6.396-2.674c1.416-2.14,0.717-4.33-0.508-6.339
			c-0.886-1.454-1.904-2.829-2.841-4.254c-0.537-0.815-1.035-1.658-1.156-2.659c-0.104-0.859,0.167-1.545,0.946-1.968
			c0.721-0.392,1.313-0.056,1.867,0.39c1.15,0.926,2.009,2.12,2.934,3.251c1.05,1.281,2.106,2.556,3.274,3.738
			c2.219,2.246,4.849,2.74,7.811,1.998c1.671-0.418,3.188-1.2,4.703-1.996c1.078-0.567,2.13-1.221,3.345-1.454
			c1.451-0.279,2.137,0.467,1.794,1.889C51.463,59.859,50.92,60.794,50.504,61.604z"/>
		<path fill="#C9DCA8" d="M40.017,28.739c9.005,4.779,14.233,14.27,13.188,23.594c-0.087,0.777-0.187,1.557-0.598,2.244
			c-0.228,0.375-0.479,0.791-0.998,0.727c-0.446-0.053-0.627-0.455-0.735-0.827c-0.391-1.359-0.761-2.725-1.117-4.095
			c-0.456-1.748-0.882-3.507-1.74-5.116c-1.159-2.167-2.893-3.628-5.403-3.688c-2.418-0.059-3.943,1.465-4.994,3.485
			c-0.631,1.212-1.182,2.465-1.771,3.698c-0.294,0.615-0.554,1.253-0.895,1.841c-0.952,1.646-2.069,2.341-3.095,1.797
			c-1.57-0.833-0.887-2.209-0.523-3.353c0.662-2.09,1.537-4.113,2.228-6.196c1.451-4.389,0.475-7.484-3.24-10.27
			c-1.403-1.053-2.906-1.971-4.35-2.971c-0.398-0.274-0.792-0.58-1.112-0.938c-1.187-1.325-0.867-2.333,0.892-2.657
			c3.554-0.652,6.989,0.006,10.372,1.063C37.57,27.535,38.961,28.135,40.017,28.739z"/>
		<path fill="#F2D097" d="M7.764,39.268c2.961-5.166,6.489-8.917,11.278-11.368c1.008-0.517,2.393-1.391,3.186-0.237
			c0.724,1.053-0.749,1.809-1.431,2.539c-1.894,2.026-4.04,3.816-5.572,6.175c-1.78,2.735-1.485,6.226,0.74,7.966
			c1.393,1.088,3.033,1.282,4.719,1.1c1.647-0.178,3.281-0.475,4.926-0.674c1.014-0.123,2.044-0.238,3.036,0.148
			c0.694,0.271,1.113,0.78,1.155,1.543c0.041,0.75-0.448,1.158-1.044,1.44c-1.024,0.486-2.146,0.63-3.249,0.829
			c-1.872,0.337-3.75,0.638-5.609,1.026c-3.613,0.758-5.604,3.089-6.349,6.63c-0.425,2.021-0.366,4.072-0.548,6.107
			c-0.108,1.202-0.045,2.737-1.473,3.055c-1.259,0.277-1.871-1.08-2.409-2.004C4.418,55.468,3.732,47.206,7.764,39.268z"/>
		<path fill="#F2D097" d="M19.142,42.829c-1.962-1.088-2.658-3.503-1.572-5.452c1.083-1.942,3.511-2.631,5.468-1.552
			c1.936,1.066,2.657,3.561,1.582,5.466C23.523,43.229,21.096,43.912,19.142,42.829z"/>
		<path fill="#C9DCA8" d="M46.124,50.335c-1.082,1.95-3.549,2.651-5.465,1.556c-1.928-1.104-2.601-3.542-1.515-5.49
			c1.077-1.931,3.55-2.631,5.477-1.55C46.554,45.937,47.219,48.36,46.124,50.335z"/>
		<path fill="#85BADE" d="M20.134,61.296c0.879-2.062,3.182-2.961,5.267-2.063c2.065,0.892,2.97,3.188,2.066,5.265
			c-0.896,2.061-3.2,2.969-5.268,2.069C20.142,65.677,19.243,63.382,20.134,61.296z"/>
		<g>
			<path fill="#438ECA" d="M181.354,34.467c0-0.331,0.122-0.496,0.364-0.496h4.986c0.242,0,0.364,0.165,0.364,0.496
				c0,0.365-0.121,0.547-0.361,0.547h-1.937v6.264c0,0.278-0.187,0.417-0.562,0.417c-0.374,0-0.562-0.139-0.562-0.417v-6.264h-1.936
				C181.474,35.014,181.354,34.832,181.354,34.467z M188.274,41.276v-6.759c0-0.365,0.188-0.548,0.563-0.548
				c0.33,0,0.608,0.244,0.835,0.73l1.881,4.409l1.92-4.409c0.207-0.486,0.493-0.73,0.857-0.73s0.548,0.183,0.548,0.548v6.759
				c0,0.278-0.183,0.418-0.548,0.418c-0.384,0-0.574-0.14-0.574-0.418v-4.983l-1.791,4.176c-0.086,0.209-0.224,0.313-0.414,0.313
				c-0.174,0-0.295-0.104-0.361-0.313l-1.79-4.228v5.036c0,0.278-0.188,0.417-0.563,0.417
				C188.463,41.693,188.274,41.556,188.274,41.276z"/>
		</g>
	</g>
</g>
</svg>
