<?xml version="1.0" encoding="utf-8"?>
<!-- Generator: Adobe Illustrator 16.0.0, SVG Export Plug-In . SVG Version: 6.00 Build 0)  -->
<!DOCTYPE svg PUBLIC "-//W3C//DTD SVG 1.1//EN" "http://www.w3.org/Graphics/SVG/1.1/DTD/svg11.dtd">
<svg version="1.1" id="Layer_1" xmlns="http://www.w3.org/2000/svg" xmlns:xlink="http://www.w3.org/1999/xlink" x="0px" y="0px"
	 width="200px" height="100px" viewBox="0 0 200 100" enable-background="new 0 0 200 100" xml:space="preserve">
<g>
	<g>
		<path fill-rule="evenodd" clip-rule="evenodd" fill="none" d="M20.783,38.444c34.619,0,69.238,0,103.856,0
			c-0.973,0.378-1.982,0.682-2.91,1.149c-2.304,1.159-3.579,3.047-3.617,5.653c-0.039,2.679,1.19,4.655,3.641,5.722
			c1.561,0.68,3.216,1.145,4.838,1.681c1.051,0.348,2.161,0.55,3.164,0.999c1.191,0.533,1.36,1.953,0.463,2.89
			c-1.439,1.502-5.935,0.922-6.455-1.033c-0.479-1.799-1.516-1.779-2.85-1.711c-0.556,0.028-1.118,0.05-1.669-0.005
			c-1.222-0.121-1.547,0.466-1.423,1.578c0.303,2.708,1.853,4.471,4.2,5.629c0.85,0.419,1.744,0.747,2.618,1.116
			c-34.712,0-69.423,0-104.135,0c0.291-0.098,0.576-0.223,0.874-0.289c3.551-0.782,6.142-3.258,6.454-6.415
			c0.177-1.792,0.112-3.616,0.026-5.42c-0.017-0.352-0.626-0.956-0.978-0.968c-2.503-0.084-5.011-0.079-7.514-0.01
			c-0.363,0.01-0.951,0.453-1.031,0.792c-0.721,3.033-0.072,3.843,3.001,3.917c0.092,0.003,0.186,0.009,0.278,0
			c0.733-0.069,0.828,0.245,0.68,0.913c-0.383,1.727-1.684,2.71-3.692,2.69c-1.997-0.02-3.575-1.165-3.646-2.909
			c-0.109-2.687-0.102-5.383,0.003-8.069c0.065-1.666,1.294-2.731,3.113-3.036c1.761-0.295,3.847,0.474,4.271,1.859
			c0.377,1.229,1.045,1.461,2.135,1.364c0.69-0.062,1.397-0.069,2.086,0.001c1.196,0.123,1.445-0.498,1.334-1.507
			c-0.262-2.368-1.55-4.05-3.586-5.135C23.195,39.295,21.963,38.919,20.783,38.444z M109.086,51.082
			c-0.092,0.037-0.184,0.074-0.274,0.111c-1.915-3.09-3.981-6.098-5.691-9.297c-1.223-2.288-2.701-3.332-5.354-3.014
			c-1.336,0.161-1.729,0.503-1.716,1.804c0.053,5.748,0.023,11.496,0.023,17.245c0,3.684,0,3.684,3.648,3.676
			c1.806-0.004,1.807-0.004,1.808-1.885c0.001-3.498,0-6.996,0-10.494c2.247,3.181,4.392,6.353,6.204,9.704
			c1.149,2.125,2.558,3.002,4.957,2.716c1.789-0.213,1.813-0.046,1.813-1.927c0.002-5.701,0.001-11.403,0.001-17.105
			c0-3.688,0-3.688-3.652-3.668c-1.681,0.009-1.761,0.086-1.764,1.845C109.082,44.223,109.086,47.652,109.086,51.082z M45.27,53.536
			c0.406-0.23,0.688-0.385,0.963-0.548c3.05-1.813,4.37-5.174,3.445-8.769c-0.791-3.074-3.413-5.103-6.914-5.198
			c-3.245-0.088-6.495-0.009-9.74-0.095c-1.305-0.035-1.656,0.458-1.645,1.709c0.054,5.8,0.024,11.6,0.024,17.4
			c0,3.581,0,3.581,3.615,3.571c1.85-0.005,1.873-0.023,1.874-1.861c0.003-4.872-0.014-9.744,0.029-14.616
			c0.003-0.41,0.377-1.155,0.613-1.169c1.523-0.091,3.063-0.101,4.585,0.02c1.29,0.103,2.224,1.152,2.35,2.375
			c0.137,1.334-0.49,2.267-1.673,2.747c-0.668,0.271-1.459,0.227-2.152,0.453c-0.4,0.13-1.016,0.51-1.022,0.79
			c-0.049,2.047-0.519,4.192,1.128,5.944c0.47,0.499,0.773,1.152,1.169,1.725c3.04,4.387,1.469,3.49,6.862,3.578
			c0.426,0.008,0.855-0.188,1.282-0.289c-0.133-0.46-0.165-0.988-0.417-1.369C48.237,57.812,46.774,55.724,45.27,53.536z
			 M53.472,50.253c0,3.2,0.045,6.402-0.022,9.602c-0.027,1.291,0.33,1.811,1.723,1.782c4.126-0.082,8.256,0.001,12.384-0.038
			c3.946-0.037,3.316,0.673,3.412-3.49c0.023-1.048-0.392-1.375-1.396-1.355c-2.411,0.048-4.824,0.016-7.236,0.016
			c-3.553,0-3.526,0.001-3.376-3.539c0.032-0.765,0.307-0.925,0.99-0.914c2.041,0.032,4.082,0.004,6.123,0.014
			c3.597,0.016,3.069,0.142,3.188-3.129c0.053-1.433-0.589-1.761-1.811-1.742c-2.041,0.032-4.082,0.008-6.123,0.008
			c-2.379,0-2.332,0-2.369-2.33c-0.015-0.961,0.251-1.286,1.238-1.257c2.271,0.067,4.545,0.026,6.818,0.021
			c3.92-0.009,3.303,0.28,3.396-3.459c0.029-1.15-0.404-1.527-1.551-1.514c-4.592,0.051-9.185,0.068-13.776-0.007
			c-1.36-0.022-1.649,0.532-1.629,1.731C53.506,43.851,53.472,47.052,53.472,50.253z M74.8,50.258c0,3.154-0.001,6.31,0,9.464
			c0,1.883,0.001,1.885,1.951,1.886c4.082,0.001,8.165,0.027,12.247-0.008c3.661-0.032,3.271,0.688,3.313-3.485
			c0.01-1.027-0.422-1.38-1.425-1.36c-2.412,0.046-4.824,0.015-7.237,0.015c-3.422,0-3.381,0-3.348-3.424
			c0.009-0.929,0.356-1.05,1.139-1.032c2.04,0.044,4.082,0.015,6.124,0.015c3.065,0,3.01,0,3.018-3.052
			c0.003-1.406-0.566-1.87-1.904-1.826c-1.993,0.065-3.989,0.017-5.984,0.017c-2.411,0-2.367,0-2.388-2.422
			c-0.008-0.908,0.248-1.189,1.163-1.164c2.225,0.063,4.453,0.024,6.68,0.02c4.171-0.01,3.429,0.269,3.534-3.6
			c0.028-1.031-0.375-1.375-1.393-1.368c-4.685,0.036-9.371,0.039-14.056-0.001c-1.075-0.009-1.475,0.337-1.456,1.445
			C74.836,43.669,74.8,46.964,74.8,50.258z"/>
		<path fill-rule="evenodd" clip-rule="evenodd" fill="none" d="M128.816,38.444c20.492,0,40.984,0.01,61.476-0.029
			c1.033-0.002,1.205,0.248,1.198,1.223c-0.049,7.093-0.049,14.187,0,21.28c0.006,0.973-0.162,1.226-1.197,1.224
			c-20.214-0.04-40.428-0.03-60.642-0.03c1.016-0.377,2.074-0.667,3.037-1.147c2.662-1.329,3.705-3.622,3.599-6.498
			c-0.101-2.731-1.612-4.46-4.086-5.368c-1.557-0.572-3.192-0.93-4.753-1.494c-1.072-0.387-2.157-0.844-3.087-1.485
			c-0.898-0.621-0.784-1.67,0.055-2.347c1.452-1.171,4.799-0.81,5.599,0.823c0.621,1.269,1.423,1.499,2.616,1.376
			c0.55-0.056,1.117-0.068,1.664,0.002c1.386,0.176,1.562-0.58,1.399-1.68c-0.333-2.268-1.667-3.778-3.667-4.71
			C131.002,39.106,129.89,38.818,128.816,38.444z M172.457,61.607c0.231,0,0.464,0,0.695,0c2.151-0.001,2.149,0,1.396-2.044
			c-2.126-5.771-4.231-11.55-6.379-17.313c-1.468-3.935-0.756-3.174-4.752-3.333c-1.481-0.059-2.119,0.536-2.597,1.86
			c-2.228,6.177-4.546,12.322-6.83,18.479c-0.873,2.35-0.872,2.35,1.694,2.35c2.974,0,3.001,0.01,4.024-2.822
			c0.248-0.685,0.567-0.927,1.288-0.905c1.715,0.05,3.432,0.016,5.147,0.016c2.259,0,2.319-0.019,3.001,2.176
			c0.365,1.173,0.97,1.715,2.198,1.544C171.709,61.564,172.086,61.607,172.457,61.607z M146.608,38.948c-1.9,0-3.8-0.024-5.7,0.005
			c-3.919,0.06-3.364-0.711-3.432,3.623c-0.014,0.893,0.384,1.293,1.223,1.307c1.251,0.021,2.509,0.093,3.751-0.004
			c1.133-0.088,1.384,0.334,1.372,1.403c-0.054,4.958-0.004,9.916-0.039,14.874c-0.008,1.058,0.312,1.559,1.432,1.465
			c0.782-0.065,1.583-0.089,2.359,0.004c1.401,0.167,1.76-0.503,1.749-1.766c-0.039-4.355-0.015-8.711-0.015-13.067
			c0-2.89,0-2.895,2.885-2.889c3.935,0.008,3.265,0.151,3.368-3.352c0.035-1.184-0.343-1.664-1.587-1.625
			C151.521,39.003,149.064,38.948,146.608,38.948z M182.287,38.948c-1.899,0-3.801-0.024-5.7,0.005
			c-3.832,0.061-3.328-0.701-3.403,3.522c-0.019,1.042,0.444,1.423,1.397,1.422c1.205-0.002,2.415,0.068,3.613-0.017
			c1.008-0.072,1.344,0.188,1.326,1.272c-0.071,4.263-0.029,8.528-0.029,12.792c0,3.673,0,3.673,3.653,3.662
			c1.791-0.005,1.873-0.079,1.875-1.885c0.005-4.913,0.021-9.826-0.017-14.738c-0.007-0.84,0.201-1.166,1.078-1.1
			c0.968,0.073,1.945,0.018,2.919,0.016c2.186-0.003,2.186-0.003,2.186-2.109c0-0.371-0.042-0.748,0.008-1.111
			c0.178-1.306-0.291-1.82-1.677-1.761C187.111,39.022,184.697,38.948,182.287,38.948z"/>
		<path fill-rule="evenodd" clip-rule="evenodd" fill="#00785E" d="M20.783,38.444c1.18,0.475,2.412,0.851,3.528,1.445
			c2.037,1.085,3.325,2.767,3.586,5.135c0.111,1.009-0.138,1.629-1.334,1.507c-0.689-0.07-1.396-0.063-2.086-0.001
			c-1.09,0.097-1.758-0.136-2.135-1.364c-0.424-1.385-2.511-2.154-4.271-1.859c-1.819,0.305-3.048,1.371-3.113,3.036
			c-0.104,2.687-0.112,5.383-0.003,8.069c0.071,1.744,1.649,2.89,3.646,2.909c2.009,0.02,3.309-0.964,3.692-2.69
			c0.148-0.668,0.053-0.982-0.68-0.913c-0.092,0.009-0.186,0.003-0.278,0c-3.073-0.074-3.722-0.885-3.001-3.917
			c0.081-0.338,0.668-0.782,1.031-0.792c2.503-0.069,5.011-0.075,7.514,0.01c0.352,0.012,0.961,0.616,0.978,0.968
			c0.086,1.804,0.151,3.628-0.026,5.42c-0.312,3.157-2.903,5.633-6.454,6.415c-0.298,0.066-0.583,0.191-0.874,0.289
			c-1.393,0-2.785,0-4.177,0c-3.166-0.941-5.933-2.359-6.961-5.847c0-3.898,0-7.796,0-11.695c0.792-2.573,2.431-4.365,4.953-5.326
			c0.754-0.288,1.524-0.534,2.287-0.799C17.999,38.444,19.391,38.444,20.783,38.444z"/>
		<path fill-rule="evenodd" clip-rule="evenodd" fill="#00785E" d="M128.816,38.444c1.073,0.374,2.186,0.662,3.211,1.14
			c2,0.932,3.334,2.442,3.667,4.71c0.162,1.1-0.014,1.856-1.399,1.68c-0.547-0.07-1.114-0.058-1.664-0.002
			c-1.193,0.123-1.995-0.108-2.616-1.376c-0.8-1.633-4.146-1.994-5.599-0.823c-0.839,0.676-0.953,1.726-0.055,2.347
			c0.93,0.642,2.015,1.099,3.087,1.485c1.561,0.563,3.196,0.922,4.753,1.494c2.474,0.908,3.985,2.637,4.086,5.368
			c0.106,2.876-0.937,5.169-3.599,6.498c-0.963,0.48-2.021,0.771-3.037,1.147c-1.671,0-3.341,0-5.012,0
			c-0.874-0.369-1.769-0.697-2.618-1.116c-2.348-1.158-3.897-2.921-4.2-5.629c-0.124-1.112,0.201-1.699,1.423-1.578
			c0.551,0.055,1.113,0.033,1.669,0.005c1.334-0.068,2.371-0.088,2.85,1.711c0.521,1.955,5.016,2.535,6.455,1.033
			c0.897-0.937,0.729-2.356-0.463-2.89c-1.003-0.449-2.113-0.651-3.164-0.999c-1.622-0.536-3.277-1.001-4.838-1.681
			c-2.45-1.067-3.68-3.042-3.641-5.722c0.038-2.605,1.313-4.494,3.617-5.653c0.928-0.467,1.938-0.771,2.91-1.149
			C126.031,38.444,127.424,38.444,128.816,38.444z"/>
		<path fill-rule="evenodd" clip-rule="evenodd" fill="none" d="M16.606,38.444c-0.763,0.265-1.533,0.512-2.287,0.799
			c-2.522,0.961-4.16,2.753-4.953,5.326c0-1.81,0.033-3.621-0.018-5.429c-0.017-0.601,0.115-0.728,0.715-0.715
			C12.244,38.473,14.425,38.444,16.606,38.444z"/>
		<path fill-rule="evenodd" clip-rule="evenodd" fill="none" d="M9.367,56.265c1.028,3.487,3.795,4.905,6.961,5.847
			c-2.088,0-4.177-0.029-6.264,0.019c-0.6,0.014-0.733-0.114-0.715-0.715C9.401,59.699,9.367,57.981,9.367,56.265z"/>
		<path fill-rule="evenodd" clip-rule="evenodd" fill="#01785E" d="M109.086,51.082c0-3.43-0.004-6.859,0.002-10.289
			c0.003-1.759,0.083-1.836,1.764-1.845c3.652-0.02,3.652-0.02,3.652,3.668c0,5.702,0.001,11.404-0.001,17.105
			c0,1.881-0.023,1.714-1.813,1.927c-2.399,0.286-3.808-0.591-4.957-2.716c-1.813-3.352-3.957-6.523-6.204-9.704
			c0,3.498,0.001,6.996,0,10.494c-0.001,1.881-0.002,1.881-1.808,1.885c-3.648,0.008-3.648,0.008-3.648-3.676
			c0-5.749,0.03-11.497-0.023-17.245c-0.012-1.301,0.38-1.644,1.716-1.804c2.653-0.318,4.131,0.727,5.354,3.014
			c1.71,3.199,3.776,6.207,5.691,9.297C108.902,51.156,108.994,51.119,109.086,51.082z"/>
		<path fill-rule="evenodd" clip-rule="evenodd" fill="#01785E" d="M45.27,53.536c1.504,2.188,2.967,4.275,4.376,6.398
			c0.252,0.381,0.284,0.909,0.417,1.369c-0.427,0.102-0.856,0.297-1.282,0.289c-5.394-0.088-3.823,0.809-6.862-3.578
			c-0.396-0.572-0.699-1.226-1.169-1.725c-1.647-1.752-1.178-3.897-1.128-5.944c0.006-0.28,0.622-0.66,1.022-0.79
			c0.693-0.226,1.484-0.182,2.152-0.453c1.183-0.48,1.81-1.413,1.673-2.747c-0.126-1.223-1.06-2.271-2.35-2.375
			c-1.522-0.121-3.062-0.111-4.585-0.02c-0.236,0.014-0.609,0.759-0.613,1.169c-0.043,4.872-0.025,9.744-0.029,14.616
			c-0.001,1.838-0.024,1.856-1.874,1.861c-3.615,0.01-3.615,0.01-3.615-3.571c0-5.8,0.03-11.6-0.024-17.4
			c-0.012-1.251,0.339-1.745,1.645-1.709c3.245,0.086,6.495,0.006,9.74,0.095c3.5,0.095,6.123,2.124,6.914,5.198
			c0.925,3.595-0.395,6.956-3.445,8.769C45.957,53.151,45.676,53.306,45.27,53.536z"/>
		<path fill-rule="evenodd" clip-rule="evenodd" fill="#01785E" d="M53.472,50.253c0-3.201,0.034-6.402-0.018-9.602
			c-0.02-1.199,0.269-1.754,1.629-1.731c4.591,0.075,9.184,0.059,13.776,0.007c1.147-0.013,1.58,0.364,1.551,1.514
			c-0.093,3.739,0.524,3.45-3.396,3.459c-2.272,0.005-4.547,0.047-6.818-0.021c-0.987-0.029-1.253,0.296-1.238,1.257
			c0.037,2.329-0.01,2.33,2.369,2.33c2.041,0,4.082,0.024,6.123-0.008c1.221-0.019,1.863,0.309,1.811,1.742
			c-0.12,3.271,0.408,3.145-3.188,3.129c-2.041-0.01-4.082,0.019-6.123-0.014c-0.683-0.011-0.958,0.149-0.99,0.914
			c-0.15,3.54-0.177,3.539,3.376,3.539c2.412,0,4.825,0.032,7.236-0.016c1.004-0.02,1.42,0.308,1.396,1.355
			c-0.095,4.163,0.534,3.453-3.412,3.49c-4.128,0.039-8.257-0.044-12.384,0.038c-1.394,0.028-1.75-0.491-1.723-1.782
			C53.517,56.655,53.472,53.453,53.472,50.253z"/>
		<path fill-rule="evenodd" clip-rule="evenodd" fill="#01785E" d="M74.8,50.258c0-3.294,0.036-6.588-0.021-9.881
			c-0.019-1.107,0.38-1.454,1.456-1.445c4.685,0.04,9.371,0.037,14.056,0.001c1.017-0.008,1.42,0.337,1.393,1.368
			c-0.105,3.869,0.637,3.59-3.534,3.6c-2.227,0.005-4.455,0.043-6.68-0.02c-0.916-0.026-1.171,0.256-1.163,1.164
			c0.021,2.421-0.022,2.422,2.388,2.422c1.995,0,3.991,0.049,5.984-0.017c1.338-0.044,1.907,0.42,1.904,1.826
			c-0.008,3.052,0.047,3.052-3.018,3.052c-2.042,0-4.083,0.029-6.124-0.015c-0.783-0.018-1.13,0.104-1.139,1.032
			c-0.033,3.424-0.075,3.424,3.348,3.424c2.413,0,4.825,0.031,7.237-0.015c1.003-0.02,1.436,0.333,1.425,1.36
			c-0.042,4.174,0.347,3.453-3.313,3.485c-4.082,0.035-8.165,0.009-12.247,0.008c-1.95-0.001-1.951-0.003-1.951-1.886
			C74.799,56.567,74.8,53.412,74.8,50.258z"/>
		<path fill-rule="evenodd" clip-rule="evenodd" fill="#01785E" d="M172.457,61.607c-0.371,0-0.748-0.043-1.112,0.008
			c-1.229,0.171-1.833-0.371-2.198-1.544c-0.682-2.194-0.742-2.176-3.001-2.176c-1.716,0-3.433,0.034-5.147-0.016
			c-0.721-0.021-1.04,0.221-1.288,0.905c-1.023,2.832-1.051,2.822-4.024,2.822c-2.566,0-2.567,0-1.694-2.35
			c2.284-6.157,4.603-12.302,6.83-18.479c0.478-1.324,1.115-1.919,2.597-1.86c3.996,0.159,3.284-0.602,4.752,3.333
			c2.147,5.763,4.253,11.542,6.379,17.313c0.753,2.044,0.755,2.043-1.396,2.044C172.921,61.607,172.688,61.607,172.457,61.607z
			 M166.726,52.922c-0.833-2.453-1.606-4.73-2.489-7.326c-0.881,2.616-1.659,4.925-2.468,7.326
			C163.529,52.922,165.046,52.922,166.726,52.922z"/>
		<path fill-rule="evenodd" clip-rule="evenodd" fill="#01785E" d="M146.608,38.948c2.456,0,4.913,0.055,7.366-0.022
			c1.244-0.039,1.622,0.441,1.587,1.625c-0.104,3.503,0.566,3.359-3.368,3.352c-2.885-0.005-2.885-0.001-2.885,2.889
			c0,4.356-0.024,8.711,0.015,13.067c0.011,1.263-0.348,1.933-1.749,1.766c-0.776-0.093-1.577-0.069-2.359-0.004
			c-1.12,0.094-1.439-0.407-1.432-1.465c0.035-4.958-0.015-9.917,0.039-14.874c0.012-1.069-0.239-1.492-1.372-1.403
			c-1.242,0.097-2.5,0.025-3.751,0.004c-0.839-0.014-1.236-0.414-1.223-1.307c0.067-4.334-0.487-3.563,3.432-3.623
			C142.809,38.924,144.708,38.948,146.608,38.948z"/>
		<path fill-rule="evenodd" clip-rule="evenodd" fill="#01785E" d="M182.287,38.948c2.41,0,4.824,0.074,7.229-0.028
			c1.386-0.059,1.854,0.455,1.677,1.761c-0.05,0.364-0.008,0.74-0.008,1.111c0,2.106,0,2.106-2.186,2.109
			c-0.974,0.001-1.951,0.057-2.919-0.016c-0.877-0.066-1.085,0.26-1.078,1.1c0.037,4.913,0.021,9.825,0.017,14.738
			c-0.002,1.806-0.084,1.88-1.875,1.885c-3.653,0.011-3.653,0.011-3.653-3.662c0-4.264-0.042-8.529,0.029-12.792
			c0.018-1.085-0.318-1.344-1.326-1.272c-1.198,0.085-2.408,0.015-3.613,0.017c-0.953,0.001-1.416-0.38-1.397-1.422
			c0.075-4.223-0.429-3.461,3.403-3.522C178.486,38.924,180.388,38.948,182.287,38.948z"/>
		<path fill-rule="evenodd" clip-rule="evenodd" fill="none" d="M166.726,52.922c-1.68,0-3.196,0-4.957,0
			c0.809-2.401,1.587-4.71,2.468-7.326C165.119,48.192,165.893,50.469,166.726,52.922z"/>
	</g>
</g>
</svg>
