<?xml version="1.0" encoding="utf-8"?>
<!-- Generator: Adobe Illustrator 16.0.0, SVG Export Plug-In . SVG Version: 6.00 Build 0)  -->
<!DOCTYPE svg PUBLIC "-//W3C//DTD SVG 1.1//EN" "http://www.w3.org/Graphics/SVG/1.1/DTD/svg11.dtd">
<svg version="1.1" id="Layer_1" xmlns="http://www.w3.org/2000/svg" xmlns:xlink="http://www.w3.org/1999/xlink" x="0px" y="0px"
	 width="200px" height="100px" viewBox="0 0 200 100" enable-background="new 0 0 200 100" xml:space="preserve">
<g>
	<g>
		<g>
			<path fill="#F6861F" d="M59.237,69.838c-7.95,0-13.874-3.074-17.774-7.426c-3.975-4.426-6.6-10.949-6.6-19.2
				c0-12.973,5.55-21.823,14.773-25.723c3.15-1.35,6.676-1.95,10.576-1.95c6.074,0,10.648,1.875,14.248,4.65l-1.875,3
				c-2.55-1.8-5.175-3-7.8-3.675c-9.226-2.25-16.573,1.725-20.774,6.899c-3.149,3.9-5.399,9.525-5.399,16.424
				c0,10.95,4.5,18.6,12.075,21.973c2.55,1.125,5.324,1.727,8.475,1.727c5.025,0,9.299-1.273,12.75-3.898v-16.5H59.463v-3.301
				h16.049v21.075C71.161,67.287,66.661,69.838,59.237,69.838z"/>
			<path fill="#F6861F" d="M83.686,86.037l1.051-3.074c0.15,0.148,0.824,0.225,2.025,0.225c2.998,0,5.398-2.1,7.123-6.225
				l3.45-8.324L83.161,31.438h3.75l11.324,30.523l0.899,2.85c4.2-11.248,8.699-22.198,13.051-33.373h3.675l-18.3,45.148
				c-1.649,4.051-3.524,7.875-7.426,9.375c-1.05,0.375-2.175,0.6-3.523,0.6C85.561,86.563,84.586,86.412,83.686,86.037z"/>
			<path fill="#F6861F" d="M134.838,33.764c-4.275,0-7.65,2.475-10.125,7.424v27.75h-3.301v-37.5h3.301v5.925
				c1.574-2.325,3.148-4.05,4.875-5.1c1.725-1.05,3.674-1.575,5.773-1.575c1.725,0,3.449,0.6,4.8,1.05l-1.05,3.225
				C137.911,34.138,136.711,33.764,134.838,33.764z"/>
			<path fill="#F6861F" d="M147.961,21.989c-2.398,0-3.824-3.15-1.949-4.8c0.601-0.525,1.274-0.75,1.949-0.75
				c1.575,0,2.85,1.125,2.85,2.7C150.811,20.714,149.536,21.989,147.961,21.989z M146.311,31.438h3.375v37.498h-3.375V31.438z"/>
			<path fill="#F6861F" d="M161.762,68.938V13.439h3.375v55.497h-3.375V68.938z"/>
		</g>
	</g>
</g>
</svg>
