<?xml version="1.0" encoding="utf-8"?>
<!-- Generator: Adobe Illustrator 16.0.0, SVG Export Plug-In . SVG Version: 6.00 Build 0)  -->
<!DOCTYPE svg PUBLIC "-//W3C//DTD SVG 1.1//EN" "http://www.w3.org/Graphics/SVG/1.1/DTD/svg11.dtd">
<svg version="1.1" id="Layer_1" xmlns="http://www.w3.org/2000/svg" xmlns:xlink="http://www.w3.org/1999/xlink" x="0px" y="0px"
	 width="200px" height="100px" viewBox="0 0 200 100" enable-background="new 0 0 200 100" xml:space="preserve">
<g>
	<path fill="#27235E" d="M13.215,69.891V30.573h13.587l6.938,28.678l6.938-28.678h13.587v39.317h-7.979V39.477h-0.867l-7.688,28.68
		h-7.979l-7.69-28.68h-0.867v30.414H13.215z"/>
	<path fill="#27235E" d="M60.915,44.854l2.717-14.281h8.153L66.87,44.854H60.915z"/>
	<path fill="#27235E" d="M99.884,69.891H77.508V30.573h7.979v32.263h14.396V69.891z"/>
	<path fill="#27235E" d="M126.246,50.001v12.025c0.079,0.926,0.232,1.571,0.464,1.938c0.233,0.366,0.713,0.625,1.447,0.778
		l-0.232,5.841c-1.967,0-3.535-0.135-4.712-0.404c-1.176-0.27-2.361-0.81-3.556-1.619c-2.774,1.35-5.608,2.023-8.499,2.023
		c-5.975,0-8.962-3.16-8.962-9.482c0-3.083,0.827-5.271,2.486-6.563c1.656-1.29,4.2-2.051,7.632-2.282l6.188-0.464v-1.791
		c0-1.194-0.271-2.015-0.81-2.458c-0.541-0.442-1.409-0.665-2.604-0.665L104.22,47.34l-0.23-5.377
		c4.124-1.117,8.045-1.677,11.765-1.677s6.399,0.772,8.036,2.313C125.428,44.142,126.246,46.609,126.246,50.001z M113.239,57.633
		c-2.159,0.193-3.237,1.35-3.237,3.469c0,2.12,0.943,3.181,2.833,3.181c1.464,0,3.064-0.231,4.798-0.693l0.869-0.232V57.17
		L113.239,57.633z"/>
	<path fill="#27235E" d="M147.64,40.286c4.047,0,7.005,1.109,8.875,3.325c1.87,2.217,2.804,6.178,2.804,11.882
		c0,5.706-1.079,9.647-3.237,11.824c-2.158,2.178-5.879,3.267-11.157,3.267c-1.659,0-4.683-0.194-9.078-0.578l-2.196-0.23V29.416
		h7.745v12.432C143.863,40.807,145.942,40.286,147.64,40.286z M144.924,63.646c2.581,0,4.316-0.626,5.204-1.879
		c0.884-1.251,1.33-3.497,1.33-6.736c0-5.203-1.622-7.805-4.858-7.805c-1.541,0-3.006,0.192-4.396,0.578l-0.81,0.173v15.437
		C143.167,63.568,144.343,63.646,144.924,63.646z"/>
	<path fill="#27235E" d="M185.86,48.207c-4.781-0.615-8.124-0.925-10.033-0.925s-3.143,0.174-3.7,0.521
		c-0.56,0.346-0.838,0.896-0.838,1.647c0,0.752,0.376,1.272,1.127,1.562c0.752,0.288,2.678,0.714,5.78,1.271
		c3.103,0.56,5.311,1.475,6.621,2.746c1.309,1.272,1.968,3.335,1.968,6.187c0,6.244-3.874,9.367-11.622,9.367
		c-2.544,0-5.631-0.349-9.251-1.041l-1.851-0.347l0.229-6.476c4.78,0.618,8.106,0.925,9.977,0.925c1.869,0,3.139-0.183,3.816-0.549
		c0.672-0.367,1.011-0.916,1.011-1.647c0-0.732-0.358-1.273-1.07-1.62s-2.563-0.77-5.549-1.272c-2.989-0.5-5.213-1.348-6.678-2.543
		c-1.466-1.195-2.199-3.325-2.199-6.389c0-3.064,1.041-5.377,3.124-6.938c2.079-1.562,4.759-2.342,8.037-2.342
		c2.274,0,5.376,0.366,9.308,1.099l1.906,0.347L185.86,48.207z"/>
</g>
</svg>
