<?xml version="1.0" encoding="utf-8"?>
<!-- Generator: Adobe Illustrator 16.0.0, SVG Export Plug-In . SVG Version: 6.00 Build 0)  -->
<!DOCTYPE svg PUBLIC "-//W3C//DTD SVG 1.1//EN" "http://www.w3.org/Graphics/SVG/1.1/DTD/svg11.dtd">
<svg version="1.1" id="Layer_1" xmlns="http://www.w3.org/2000/svg" xmlns:xlink="http://www.w3.org/1999/xlink" x="0px" y="0px"
	 width="200px" height="100px" viewBox="0 0 200 100" enable-background="new 0 0 200 100" xml:space="preserve">
<g>
	<g>
		<defs>
			<rect id="SVGID_1_" x="43.527" y="2.32" width="112.945" height="71.696"/>
		</defs>
		<clipPath id="SVGID_2_">
			<use xlink:href="#SVGID_1_"  overflow="visible"/>
		</clipPath>
		<g clip-path="url(#SVGID_2_)">
			<g>
				<path fill-rule="evenodd" clip-rule="evenodd" fill="none" d="M100.126,106.296c-18.395,0-36.79-0.009-55.185,0.027
					c-0.96,0.001-1.16-0.181-1.159-1.153c0.032-36.884,0.034-73.768-0.007-110.652c-0.001-1.109,0.337-1.188,1.266-1.187
					c36.837,0.023,73.674,0.025,110.511-0.007c1.01-0.001,1.231,0.197,1.23,1.223c-0.034,36.837-0.035,73.674,0.003,110.511
					c0.001,1.131-0.335,1.263-1.334,1.261C137.011,106.287,118.568,106.296,100.126,106.296z M92.104,80.351
					c-0.668,0.102-1.354,0.18-1.395,1.087c-1.286,0.597-0.584-0.939-1.25-1.132c0,2.853,0,5.661,0,8.47
					c0.613-2.45-0.149-5.057,1.214-7.37c0.821-0.271,1.642-0.543,2.463-0.815C93.001,79.611,92.465,80.359,92.104,80.351z
					 M83.339,89.037c0.739,0.149,1.41,0.016,1.993-0.481c1.463-0.624,2.19-1.74,2.28-3.32c0.108-1.903-0.102-3.705-1.962-4.729
					c-1.263-0.694-2.629-0.861-3.93,0.039c-0.176-0.175-0.271-0.081-0.34,0.102c-0.765,0.726-1.371,1.54-1.474,2.636
					c-0.348,0.841-0.321,1.682,0.005,2.521c-0.014,0.544,0.138,1.021,0.554,1.392C81.145,88.245,81.805,89.323,83.339,89.037z
					 M63.576,89.038c1.974-0.045,2.834-1.285,3.136-3.15c-0.905,1.069-1.474,2.567-3.136,2.663
					c-1.576,0.043-2.696-0.656-3.368-2.078c-0.431-1.866-0.431-1.866,1.433-1.866c1.5,0,3.001,0.01,4.502-0.009
					c0.289-0.003,0.646,0.152,0.828-0.292c0.354-0.867-0.444-2.67-1.415-3.123c0.081-0.48-0.256-0.65-0.603-0.818
					c-1.762-0.851-3.418-0.406-4.798,1.292c-1.134,1.765-1.131,3.582-0.252,5.439C60.601,88.739,61.948,89.154,63.576,89.038z
					 M140.69,82.132c-0.889-2.148-2.584-2.726-4.639-1.579c-0.271,0.119-0.589,0.185-0.665,0.549c0.43,0.173,0.72-0.077,1.023-0.285
					c2.244-0.575,3.551-0.183,3.786,2.319c0.14,1.49,0.005,2.97,0.143,4.445c0.036,0.386-0.379,0.946,0.319,1.163
					C141.142,86.542,141.026,84.337,140.69,82.132z M74.257,80.616c-1.602-1.063-3.43-0.811-4.206,0.583
					c-0.239-0.259-0.838,0.684-0.874-0.262c-0.01-0.281-0.006-0.648-0.396-0.595c-0.424,0.06-0.376,0.475-0.376,0.794
					c-0.005,2.259-0.008,4.517,0.002,6.774c0.002,0.346-0.13,0.888,0.422,0.867c0.578-0.021,0.325-0.575,0.336-0.897
					c0.078-2.267-0.332-4.591,0.85-6.719c1.217-0.429,2.429-0.908,3.729-0.298c0.709,0.586,0.928,1.361,0.918,2.251
					c-0.019,1.596-0.013,3.191,0,4.787c0.003,0.343-0.132,0.865,0.431,0.857c0.497-0.007,0.306-0.494,0.31-0.774
					c0.019-1.596,0.062-3.194-0.012-4.786C75.348,82.229,75.222,81.218,74.257,80.616z M130.852,87.412
					c2.378-2.047,2.114-7.514-0.078-9.279c-2.488-2.245-6.013-2.135-8.174,0.257c-1.617,1.79-2.027,5.266-0.826,7.682
					c0.684,1.376,1.641,2.511,3.312,2.737C127.19,89.597,129.361,89.071,130.852,87.412z M51.356,76.902
					c-1.724,0.681-2.241,1.445-2.182,3.101c0.056,1.555,1.157,2.138,2.38,2.534c0.873,0.283,1.804,0.389,2.709,0.574
					c0.607,0.229,1.242,0.402,1.817,0.694c1.583,0.806,1.747,2.866,0.341,3.948c-2.335,1.797-6.088,0.649-6.926-2.122
					c-0.063-0.209,0-0.507-0.341-0.492c-0.465,0.021-0.302,0.374-0.28,0.621c0.094,1.076,0.517,1.952,1.49,2.525
					c1.867,1.099,3.831,1.139,5.789,0.412c1.866-0.692,2.554-3.184,1.393-4.689c-0.536-0.695-1.398-0.807-2.125-1.161
					c-1.344-0.37-2.696-0.712-4.028-1.119c-0.882-0.27-1.436-0.911-1.527-1.839c-0.099-0.999,0.414-1.713,1.256-2.188
					c0.365-0.206,0.77-0.341,1.157-0.508c2.452-0.193,4.443,0.41,5.195,3.223c0.315-1.462-0.145-2.475-1.242-3.108
					C54.692,76.418,53.045,76.267,51.356,76.902z M114.072,82.707c0.719,1.825,1.438,3.65,2.155,5.476
					c0.118,0.301,0.18,0.648,0.625,0.632c0.298-0.012,0.532-0.066,0.65-0.401c0.954-2.683,1.92-5.359,2.883-8.039
					c-0.136-0.055-0.271-0.11-0.406-0.166c-1.287,2.353-1.835,5.036-3.093,7.79c-0.903-2.172-1.696-4.078-2.489-5.984
					c-0.161-0.434-0.347-0.86-0.476-1.304c-0.096-0.327-0.264-0.522-0.588-0.381c-0.299,0.131-0.118,0.426-0.049,0.604
					C113.521,81.534,113.806,82.117,114.072,82.707z M147.17,84.83c-0.514-1.345-1.019-2.693-1.549-4.031
					c-0.097-0.243-0.236-0.596-0.586-0.473c-0.385,0.135-0.188,0.477-0.085,0.7c0.643,1.385,1.026,2.887,1.885,4.173
					c0.297,0.828,0.494,1.711,0.915,2.471c0.655,1.185,0.219,2.123-0.38,3.119c-0.4,0.666-1.363,0.317-1.773,1.05
					c1.396,0.341,2.226-0.209,2.704-1.432c1.21-3.089,2.438-6.171,3.62-9.271c0.086-0.225,0.543-0.618,0.058-0.81
					c-0.501-0.198-0.553,0.313-0.681,0.661c-0.646,1.753-1.276,3.513-1.984,5.24c-0.191,0.468-0.132,1.155-0.878,1.367
					C148.011,86.666,147.59,85.748,147.17,84.83z M111.517,86.786c-0.788,1.325-1.914,2.021-3.473,1.68
					c-1.423-0.312-2.159-1.267-2.514-2.698c-0.268-1.079,0.114-1.199,1.005-1.178c1.693,0.041,3.388,0.021,5.082,0.003
					c0.327-0.003,0.913,0.171,0.818-0.433c-0.174-1.112-0.17-2.345-1.347-3.026c-0.999-1.477-2.973-1.6-4.687-0.291
					c-1.772,1.487-1.867,3.402-1.36,5.45c0.4,1.616,1.528,2.619,3.07,2.795c1.695,0.192,2.995-0.467,3.779-1.916
					c0.316-0.33,0.628-0.911,0.272-1.11C111.595,85.743,111.646,86.444,111.517,86.786z M94.083,88.505
					c1.839,0.628,3.74,0.453,5.563,0.133c4.324-0.762,4.718-6.802,2.981-9.585c-1.273-2.042-6.153-3.132-8.52-1.974
					c-0.024,0.012-0.016,0.089-0.022,0.136C94.084,80.978,94.083,84.741,94.083,88.505z M142.934,44.49
					c-0.205,0.02-0.591-0.036-0.446,0.278c0.182,0.395,0.644,0.193,0.996,0.186c2.529,0.511,4.025,2.163,4.688,4.536
					c0.962,3.45-0.601,5.978-3.912,6.346c-2.675,0.298-5.001-0.357-7.279-1.561c-4.363-2.304-8.397-5.154-12.656-7.634
					c-7.456-4.341-15.008-5.054-22.624-0.488c-1.36,0.815-2.416,0.842-3.734,0.015c-5.915-3.713-12.022-3.96-18.312-0.93
					c-3.384,1.631-6.584,3.59-9.892,5.357c-4,2.136-7.828,4.646-12.355,5.644c-2.505,0.552-4.167-0.217-4.997-2.419
					c-1.141-3.026,0.046-6.438,2.8-8.096c0.24-0.145,0.701-0.115,0.612-0.682c-2.801-0.202-5.196,0.552-6.819,2.976
					c-3.676,5.488-1.745,13.569,3.988,16.827c4.501,2.557,9.391,3.777,14.52,3.842c4.662,0.059,9.225-0.894,13.763-1.895
					c6.103-1.346,11.877-3.444,16.872-7.331c1.512-1.177,2.081-1.196,3.59-0.039c2.889,2.216,6.041,3.929,9.468,5.174
					c4.695,1.706,9.523,2.812,14.477,3.379c6.516,0.746,12.95,0.514,19.084-2.09c5.283-2.243,9.193-6.903,8.628-13.325
					c-0.352-3.987-3.096-7.272-7.048-8.121c-0.975-0.386-1.951-0.395-2.93-0.02C143.254,44.442,143.094,44.466,142.934,44.49z
					 M70.482,7.452c-1.732,0.099-3.466,0.179-5.197,0.301c-5.866,0.414-11.604,1.539-17.255,3.135
					c-0.445,0.126-0.789,0.286-0.89,0.9c-0.455,2.764,0.021,5.263,2.02,7.302c0.946,0.965,1.613,2.032,2.062,3.299
					c1.374,3.879,2.802,7.74,4.21,11.607c0.952,2.613,2.47,4.734,5.105,5.89c4.885,2.144,9.973,3.175,15.321,2.911
					c5.477-0.272,10.275-2.008,13.937-6.279c2.654-3.095,4.686-6.545,5.966-10.433c0.425-1.291,0.887-2.577,1.44-3.816
					c0.857-1.922,2.408-2.588,4.49-2.132c1.999,0.437,2.747,2.015,3.326,3.662c0.716,2.033,1.434,4.062,2.282,6.043
					c2.579,6.025,7.074,9.962,13.276,11.904c4.007,1.255,8.102,1.168,12.238,0.515c8.004-1.265,12.944-5.63,14.993-13.42
					c0.987-3.751,1.759-7.603,4.451-10.641c1.142-1.289,1.289-2.876,1.377-4.474c0.091-1.646-0.471-2.399-2.084-2.866
					c-1.034-0.299-2.087-0.538-3.122-0.836c-8.55-2.468-17.226-3.07-26.045-1.861c-5.291,0.726-10.413,2.348-15.767,2.758
					c-5.316,0.407-10.616,0.458-15.848-0.571C84.055,9.032,77.396,7.386,70.482,7.452z M133.911,84.555
					c0,1.125-0.019,2.251,0.012,3.375c0.009,0.313-0.245,0.885,0.365,0.858c0.554-0.024,0.333-0.571,0.349-0.903
					c0.074-1.589-0.19-3.2,0.193-4.763c0.199-0.81,0.702-1.55-0.167-2.282c-0.161-0.137-0.084-0.608-0.474-0.514
					c-0.34,0.082-0.274,0.442-0.275,0.714C133.908,82.211,133.911,83.383,133.911,84.555z M143.341,76.614
					c-0.261,0.354-0.398,0.455-0.398,0.556c-0.014,3.662-0.018,7.324-0.015,10.986c0.001,0.254-0.086,0.648,0.345,0.596
					c0.385-0.048,0.257-0.432,0.258-0.683c0.008-2.63,0.024-5.259-0.005-7.889C143.514,79.083,143.683,77.969,143.341,76.614z
					 M78.014,80.338c-0.196,0.005-0.392,0.009-0.588,0.014c0,2.681-0.001,5.361,0.003,8.043c0,0.187,0.036,0.38,0.296,0.376
					c0.256-0.004,0.285-0.196,0.286-0.382C78.015,85.705,78.014,83.022,78.014,80.338z M77.773,78.949
					c0.324-0.96,0.336-1.55,0.006-2.441C77.297,77.361,77.324,77.949,77.773,78.949z"/>
				<path fill-rule="evenodd" clip-rule="evenodd" fill="#08818C" d="M146.344,44.438c3.952,0.849,6.696,4.134,7.048,8.121
					c0.565,6.422-3.345,11.082-8.628,13.325c-6.134,2.604-12.568,2.836-19.084,2.09c-4.953-0.567-9.781-1.673-14.477-3.379
					c-3.427-1.245-6.579-2.958-9.468-5.174c-1.509-1.157-2.078-1.138-3.59,0.039c-4.995,3.887-10.77,5.985-16.872,7.331
					c-4.538,1.001-9.102,1.953-13.763,1.895c-5.129-0.064-10.019-1.285-14.52-3.842c-5.733-3.258-7.664-11.339-3.988-16.827
					c1.623-2.424,4.018-3.178,6.819-2.976c0.088,0.567-0.372,0.538-0.612,0.682c-2.753,1.657-3.94,5.069-2.8,8.096
					c0.83,2.202,2.492,2.971,4.997,2.419c4.527-0.998,8.355-3.508,12.355-5.644c3.307-1.767,6.507-3.726,9.892-5.357
					c6.29-3.031,12.397-2.784,18.312,0.93c1.318,0.828,2.375,0.801,3.734-0.015c7.616-4.566,15.168-3.853,22.624,0.488
					c4.259,2.479,8.293,5.33,12.656,7.634c2.278,1.203,4.604,1.858,7.279,1.561c3.312-0.368,4.874-2.896,3.912-6.346
					c-0.662-2.373-2.158-4.024-4.688-4.536c-0.184-0.154-0.367-0.309-0.55-0.464c0.16-0.023,0.32-0.047,0.48-0.071
					C144.391,44.425,145.367,44.432,146.344,44.438z"/>
				<path fill-rule="evenodd" clip-rule="evenodd" fill="#D37128" d="M70.482,7.452c6.914-0.066,13.572,1.58,20.289,2.9
					c5.232,1.029,10.531,0.978,15.848,0.571c5.354-0.411,10.476-2.033,15.767-2.758c8.819-1.209,17.495-0.607,26.045,1.861
					c1.035,0.298,2.088,0.537,3.122,0.836c1.613,0.466,2.175,1.22,2.084,2.866c-0.088,1.598-0.235,3.186-1.377,4.474
					c-2.692,3.038-3.464,6.89-4.451,10.641c-2.049,7.79-6.989,12.155-14.993,13.42c-4.137,0.654-8.231,0.74-12.238-0.515
					c-6.202-1.942-10.697-5.879-13.276-11.904c-0.849-1.981-1.566-4.011-2.282-6.043c-0.579-1.647-1.327-3.225-3.326-3.662
					c-2.082-0.456-3.633,0.21-4.49,2.132c-0.554,1.24-1.015,2.525-1.44,3.816c-1.28,3.887-3.312,7.337-5.966,10.433
					c-3.662,4.271-8.46,6.007-13.937,6.279c-5.349,0.265-10.437-0.767-15.321-2.911c-2.635-1.156-4.153-3.277-5.105-5.89
					c-1.408-3.867-2.836-7.728-4.21-11.607c-0.449-1.268-1.115-2.334-2.062-3.299c-1.999-2.04-2.474-4.538-2.02-7.302
					c0.101-0.614,0.445-0.774,0.89-0.9c5.651-1.596,11.389-2.721,17.255-3.135C67.016,7.631,68.75,7.551,70.482,7.452z
					 M128.699,39.897c1.795,0.065,3.572-0.17,5.297-0.594c4.953-1.218,8.51-3.922,9.745-9.182c0.77-3.281,1.658-6.524,2.109-9.88
					c0.571-4.248-1.237-7.044-5.434-7.934c-2.01-0.426-4.039-0.807-6.078-1.049c-4.041-0.48-8.051-1.438-12.179-0.656
					c-3.829,0.725-7.665,1.38-11.099,3.375c-2.975,1.728-3.994,4.13-3.267,7.484c0.319,1.468,0.72,2.905,1.211,4.325
					C112.12,34.788,119.242,39.9,128.699,39.897z M93.767,19.707c-0.104-3.247-1.83-5.125-4.472-6.279
					c-5.564-2.431-11.411-3.191-17.433-2.845c-4.084,0.235-8.088,0.968-12.017,2.074c-3.213,0.905-4.591,2.742-4.43,6.092
					c0.196,4.084,1.203,8.045,2.269,11.974c1.235,4.554,4.334,7.285,8.849,8.304c3.148,0.71,6.372,1.05,9.615,0.618
					c4.986-0.663,9.301-2.575,12.236-6.86c1.995-2.912,3.42-6.118,4.558-9.455C93.366,22.084,93.665,20.816,93.767,19.707z"/>
				<path fill-rule="evenodd" clip-rule="evenodd" fill="#272725" d="M94.084,77.215c0.007-0.047-0.001-0.124,0.022-0.136
					c2.367-1.158,7.247-0.068,8.52,1.974c1.736,2.783,1.343,8.823-2.981,9.585c-1.823,0.32-3.724,0.495-5.563-0.133
					c0.247-0.196,0.27-0.471,0.27-0.756c0-3.259,0-6.519,0-9.777C94.352,77.687,94.33,77.412,94.084,77.215z M99.149,77.468
					c-1.51-0.32-3.019-0.631-4.484,0.177c0.017,2.438,0.043,4.877,0.049,7.315c0.008,3.346,0.002,3.336,3.392,3.278
					c2.026-0.035,3.496-0.919,4.306-2.79C103.858,82.103,102.484,78.768,99.149,77.468z"/>
				<path fill-rule="evenodd" clip-rule="evenodd" fill="#333230" d="M111.892,87.172c-0.784,1.449-2.084,2.108-3.779,1.916
					c-1.542-0.176-2.67-1.179-3.07-2.795c-0.507-2.048-0.412-3.963,1.36-5.45c0.122,0.098,0.244,0.195,0.366,0.293
					c-0.419,0.554-0.883,1.059-1.118,1.752c-0.316,0.933-0.07,1.258,0.911,1.204c1.074-0.06,2.156,0.027,3.229-0.029
					c0.664-0.035,1.659,0.388,1.913-0.279c0.246-0.645-0.205-1.513-0.709-2.154c-0.112-0.144-0.213-0.297-0.319-0.445
					c0.138-0.017,0.275-0.033,0.413-0.05c1.177,0.682,1.173,1.914,1.347,3.026c0.095,0.604-0.491,0.43-0.818,0.433
					c-1.694,0.019-3.389,0.038-5.082-0.003c-0.891-0.021-1.272,0.099-1.005,1.178c0.354,1.432,1.091,2.387,2.514,2.698
					c1.559,0.342,2.685-0.354,3.473-1.68C111.642,86.915,111.767,87.044,111.892,87.172z"/>
				<path fill-rule="evenodd" clip-rule="evenodd" fill="#272625" d="M125.085,88.809c-1.671-0.227-2.628-1.361-3.312-2.737
					c-1.201-2.416-0.791-5.892,0.826-7.682c2.161-2.392,5.686-2.502,8.174-0.257c-0.021,0.238-0.113,0.429-0.351,0.521
					c-2.317-1.716-4.312-1.962-6.192-0.733c-2.037,1.332-2.628,3.362-2.425,5.611c0.23,2.563,1.581,4.34,4.17,5.013
					C125.744,88.853,125.393,88.758,125.085,88.809z"/>
				<path fill-rule="evenodd" clip-rule="evenodd" fill="#2E2D2B" d="M147.17,84.83c0.42,0.918,0.841,1.836,1.266,2.766
					c0.746-0.212,0.687-0.899,0.878-1.367c0.708-1.728,1.338-3.487,1.984-5.24c0.128-0.349,0.18-0.859,0.681-0.661
					c0.485,0.191,0.028,0.585-0.058,0.81c-1.183,3.1-2.41,6.182-3.62,9.271c-0.479,1.223-1.308,1.772-2.704,1.432
					c0.41-0.732,1.373-0.384,1.773-1.05c0.599-0.996,1.035-1.935,0.38-3.119c-0.421-0.76-0.618-1.643-0.915-2.471
					C146.946,85.076,147.059,84.953,147.17,84.83z"/>
				<path fill-rule="evenodd" clip-rule="evenodd" fill="#2B2A29" d="M55.421,82.848c0.726,0.354,1.588,0.466,2.125,1.161
					c1.161,1.506,0.473,3.997-1.393,4.689c-1.958,0.727-3.922,0.687-5.789-0.412c-0.973-0.573-1.396-1.449-1.49-2.525
					c-0.021-0.247-0.185-0.6,0.28-0.621c0.341-0.015,0.278,0.283,0.341,0.492c0.838,2.771,4.591,3.919,6.926,2.122
					c1.406-1.082,1.242-3.143-0.341-3.948c-0.575-0.292-1.21-0.466-1.817-0.694C54.582,82.729,55.029,82.91,55.421,82.848z"/>
				<path fill-rule="evenodd" clip-rule="evenodd" fill="#2F2E2D" d="M114.397,82.014c0.793,1.906,1.586,3.813,2.489,5.984
					c1.258-2.754,1.806-5.438,3.093-7.79c0.135,0.056,0.271,0.111,0.406,0.166c-0.963,2.68-1.929,5.356-2.883,8.039
					c-0.118,0.335-0.353,0.39-0.65,0.401c-0.445,0.017-0.507-0.331-0.625-0.632c-0.718-1.825-1.437-3.65-2.155-5.476
					C114.121,82.447,114.13,82.17,114.397,82.014z"/>
				<path fill-rule="evenodd" clip-rule="evenodd" fill="#3A3837" d="M59.903,87.096c-0.878-1.857-0.882-3.675,0.252-5.439
					c0.022,0.146,0.044,0.292,0.067,0.438c0.003,0.27-0.007,0.509-0.127,0.788c-0.308,0.72-0.208,1.238,0.798,1.208
					c1.541-0.047,3.084-0.038,4.625-0.002c0.813,0.019,0.93-0.299,0.756-1.024c-0.162-0.675-0.825-1.15-0.708-1.914l-0.01,0.032
					c0.97,0.453,1.769,2.256,1.415,3.123c-0.182,0.444-0.54,0.289-0.828,0.292c-1.5,0.019-3.001,0.009-4.502,0.009
					c-1.864,0-1.864,0-1.433,1.866C60.185,86.719,60.153,86.961,59.903,87.096z"/>
				<path fill-rule="evenodd" clip-rule="evenodd" fill="#4D4B49" d="M133.911,84.555c0-1.172-0.003-2.344,0.003-3.515
					c0.001-0.271-0.064-0.632,0.275-0.714c0.39-0.095,0.313,0.377,0.474,0.514c0.869,0.732,0.366,1.473,0.167,2.282
					c-0.384,1.563-0.119,3.174-0.193,4.763c-0.016,0.332,0.205,0.879-0.349,0.903c-0.61,0.026-0.356-0.545-0.365-0.858
					C133.893,86.806,133.911,85.68,133.911,84.555z"/>
				<path fill-rule="evenodd" clip-rule="evenodd" fill="#444342" d="M70.016,81.163c-1.181,2.127-0.771,4.451-0.849,6.718
					c-0.011,0.322,0.241,0.877-0.336,0.897c-0.553,0.021-0.42-0.521-0.422-0.867c-0.011-2.258-0.008-4.516-0.002-6.774
					c0-0.319-0.048-0.734,0.376-0.794c0.39-0.054,0.385,0.313,0.396,0.595c0.036,0.945,0.634,0.003,0.874,0.261
					C70.053,81.198,70.016,81.163,70.016,81.163z"/>
				<path fill-rule="evenodd" clip-rule="evenodd" fill="#2A2A28" d="M81.72,80.546c1.3-0.9,2.667-0.733,3.93-0.039
					c1.861,1.023,2.071,2.825,1.962,4.729c-0.09,1.58-0.817,2.696-2.28,3.32c-0.013-0.13-0.026-0.259-0.039-0.389
					c0.25-0.271,0.499-0.542,0.75-0.811c1.17-1.247,1.362-3.614,0.421-5.202c-0.87-1.467-2.243-1.892-4.256-1.317
					C82.045,80.74,81.883,80.643,81.72,80.546z"/>
				<path fill-rule="evenodd" clip-rule="evenodd" fill="#2E2D2B" d="M55.421,82.848c-0.392,0.063-0.839-0.118-1.158,0.264
					c-0.905-0.186-1.836-0.291-2.709-0.574c-1.223-0.396-2.324-0.979-2.38-2.534c-0.06-1.655,0.458-2.42,2.182-3.101
					c0.322,0.052,0.688-0.039,0.922,0.291c-0.387,0.167-0.792,0.302-1.157,0.508c-0.842,0.476-1.354,1.189-1.256,2.188
					c0.092,0.928,0.646,1.569,1.527,1.839C52.725,82.136,54.077,82.478,55.421,82.848z"/>
				<path fill-rule="evenodd" clip-rule="evenodd" fill="#302F2D" d="M130.423,78.653c0.237-0.092,0.329-0.282,0.351-0.521
					c2.192,1.766,2.456,7.232,0.078,9.279c-0.131-0.136-0.262-0.271-0.392-0.406C132.27,84.214,132.251,81.43,130.423,78.653z"/>
				<path fill-rule="evenodd" clip-rule="evenodd" fill="#222320" d="M143.341,76.614c0.342,1.354,0.173,2.469,0.185,3.566
					c0.029,2.63,0.013,5.259,0.005,7.889c-0.001,0.251,0.127,0.635-0.258,0.683c-0.431,0.053-0.344-0.342-0.345-0.596
					c-0.003-3.662,0.001-7.324,0.015-10.986C142.942,77.069,143.08,76.969,143.341,76.614z"/>
				<path fill-rule="evenodd" clip-rule="evenodd" fill="#262624" d="M74.257,80.616c0.965,0.602,1.09,1.613,1.135,2.583
					c0.074,1.592,0.03,3.19,0.012,4.786c-0.003,0.28,0.188,0.768-0.31,0.774c-0.563,0.008-0.427-0.515-0.431-0.857
					c-0.014-1.596-0.019-3.191,0-4.787c0.01-0.89-0.209-1.665-0.918-2.251C73.854,80.653,74.05,80.623,74.257,80.616z"/>
				<path fill-rule="evenodd" clip-rule="evenodd" fill="#2E2E2C" d="M90.674,81.404c-1.363,2.314-0.602,4.921-1.214,7.371
					c0-2.809,0-5.617,0-8.47c0.666,0.192-0.036,1.729,1.25,1.133C90.709,81.438,90.674,81.404,90.674,81.404z"/>
				<path fill-rule="evenodd" clip-rule="evenodd" fill="#31312F" d="M52.278,77.193c-0.234-0.33-0.6-0.239-0.922-0.291
					c1.689-0.636,3.336-0.484,4.875,0.405c1.097,0.634,1.557,1.646,1.242,3.108C56.721,77.604,54.73,77,52.278,77.193z"/>
				<path fill-rule="evenodd" clip-rule="evenodd" fill="#343332" d="M136.052,80.553c2.055-1.146,3.75-0.569,4.639,1.579
					c-0.011,2.204-0.021,4.408-0.032,6.612c-0.698-0.217-0.283-0.777-0.319-1.163c-0.138-1.476-0.003-2.955-0.143-4.445
					c-0.235-2.502-1.542-2.895-3.786-2.319C136.29,80.729,136.171,80.641,136.052,80.553z"/>
				<path fill-rule="evenodd" clip-rule="evenodd" fill="#21201E" d="M78.014,80.338c0,2.685,0.001,5.367-0.003,8.051
					c0,0.186-0.03,0.378-0.286,0.382c-0.26,0.004-0.296-0.189-0.296-0.376c-0.004-2.682-0.003-5.362-0.003-8.043
					C77.622,80.347,77.818,80.343,78.014,80.338z"/>
				<path fill-rule="evenodd" clip-rule="evenodd" fill="#333230" d="M130.46,87.006c0.13,0.135,0.261,0.271,0.392,0.406
					c-1.49,1.659-3.661,2.185-5.767,1.396c0.308-0.051,0.659,0.044,0.891-0.265C127.686,88.659,129.189,88.174,130.46,87.006z"/>
				<path fill-rule="evenodd" clip-rule="evenodd" fill="#363433" d="M147.17,84.83c-0.111,0.123-0.224,0.246-0.335,0.369
					c-0.858-1.286-1.242-2.788-1.885-4.173c-0.103-0.224-0.3-0.565,0.085-0.7c0.35-0.123,0.489,0.229,0.586,0.473
					C146.151,82.137,146.656,83.485,147.17,84.83z"/>
				<path fill-rule="evenodd" clip-rule="evenodd" fill="#333230" d="M60.222,82.095c-0.022-0.146-0.044-0.292-0.067-0.438
					c1.38-1.698,3.036-2.143,4.798-1.292c0.347,0.168,0.684,0.338,0.603,0.818c0,0,0.01-0.032,0.01-0.032
					C63.59,80.364,61.725,80.201,60.222,82.095z"/>
				<path fill-rule="evenodd" clip-rule="evenodd" fill="#272725" d="M94.084,77.215c0.245,0.197,0.268,0.472,0.268,0.757
					c0,3.259,0,6.519,0,9.777c0,0.285-0.023,0.56-0.27,0.756C94.083,84.741,94.084,80.978,94.084,77.215z"/>
				<path fill-rule="evenodd" clip-rule="evenodd" fill="#3F3E3C" d="M80.466,87.195c-0.417-0.371-0.568-0.848-0.554-1.392
					c-0.001-0.841-0.003-1.681-0.005-2.521c0.103-1.096,0.708-1.91,1.474-2.636c0.033,0.219,0.075,0.432,0.306,0.537
					c-1.515,1.619-1.546,3.542-1.14,5.556C80.52,86.893,80.493,87.044,80.466,87.195z"/>
				<path fill-rule="evenodd" clip-rule="evenodd" fill="#383735" d="M106.769,81.136c-0.122-0.098-0.244-0.195-0.366-0.293
					c1.714-1.309,3.688-1.186,4.687,0.291c-0.138,0.017-0.275,0.033-0.413,0.05C109.383,80.371,108.08,80.386,106.769,81.136z"/>
				<path fill-rule="evenodd" clip-rule="evenodd" fill="#373534" d="M63.576,88.551c1.663-0.096,2.231-1.594,3.136-2.663
					c-0.302,1.865-1.162,3.105-3.136,3.15C63.576,88.876,63.576,88.714,63.576,88.551z"/>
				<path fill-rule="evenodd" clip-rule="evenodd" fill="#3B3A38" d="M63.576,88.551c0,0.163,0,0.325,0,0.487
					c-1.628,0.116-2.976-0.299-3.673-1.942c0.25-0.135,0.282-0.377,0.305-0.623C60.88,87.895,62,88.594,63.576,88.551z"/>
				<path fill-rule="evenodd" clip-rule="evenodd" fill="#343331" d="M74.257,80.616c-0.208,0.007-0.403,0.037-0.512,0.248
					c-1.299-0.61-2.512-0.131-3.729,0.299c0,0,0.037,0.035,0.036,0.035C70.828,79.806,72.655,79.553,74.257,80.616z"/>
				<path fill-rule="evenodd" clip-rule="evenodd" fill="#363433" d="M80.466,87.195c0.027-0.151,0.054-0.303,0.081-0.455
					c0.932,0.603,1.515,1.743,2.793,1.812c0,0.162,0,0.324,0,0.485C81.805,89.323,81.145,88.245,80.466,87.195z"/>
				<path fill-rule="evenodd" clip-rule="evenodd" fill="#3B3B39" d="M140.658,88.744c0.011-2.204,0.021-4.408,0.032-6.612
					C141.026,84.337,141.142,86.542,140.658,88.744z"/>
				<path fill-rule="evenodd" clip-rule="evenodd" fill="#393837" d="M114.397,82.014c-0.268,0.156-0.276,0.434-0.325,0.693
					c-0.267-0.59-0.552-1.173-0.787-1.774c-0.069-0.178-0.25-0.473,0.049-0.604c0.324-0.142,0.492,0.054,0.588,0.381
					C114.051,81.153,114.236,81.58,114.397,82.014z"/>
				<path fill-rule="evenodd" clip-rule="evenodd" fill="#413F3D" d="M93.137,80.59c-0.821,0.272-1.642,0.544-2.463,0.814
					c0,0,0.036,0.034,0.036,0.034c0.04-0.908,0.727-0.986,1.395-1.088C92.38,80.725,92.789,80.529,93.137,80.59z"/>
				<path fill-rule="evenodd" clip-rule="evenodd" fill="#31302F" d="M77.773,78.949c-0.45-1-0.476-1.588,0.006-2.441
					C78.11,77.399,78.097,77.989,77.773,78.949z"/>
				<path fill-rule="evenodd" clip-rule="evenodd" fill="#3A3A38" d="M83.339,89.037c0-0.161,0-0.323,0-0.485
					c0.651-0.129,1.303-0.257,1.954-0.385c0.013,0.13,0.025,0.259,0.039,0.389C84.749,89.053,84.079,89.187,83.339,89.037z"/>
				<path fill-rule="evenodd" clip-rule="evenodd" fill="#50919A" d="M146.344,44.438c-0.977-0.007-1.953-0.013-2.93-0.02
					C144.393,44.043,145.369,44.052,146.344,44.438z"/>
				<path fill-rule="evenodd" clip-rule="evenodd" fill="#4C4A49" d="M79.907,83.283c0.001,0.84,0.003,1.68,0.005,2.521
					C79.586,84.965,79.559,84.124,79.907,83.283z"/>
				<path fill-rule="evenodd" clip-rule="evenodd" fill="#343332" d="M111.892,87.172c-0.125-0.128-0.25-0.257-0.375-0.386
					c0.13-0.342,0.078-1.043,0.647-0.725C112.52,86.261,112.208,86.842,111.892,87.172z"/>
				<path fill-rule="evenodd" clip-rule="evenodd" fill="#50919A" d="M142.934,44.49c0.183,0.155,0.366,0.31,0.55,0.464
					c-0.353,0.007-0.814,0.209-0.996-0.186C142.343,44.454,142.729,44.51,142.934,44.49z"/>
				<path fill-rule="evenodd" clip-rule="evenodd" fill="#1F1F1D" d="M81.686,81.185c-0.231-0.105-0.273-0.318-0.306-0.537
					c0.068-0.183,0.164-0.276,0.34-0.102c0.163,0.097,0.325,0.194,0.488,0.291C82.034,80.953,81.86,81.068,81.686,81.185z"/>
				<path fill-rule="evenodd" clip-rule="evenodd" fill="#222220" d="M93.137,80.59c-0.349-0.061-0.757,0.135-1.033-0.239
					C92.465,80.359,93.001,79.611,93.137,80.59z"/>
				<path fill-rule="evenodd" clip-rule="evenodd" fill="#1F1F1C" d="M136.052,80.553c0.119,0.088,0.238,0.176,0.358,0.264
					c-0.304,0.208-0.594,0.458-1.023,0.285C135.463,80.737,135.78,80.672,136.052,80.553z"/>
				<path fill-rule="evenodd" clip-rule="evenodd" fill="none" d="M128.699,39.898c-9.457,0.001-16.579-5.111-19.693-14.113
					c-0.491-1.419-0.892-2.856-1.211-4.325c-0.728-3.354,0.292-5.757,3.267-7.484c3.434-1.995,7.27-2.65,11.099-3.375
					c4.128-0.781,8.138,0.176,12.179,0.656c2.039,0.243,4.068,0.623,6.078,1.049c4.196,0.89,6.005,3.687,5.434,7.934
					c-0.451,3.356-1.34,6.599-2.109,9.88c-1.235,5.26-4.792,7.964-9.745,9.182C132.271,39.728,130.494,39.962,128.699,39.898z"/>
				<path fill-rule="evenodd" clip-rule="evenodd" fill="none" d="M93.767,19.707c-0.103,1.109-0.401,2.377-0.825,3.622
					c-1.138,3.337-2.563,6.543-4.558,9.455c-2.936,4.286-7.25,6.197-12.236,6.86c-3.244,0.432-6.467,0.092-9.615-0.618
					c-4.515-1.019-7.614-3.75-8.849-8.304c-1.065-3.928-2.072-7.89-2.269-11.974c-0.161-3.35,1.217-5.187,4.43-6.092
					c3.928-1.105,7.933-1.838,12.017-2.074c6.022-0.347,11.869,0.414,17.433,2.845C91.937,14.583,93.664,16.46,93.767,19.707z"/>
				<path fill-rule="evenodd" clip-rule="evenodd" fill="none" d="M99.149,77.468c3.335,1.3,4.709,4.635,3.262,7.98
					c-0.81,1.871-2.279,2.755-4.306,2.79c-3.39,0.058-3.383,0.067-3.392-3.278c-0.006-2.438-0.032-4.877-0.048-7.315
					C96.146,77.233,97.658,77.597,99.149,77.468z"/>
				<path fill-rule="evenodd" clip-rule="evenodd" fill="#2A2927" d="M99.149,77.468c-1.492,0.129-3.003-0.234-4.484,0.177
					C96.13,76.837,97.64,77.147,99.149,77.468z"/>
				<path fill-rule="evenodd" clip-rule="evenodd" fill="none" d="M106.769,81.136c1.312-0.75,2.614-0.765,3.907,0.048
					c0.106,0.148,0.207,0.302,0.319,0.445c0.504,0.642,0.955,1.51,0.709,2.154c-0.254,0.667-1.249,0.244-1.913,0.279
					c-1.073,0.057-2.155-0.03-3.229,0.029c-0.981,0.054-1.228-0.271-0.911-1.204C105.886,82.194,106.35,81.689,106.769,81.136z"/>
				<path fill-rule="evenodd" clip-rule="evenodd" fill="none" d="M130.46,87.006c-1.271,1.168-2.774,1.653-4.484,1.538
					c-2.589-0.673-3.939-2.45-4.17-5.013c-0.203-2.249,0.388-4.279,2.425-5.611c1.881-1.229,3.875-0.982,6.192,0.733
					C132.251,81.43,132.27,84.214,130.46,87.006z"/>
				<path fill-rule="evenodd" clip-rule="evenodd" fill="none" d="M60.222,82.095c1.502-1.894,3.368-1.73,5.344-0.944
					c-0.117,0.764,0.546,1.239,0.708,1.914c0.174,0.726,0.058,1.043-0.756,1.024c-1.542-0.036-3.085-0.045-4.625,0.002
					c-1.006,0.03-1.106-0.488-0.798-1.208C60.215,82.604,60.225,82.364,60.222,82.095z"/>
				<path fill-rule="evenodd" clip-rule="evenodd" fill="none" d="M81.686,81.185c0.174-0.116,0.348-0.231,0.522-0.348
					c2.013-0.574,3.387-0.149,4.256,1.317c0.941,1.588,0.75,3.955-0.421,5.202c-0.252,0.269-0.501,0.54-0.75,0.811
					c-0.651,0.128-1.303,0.256-1.954,0.385c-1.278-0.068-1.861-1.209-2.793-1.812C80.14,84.727,80.171,82.804,81.686,81.185z"/>
			</g>
		</g>
	</g>
	<g>
		<path d="M46.117,90.313v-1.621c0.186,0.163,0.408,0.311,0.667,0.441c0.259,0.132,0.532,0.242,0.818,0.332s0.575,0.159,0.864,0.209
			c0.29,0.049,0.557,0.073,0.803,0.073c0.846,0,1.478-0.156,1.896-0.471c0.417-0.313,0.626-0.766,0.626-1.354
			c0-0.317-0.069-0.593-0.208-0.827s-0.332-0.449-0.577-0.643c-0.246-0.194-0.537-0.38-0.872-0.557
			c-0.336-0.178-0.697-0.365-1.085-0.562c-0.409-0.207-0.792-0.417-1.146-0.63c-0.354-0.213-0.663-0.448-0.925-0.704
			c-0.262-0.257-0.468-0.548-0.618-0.872c-0.15-0.325-0.226-0.706-0.226-1.143c0-0.535,0.118-1,0.353-1.396
			c0.234-0.396,0.543-0.722,0.925-0.979c0.382-0.257,0.817-0.448,1.306-0.573c0.488-0.126,0.986-0.188,1.494-0.188
			c1.157,0,2,0.14,2.53,0.418v1.547c-0.693-0.48-1.583-0.721-2.669-0.721c-0.3,0-0.601,0.032-0.901,0.095
			c-0.3,0.063-0.567,0.165-0.802,0.307c-0.235,0.143-0.426,0.325-0.573,0.549c-0.147,0.224-0.221,0.497-0.221,0.818
			c0,0.301,0.056,0.56,0.167,0.778c0.112,0.218,0.277,0.417,0.496,0.598c0.218,0.18,0.484,0.354,0.798,0.523
			c0.313,0.17,0.675,0.355,1.085,0.558c0.42,0.207,0.818,0.426,1.195,0.654c0.376,0.229,0.707,0.483,0.991,0.762
			c0.284,0.278,0.509,0.587,0.675,0.925c0.167,0.339,0.25,0.727,0.25,1.163c0,0.578-0.113,1.068-0.339,1.47
			c-0.227,0.401-0.532,0.728-0.917,0.979c-0.385,0.251-0.829,0.433-1.331,0.544c-0.502,0.112-1.032,0.168-1.588,0.168
			c-0.186,0-0.415-0.015-0.688-0.045s-0.551-0.073-0.835-0.131c-0.284-0.058-0.553-0.128-0.807-0.213S46.27,90.416,46.117,90.313z"
			/>
		<path d="M62.132,86.931h-5.92c0.022,0.934,0.273,1.654,0.753,2.161c0.48,0.508,1.141,0.762,1.981,0.762
			c0.944,0,1.812-0.311,2.604-0.934v1.262c-0.737,0.534-1.711,0.802-2.923,0.802c-1.185,0-2.115-0.381-2.792-1.142
			c-0.677-0.762-1.015-1.833-1.015-3.214c0-1.305,0.37-2.367,1.109-3.189c0.739-0.821,1.658-1.232,2.755-1.232
			s1.946,0.355,2.546,1.064c0.601,0.71,0.901,1.695,0.901,2.956V86.931z M60.757,85.793c-0.006-0.775-0.192-1.379-0.561-1.81
			c-0.369-0.432-0.88-0.647-1.535-0.647c-0.633,0-1.171,0.227-1.613,0.68c-0.442,0.453-0.715,1.046-0.819,1.777H60.757z"/>
		<path d="M71.122,90.787h-1.343v-4.781c0-1.779-0.649-2.67-1.948-2.67c-0.671,0-1.227,0.253-1.667,0.758s-0.659,1.143-0.659,1.912
			v4.781h-1.342v-8.384h1.342v1.392h0.033c0.633-1.059,1.55-1.589,2.751-1.589c0.917,0,1.618,0.297,2.104,0.889
			c0.486,0.593,0.729,1.448,0.729,2.567V90.787z"/>
		<path d="M74.34,80.274c-0.24,0-0.445-0.082-0.614-0.246c-0.169-0.163-0.253-0.371-0.253-0.622s0.084-0.46,0.253-0.626
			c0.169-0.167,0.374-0.25,0.614-0.25c0.246,0,0.455,0.083,0.626,0.25c0.172,0.166,0.258,0.375,0.258,0.626
			c0,0.24-0.086,0.445-0.258,0.614S74.585,80.274,74.34,80.274z M74.995,90.787h-1.342v-8.384h1.342V90.787z"/>
		<path d="M81.217,90.983c-1.239,0-2.229-0.392-2.968-1.175c-0.74-0.783-1.109-1.821-1.109-3.115c0-1.408,0.385-2.508,1.154-3.3
			c0.77-0.791,1.81-1.188,3.12-1.188c1.25,0,2.226,0.386,2.927,1.155c0.702,0.77,1.052,1.837,1.052,3.201
			c0,1.337-0.378,2.408-1.134,3.214C83.503,90.581,82.489,90.983,81.217,90.983z M81.315,83.336c-0.862,0-1.544,0.294-2.047,0.881
			c-0.502,0.587-0.753,1.396-0.753,2.428c0,0.993,0.254,1.776,0.761,2.35c0.508,0.573,1.188,0.859,2.039,0.859
			c0.868,0,1.536-0.281,2.002-0.843c0.467-0.563,0.7-1.362,0.7-2.399c0-1.048-0.233-1.855-0.7-2.424
			C82.851,83.62,82.184,83.336,81.315,83.336z"/>
		<path d="M91.91,83.762c-0.235-0.18-0.573-0.27-1.016-0.27c-0.573,0-1.052,0.27-1.437,0.811c-0.385,0.54-0.578,1.277-0.578,2.211
			v4.273h-1.342v-8.384h1.342v1.728h0.033c0.191-0.59,0.483-1.05,0.876-1.38s0.832-0.495,1.318-0.495
			c0.35,0,0.617,0.038,0.803,0.114V83.762z"/>
		<path d="M93.547,90.787V79.046h3.243c4.137,0,6.206,1.908,6.206,5.724c0,1.812-0.574,3.268-1.724,4.368
			c-1.149,1.1-2.687,1.649-4.614,1.649H93.547z M94.923,80.291v9.252h1.752c1.539,0,2.737-0.412,3.594-1.236
			c0.857-0.824,1.286-1.992,1.286-3.505c0-3.007-1.6-4.511-4.798-4.511H94.923z"/>
		<path d="M111.864,86.931h-5.92c0.021,0.934,0.273,1.654,0.753,2.161c0.48,0.508,1.142,0.762,1.981,0.762
			c0.944,0,1.813-0.311,2.604-0.934v1.262c-0.737,0.534-1.712,0.802-2.924,0.802c-1.184,0-2.115-0.381-2.792-1.142
			c-0.677-0.762-1.015-1.833-1.015-3.214c0-1.305,0.369-2.367,1.109-3.189c0.739-0.821,1.658-1.232,2.755-1.232
			c1.098,0,1.946,0.355,2.547,1.064c0.6,0.71,0.9,1.695,0.9,2.956V86.931z M110.488,85.793c-0.005-0.775-0.192-1.379-0.561-1.81
			c-0.368-0.432-0.88-0.647-1.535-0.647c-0.633,0-1.171,0.227-1.613,0.68c-0.441,0.453-0.715,1.046-0.818,1.777H110.488z"/>
		<path d="M120.485,82.403l-3.341,8.384h-1.318l-3.177-8.384h1.475l2.128,6.091c0.158,0.448,0.257,0.839,0.295,1.171h0.033
			c0.055-0.42,0.142-0.799,0.262-1.138l2.227-6.124H120.485z"/>
		<path d="M126.839,90.983c-1.665,0-2.998-0.549-3.999-1.646c-1.002-1.097-1.503-2.524-1.503-4.282c0-1.889,0.511-3.395,1.531-4.52
			c1.021-1.124,2.41-1.687,4.167-1.687c1.621,0,2.928,0.546,3.918,1.638c0.991,1.092,1.486,2.519,1.486,4.282
			c0,1.916-0.508,3.431-1.523,4.544C129.901,90.427,128.542,90.983,126.839,90.983z M126.938,80.094
			c-1.233,0-2.235,0.445-3.005,1.335s-1.154,2.058-1.154,3.504c0,1.447,0.375,2.611,1.126,3.492c0.75,0.882,1.729,1.322,2.935,1.322
			c1.288,0,2.304-0.42,3.046-1.261s1.113-2.017,1.113-3.528c0-1.551-0.36-2.749-1.08-3.595
			C129.197,80.518,128.203,80.094,126.938,80.094z"/>
		<path d="M141.527,90.787h-1.343v-4.781c0-1.779-0.649-2.67-1.948-2.67c-0.672,0-1.227,0.253-1.666,0.758s-0.659,1.143-0.659,1.912
			v4.781h-1.343v-8.384h1.343v1.392h0.032c0.634-1.059,1.551-1.589,2.751-1.589c0.917,0,1.618,0.297,2.104,0.889
			c0.485,0.593,0.729,1.448,0.729,2.567V90.787z"/>
		<path d="M145.4,90.787h-1.343V78.375h1.343V90.787z"/>
		<path d="M154.791,82.403l-3.856,9.727c-0.688,1.735-1.654,2.604-2.898,2.604c-0.35,0-0.642-0.035-0.876-0.106v-1.203
			c0.289,0.098,0.554,0.147,0.794,0.147c0.677,0,1.185-0.404,1.523-1.212l0.671-1.589l-3.275-8.367h1.49l2.269,6.451
			c0.027,0.082,0.084,0.295,0.172,0.639h0.049c0.027-0.131,0.082-0.338,0.164-0.622l2.382-6.468H154.791z"/>
	</g>
</g>
</svg>
