<?xml version="1.0" encoding="utf-8"?>
<!-- Generator: Adobe Illustrator 16.0.0, SVG Export Plug-In . SVG Version: 6.00 Build 0)  -->
<!DOCTYPE svg PUBLIC "-//W3C//DTD SVG 1.1//EN" "http://www.w3.org/Graphics/SVG/1.1/DTD/svg11.dtd">
<svg version="1.1" id="Layer_1" xmlns="http://www.w3.org/2000/svg" xmlns:xlink="http://www.w3.org/1999/xlink" x="0px" y="0px"
	 width="200px" height="100px" viewBox="0 0 200 100" enable-background="new 0 0 200 100" xml:space="preserve">
<g>
	<g>
		<g>
			<path fill="#3BBBCC" d="M37.665,23.77c0.438,0,0.906-0.175,1.228-0.526l5.323-5.323c0.673-0.673,0.673-1.784,0-2.486
				c-0.673-0.672-1.784-0.672-2.486,0l-5.324,5.323c-0.672,0.673-0.672,1.785,0,2.485C36.787,23.594,37.226,23.77,37.665,23.77z"/>
			<path fill="#3BBBCC" d="M33.103,35.673c0.439,0,0.907-0.175,1.229-0.526L56.09,13.387c0.673-0.672,0.673-1.784,0-2.486
				c-0.673-0.672-1.784-0.672-2.486,0l-21.73,21.76c-0.673,0.672-0.673,1.783,0,2.485C32.225,35.498,32.664,35.673,33.103,35.673z"
				/>
			<path fill="#95D1DC" d="M27.838,48.279c0.438,0,0.907-0.176,1.229-0.527l34.569-34.569c0.672-0.673,0.672-1.784,0-2.486
				c-0.672-0.672-1.784-0.672-2.486,0l-34.569,34.6c-0.673,0.672-0.673,1.783,0,2.485C26.932,48.103,27.37,48.279,27.838,48.279z"/>
			<path fill="#3BBBCC" d="M57.728,23.945c0.351,0.351,0.79,0.526,1.229,0.526c0.439,0,0.907-0.175,1.229-0.526l10.002-10.003
				c0.672-0.672,0.672-1.784,0-2.485c-0.673-0.703-1.784-0.673-2.486,0L57.699,21.459C57.056,22.161,57.056,23.272,57.728,23.945z"
				/>
			<path fill="#3BBBCC" d="M64.776,24.237c0.352,0.352,0.79,0.526,1.229,0.526c0.438,0,0.907-0.174,1.228-0.526l8.306-8.306
				c0.672-0.672,0.672-1.784,0-2.486c-0.673-0.673-1.784-0.673-2.486,0l-8.306,8.306C64.074,22.454,64.074,23.564,64.776,24.237z"/>
			<path fill="#95D1DC" d="M70.041,26.285c0.351,0.351,0.789,0.525,1.229,0.525c0.438,0,0.906-0.174,1.228-0.525l7.868-7.868
				c0.672-0.672,0.672-1.784,0-2.486c-0.673-0.672-1.784-0.672-2.486,0l-7.867,7.867C69.368,24.501,69.368,25.612,70.041,26.285z"/>
			<path fill="#3BBBCC" d="M17.807,65.621c0.439,0,0.907-0.175,1.228-0.525l25.971-25.972c0.673-0.672,0.673-1.785,0-2.485
				c-0.673-0.673-1.784-0.673-2.486,0l-25.941,26c-0.673,0.672-0.673,1.783,0,2.486C16.9,65.446,17.368,65.621,17.807,65.621z"/>
			<path fill="#3BBBCC" d="M36.992,54.508l8.306-8.306c0.673-0.673,0.673-1.785,0-2.487c-0.673-0.672-1.784-0.672-2.485,0
				l-8.307,8.306c-0.672,0.674-0.672,1.784,0,2.486c0.351,0.352,0.79,0.526,1.229,0.526S36.67,54.83,36.992,54.508z"/>
			<path fill="#95D1DC" d="M28.306,68.049c0.351,0.351,0.79,0.525,1.229,0.525c0.439,0,0.907-0.175,1.229-0.525l16.583-16.583
				c0.672-0.672,0.672-1.783,0-2.485c-0.672-0.672-1.784-0.672-2.486,0L28.276,65.563C27.604,66.236,27.604,67.349,28.306,68.049z"
				/>
			<path fill="#95D1DC" d="M26.2,70.125c-0.672-0.672-1.784-0.672-2.485,0L7.044,86.796c-0.673,0.671-0.673,1.783,0,2.485
				c0.351,0.352,0.79,0.526,1.228,0.526c0.439,0,0.906-0.175,1.229-0.526l16.67-16.671C26.902,71.938,26.902,70.827,26.2,70.125z"/>
			<path fill="#3BBBCC" d="M82.178,55.647l-5.323,5.322c-0.672,0.674-0.672,1.785,0,2.488c0.351,0.351,0.79,0.525,1.228,0.525
				c0.439,0,0.907-0.175,1.229-0.525l5.322-5.322c0.673-0.674,0.673-1.785,0-2.488C83.962,54.976,82.851,54.976,82.178,55.647z"/>
			<path fill="#3BBBCC" d="M86.739,43.746L52.054,78.432c-0.673,0.673-0.673,1.782,0,2.485c0.351,0.351,0.789,0.527,1.228,0.527
				c0.439,0,0.907-0.177,1.229-0.527l34.688-34.658c0.671-0.672,0.671-1.783,0-2.485C88.524,43.072,87.414,43.072,86.739,43.746z"/>
			<path fill="#95D1DC" d="M86.916,36.258L57.465,65.709c-0.672,0.673-0.672,1.785,0,2.487c0.351,0.351,0.789,0.525,1.228,0.525
				s0.907-0.175,1.229-0.525l29.48-29.452c0.672-0.673,0.672-1.785,0-2.486C88.7,35.556,87.589,35.556,86.916,36.258z"/>
			<path fill="#3BBBCC" d="M63.344,54.976c-0.673-0.673-1.784-0.673-2.486,0L39.361,76.472c-0.673,0.673-0.673,1.785,0,2.487
				c0.352,0.352,0.79,0.526,1.229,0.526c0.439,0,0.907-0.175,1.228-0.526l21.497-21.497C64.045,56.76,64.045,55.647,63.344,54.976z"
				/>
			<path fill="#95D1DC" d="M34.36,81.472l-2.399,2.4c-0.672,0.671-0.672,1.783,0,2.485c0.352,0.352,0.791,0.525,1.229,0.525
				s0.907-0.174,1.228-0.525l2.399-2.398c0.672-0.673,0.672-1.785,0-2.487C36.144,80.801,35.033,80.801,34.36,81.472z"/>
			<path fill="#3BBBCC" d="M20.438,55.677c0.438,0,0.907-0.175,1.229-0.525l2.397-2.397c0.673-0.674,0.673-1.784,0-2.487
				c-0.671-0.672-1.784-0.672-2.485,0l-2.398,2.398c-0.673,0.674-0.673,1.785,0,2.486C19.532,55.502,20,55.677,20.438,55.677z"/>
			<path fill="#3BBBCC" d="M53.838,54.684l-8.307,8.305c-0.672,0.675-0.672,1.785,0,2.485c0.351,0.354,0.79,0.528,1.229,0.528
				c0.439,0,0.906-0.175,1.229-0.528l8.306-8.305c0.673-0.673,0.673-1.783,0-2.485C55.623,53.981,54.51,53.981,53.838,54.684z"/>
			<path fill="#95D1DC" d="M40.385,65.767L51.03,55.122c0.673-0.673,0.673-1.783,0-2.486c-0.673-0.672-1.784-0.672-2.486,0
				L37.898,63.281c-0.673,0.673-0.673,1.783,0,2.485c0.352,0.352,0.79,0.528,1.229,0.528S40.033,66.089,40.385,65.767z"/>
			<path fill="#3BBBCC" d="M35.471,68.165c-0.673-0.671-1.784-0.671-2.486,0L21.169,79.981c-0.673,0.674-0.673,1.783,0,2.485
				c0.352,0.352,0.79,0.526,1.229,0.526c0.439,0,0.907-0.175,1.229-0.526l11.815-11.814C36.173,69.979,36.173,68.867,35.471,68.165z
				"/>
			<path fill="#3BBBCC" d="M76.065,39.768c-0.673,0.672-0.673,1.783,0,2.485c0.351,0.351,0.79,0.526,1.229,0.526
				c0.438,0,0.907-0.175,1.229-0.526L88.524,32.25c0.674-0.672,0.674-1.783,0-2.486c-0.673-0.672-1.785-0.672-2.486,0L76.065,39.768
				z"/>
			<path fill="#95D1DC" d="M75.773,32.748c-0.673,0.673-0.673,1.785,0,2.487c0.352,0.35,0.79,0.526,1.228,0.526
				c0.439,0,0.907-0.176,1.229-0.526l8.306-8.306c0.672-0.673,0.672-1.785,0-2.487c-0.672-0.672-1.784-0.672-2.486,0L75.773,32.748z
				"/>
			<path fill="#3BBBCC" d="M73.726,29.94c0.351,0.352,0.79,0.527,1.229,0.527c0.438,0,0.907-0.175,1.229-0.527l7.867-7.868
				c0.673-0.672,0.673-1.784,0-2.486c-0.673-0.672-1.784-0.672-2.485,0l-7.868,7.868C73.024,28.157,73.024,29.239,73.726,29.94z"/>
		</g>
		<g>
			<path fill="#0E1212" d="M113.472,14.206c2.368,0,3.977,0.438,3.977,1.228v2.194c0,0.321-0.116,0.847-1.08,0.847h-0.236
				c-0.465,0-1.49-0.321-2.31-0.321c-0.701,0-1.229,0.234-1.229,1.141c0,0.877,0.264,1.346,1.376,2.252
				c3.422,2.807,4.094,4.826,4.094,7.136c0,1.316-0.03,2.515-0.761,3.626c-0.935,1.433-2.427,1.99-3.07,2.164
				c-0.761,0.205-1.871,0.322-2.749,0.322c-2.136,0-4.183-0.41-4.183-1.55v-2.194c0-0.351,0.293-0.702,1.053-0.702
				c0.73,0,1.375,0.439,3.012,0.439c0.791,0,1.902-0.644,1.902-1.521c0-0.673-0.029-1.141-1.784-2.866
				c-2.662-2.604-3.92-3.803-3.92-6.172C107.534,14.645,111.19,14.206,113.472,14.206z"/>
			<path fill="#0E1212" d="M128.329,23.536c0.088,0,0.146-0.088,0.146-0.293v-6.58c0-1.141,0-2.281,1.725-2.281h1.434
				c1.726,0,1.726,1.141,1.726,2.281v15.764c0,1.14,0,2.281-1.726,2.281c-2.573,0-2.778-0.468-3.188-1.315l-3.802-8.277
				c-0.089-0.175-0.177-0.293-0.235-0.293c-0.086,0-0.116,0.118-0.116,0.293l0.03,7.312c0,1.14,0,2.281-1.727,2.281h-1.433
				c-1.727,0-1.727-1.141-1.727-2.281V16.662c0-1.14,0-2.28,1.727-2.28h1.521c0.937,0,1.258,0.118,1.696,0.995l3.686,7.896
				C128.154,23.448,128.24,23.536,128.329,23.536z"/>
			<path fill="#0E1212" d="M134.821,22.19c0-4.622,0.438-7.984,6.463-7.984c5.764,0,6.171,3.334,6.171,7.897
				c0,1.725,0.088,3.422,0.088,4.942c0,4.534-0.73,7.838-6.259,7.838c-6.054,0-6.463-3.393-6.463-7.955
				c0-0.761,0.029-1.55,0.029-2.339C134.851,23.799,134.821,22.951,134.821,22.19z M139.735,19.792v9.037
				c0,0.849,0,2.018,1.433,2.018c1.435,0,1.435-1.141,1.435-2.018v-9.037c0-0.731,0-1.579-1.435-1.579
				C139.735,18.213,139.735,19.09,139.735,19.792z"/>
			<path fill="#0E1212" d="M157.078,32.689c-0.555,1.989-1.199,2.018-2.223,2.018h-1.58c-1.638,0-1.87-0.818-2.163-2.281
				c-0.614-2.896-2.896-16.495-2.896-17.315c0-0.584,0.088-0.73,0.73-0.73h3.101c0.731,0,0.878,0.438,0.994,1.229l1.871,12.4
				c0,0.088,0.03,0.146,0.119,0.146c0.088,0,0.116-0.059,0.146-0.146c0.027-0.146,0.905-6.668,0.905-7.136
				c-0.232-1.521-0.76-4.708-0.818-5.352c-0.028-0.146-0.028-0.292-0.028-0.41c0-0.525,0.175-0.73,0.701-0.73
				c0.497,0,1.317,0.059,1.902,0.059c0.262,0,2.192-0.059,2.455-0.059c0.468,0,0.673,0.205,0.673,0.73
				c0,0.118-0.028,0.265-0.028,0.41c-0.059,0.673-0.498,3.86-0.498,5.381c0,0.527,1.286,7.107,1.286,7.107
				c0,0.088,0.03,0.146,0.118,0.146c0.087,0,0.117-0.059,0.146-0.146l1.228-12.488c0.03-0.731,0.293-1.141,0.937-1.141h3.363
				c0.468,0,0.557,0.205,0.557,0.702c0,0.877-1.933,14.477-2.487,17.373c-0.263,1.375-0.409,2.281-1.871,2.281h-2.077
				c-1.083,0-1.579,0-2.047-2.018c-0.409-1.697-0.907-3.803-1.258-3.803C158.102,28.888,157.459,31.315,157.078,32.689z"/>
			<path fill="#0E1212" d="M116.075,40.821c0.73,0,1.081,0.351,1.081,0.907v2.515c0,0.292,0,0.73-1.081,0.73
				c-0.585,0-0.613-0.058-0.906-0.058c-2.721,0-2.721,4.972-2.721,5.995c0,0.967,0.029,6.317,2.604,6.317
				c0.379,0,0.379-0.059,1.023-0.059c1.081,0,1.081,1.024,1.081,1.317v1.929c0,0.731-0.379,1.054-1.081,1.054
				c-4.066,0-8.805-1.872-8.805-10.617C107.271,42.692,112.009,40.821,116.075,40.821z"/>
			<path fill="#0E1212" d="M132.775,59.89c0,1.315-0.878,1.432-2.516,1.432h-1.521c-1.783,0-0.877-4.3-2.048-4.3h-2.281
				c-1.141,0-0.496,4.3-2.192,4.3h-1.346c-1.491,0-2.369-0.116-2.369-1.432c0-1.728,0.703-3.246,2.926-16.613
				c0.232-1.433,0.789-2.281,1.957-2.281h4.417c1.142,0,1.727,0.848,2.02,2.281C131.692,55.004,132.775,58.162,132.775,59.89z
				 M124.409,52.256c0,0.468,0.205,0.468,1.112,0.468c0.877,0,1.11,0,1.11-0.439c0-0.116,0-0.263-0.028-0.467
				c-0.351-2.808-0.467-6.289-1.082-6.289c-0.614,0-0.789,3.451-1.082,6.289C124.409,51.993,124.409,52.14,124.409,52.256z"/>
			<path fill="#0E1212" d="M143.04,50.15c0.088,0,0.146-0.088,0.146-0.292v-6.581c0-1.14,0-2.281,1.725-2.281h1.434
				c1.726,0,1.726,1.141,1.726,2.281v15.766c0,1.139,0,2.279-1.726,2.279c-2.573,0-2.778-0.468-3.188-1.315l-3.803-8.276
				c-0.088-0.176-0.175-0.293-0.234-0.293c-0.086,0-0.116,0.117-0.116,0.293l0.03,7.313c0,1.139,0,2.279-1.728,2.279h-1.433
				c-1.726,0-1.726-1.141-1.726-2.279V43.276c0-1.14,0-2.281,1.726-2.281h1.521c0.936,0,1.257,0.117,1.695,0.995l3.686,7.897
				C142.893,50.062,142.981,50.15,143.04,50.15z"/>
			<path fill="#0E1212" d="M158.863,50.15c0.088,0,0.146-0.088,0.146-0.292v-6.581c0-1.14,0-2.281,1.726-2.281h1.433
				c1.727,0,1.727,1.141,1.727,2.281v15.766c0,1.139,0,2.279-1.727,2.279c-2.573,0-2.778-0.468-3.188-1.315l-3.802-8.276
				c-0.088-0.176-0.176-0.293-0.234-0.293c-0.088,0-0.116,0.117-0.116,0.293l0.028,7.313c0,1.139,0,2.279-1.726,2.279h-1.434
				c-1.725,0-1.725-1.141-1.725-2.279V43.276c0-1.14,0-2.281,1.725-2.281h1.522c0.936,0,1.256,0.117,1.694,0.995l3.686,7.897
				C158.687,50.062,158.774,50.15,158.863,50.15z"/>
			<path fill="#0E1212" d="M165.355,48.804c0-4.621,0.438-7.983,6.463-7.983c5.762,0,6.17,3.333,6.17,7.897
				c0,1.725,0.089,3.422,0.089,4.942c0,4.533-0.73,7.838-6.259,7.838c-6.055,0-6.463-3.394-6.463-7.955
				c0-0.76,0.029-1.55,0.029-2.34S165.355,49.564,165.355,48.804z M170.269,46.407v9.037c0,0.849,0,2.019,1.434,2.019
				c1.432,0,1.432-1.141,1.432-2.019v-9.037c0-0.731,0-1.58-1.432-1.58C170.269,44.827,170.269,45.705,170.269,46.407z"/>
			<path fill="#0E1212" d="M188.431,50.15c0.088,0,0.146-0.088,0.146-0.292v-6.581c0-1.14,0-2.281,1.725-2.281h1.435
				c1.725,0,1.725,1.141,1.725,2.281v15.766c0,1.139,0,2.279-1.725,2.279c-2.574,0-2.779-0.468-3.189-1.315l-3.801-8.276
				c-0.089-0.176-0.177-0.293-0.235-0.293c-0.088,0-0.116,0.117-0.116,0.293l0.03,7.313c0,1.139,0,2.279-1.727,2.279h-1.435
				c-1.725,0-1.725-1.141-1.725-2.279V43.276c0-1.14,0-2.281,1.725-2.281h1.522c0.936,0,1.258,0.117,1.697,0.995l3.685,7.897
				C188.255,50.062,188.344,50.15,188.431,50.15z"/>
			<path fill="#0E1212" d="M116.63,80.069c0-0.878-0.526-0.906-1.052-0.906c-0.937,0-1.055-0.468-1.055-1.229v-0.293
				c0-2.312,0.031-2.456,1.376-2.456h4.095c1.229,0,1.229,0.614,1.229,1.141v8.948c0,2.808-2.778,2.808-4.417,2.808
				c-4.562,0-9.505-2.076-9.505-10.527c0-8.22,5.265-10.121,8.803-10.121c2.984,0,4.184,0.324,4.184,1.199v2.253
				c0,0.525-0.381,0.702-0.819,0.702c-0.877,0-1.784-0.381-3.07-0.381c-3.627,0-4.066,5.061-4.066,6.26
				c0,2.338,0.439,6.463,3.363,6.463c0.585,0,0.966-0.293,0.966-1.286v-2.574H116.63L116.63,80.069z"/>
			<path fill="#0E1212" d="M136.839,86.503c0,1.317-0.878,1.434-2.515,1.434h-1.521c-1.784,0-0.878-4.3-2.047-4.3h-2.281
				c-1.141,0-0.498,4.3-2.194,4.3h-1.344c-1.492,0-2.37-0.116-2.37-1.434c0-1.725,0.701-3.246,2.924-16.611
				c0.234-1.434,0.79-2.281,1.961-2.281h4.356c1.141,0,1.727,0.848,2.019,2.281C135.788,81.619,136.839,84.778,136.839,86.503z
				 M128.504,78.87c0,0.467,0.204,0.467,1.111,0.467c0.878,0,1.112,0,1.112-0.438c0-0.116,0-0.262-0.029-0.467
				c-0.352-2.808-0.469-6.289-1.083-6.289s-0.788,3.452-1.081,6.289C128.504,78.605,128.504,78.753,128.504,78.87z"/>
			<path fill="#0E1212" d="M149.269,69.189c0.645-1.492,1.287-1.608,2.312-1.608h1.55c1.726,0,1.726,1.141,1.726,2.282v15.763
				c0,1.141,0,2.282-1.726,2.282h-1.434c-1.725,0-1.725-1.142-1.725-2.282v-7.897c0-0.174-0.059-0.293-0.146-0.293
				c-0.089,0-0.176,0.119-0.265,0.293c-2.046,4.036-2.105,5.031-3.041,5.031s-1.022-0.964-3.04-5.031
				c-0.089-0.174-0.205-0.293-0.264-0.293c-0.088,0-0.146,0.119-0.146,0.293v7.897c0,1.141,0,2.282-1.726,2.282h-1.433
				c-1.727,0-1.727-1.142-1.727-2.282V69.863c0-1.142,0-2.282,1.727-2.282h1.521c1.052,0,1.726,0.146,2.34,1.608l2.134,5.061
				c0.235,0.525,0.382,0.787,0.586,0.787c0.205,0,0.35-0.29,0.585-0.787L149.269,69.189z"/>
			<path fill="#0E1212" d="M161.641,82.673c0.06,0.643,0.645,0.936,1.198,0.936c1.639,0,2.165-0.059,2.779-0.059
				c1.199,0,1.579,0.352,1.579,1.199v2.018c0,0.849-0.293,1.142-1.141,1.142h-7.575c-1.725,0-1.725-1.728-1.725-2.282V69.863
				c0-1.142,0-2.282,1.725-2.282h7.399c0.731,0,1.346,0.293,1.346,0.848v2.428c0,0.702-0.585,0.731-1.287,0.731
				c-1.111,0-2.019-0.059-2.72-0.059c-1.579,0-1.579,0.586-1.579,1.492c0,1.87,0,2.338,1.433,2.338c1.785,0,2.077-0.058,2.721-0.058
				c0.994,0,1.053,0.995,1.053,1.317v1.841c0,0.851-0.614,0.908-1.315,0.908c-1.463,0-2.369-0.058-2.983-0.058
				c-0.907,0-0.907,0.409-0.907,1.345V82.673L161.641,82.673z"/>
			<path fill="#0E1212" d="M174.742,67.434c2.369,0,3.979,0.44,3.979,1.23v2.192c0,0.322-0.117,0.848-1.082,0.848h-0.234
				c-0.467,0-1.492-0.32-2.311-0.32c-0.701,0-1.229,0.233-1.229,1.139c0,0.88,0.266,1.347,1.376,2.253
				c3.422,2.808,4.094,4.826,4.094,7.137c0,1.315-0.027,2.515-0.76,3.627c-0.936,1.434-2.427,1.988-3.071,2.163
				c-0.761,0.206-1.871,0.322-2.748,0.322c-2.136,0-4.184-0.409-4.184-1.551v-2.192c0-0.352,0.293-0.702,1.054-0.702
				c0.731,0,1.375,0.438,3.013,0.438c0.789,0,1.901-0.645,1.901-1.521c0-0.673-0.03-1.141-1.784-2.865
				c-2.662-2.603-3.921-3.804-3.921-6.171C168.807,67.874,172.433,67.434,174.742,67.434z"/>
		</g>
	</g>
</g>
</svg>
