<?xml version="1.0" encoding="utf-8"?>
<!-- Generator: Adobe Illustrator 16.0.0, SVG Export Plug-In . SVG Version: 6.00 Build 0)  -->
<!DOCTYPE svg PUBLIC "-//W3C//DTD SVG 1.1//EN" "http://www.w3.org/Graphics/SVG/1.1/DTD/svg11.dtd">
<svg version="1.1" id="Layer_1" xmlns="http://www.w3.org/2000/svg" xmlns:xlink="http://www.w3.org/1999/xlink" x="0px" y="0px"
	 width="200px" height="100px" viewBox="0 0 200 100" enable-background="new 0 0 200 100" xml:space="preserve">
<g>
	<g>
		<path fill-rule="evenodd" clip-rule="evenodd" fill="none" d="M-14.502,17.5c76.566,0,153.132,0,229.698,0
			c0,21.898,0,43.796,0,65.694c-76.566,0-153.132,0-229.698,0C-14.502,61.296-14.502,39.398-14.502,17.5z M5.349,32.662
			c0.065,0.291,0.081,0.478,0.147,0.645c4.33,10.725,8.657,21.45,13.023,32.16c0.126,0.309,0.646,0.616,1.002,0.642
			c1.15,0.081,2.319-0.059,3.464,0.056c1.152,0.115,1.66-0.319,2.084-1.383c4.069-10.209,8.2-20.394,12.312-30.585
			c0.193-0.479,0.374-0.962,0.561-1.445c-0.224-0.081-0.296-0.129-0.367-0.129c-1.349-0.01-2.698-0.019-4.046-0.018
			c-1.752,0-2.298,0.377-2.928,2.021c-3.036,7.931-6.069,15.862-9.047,23.645c0.049,0.116,0.002,0.015-0.037-0.09
			c-2.998-7.983-5.974-15.975-9.036-23.933c-0.249-0.646-1.049-1.44-1.668-1.512C9.044,32.529,7.236,32.662,5.349,32.662z
			 M176.012,57.154c1.588,2.595,3.11,5.136,4.698,7.634c0.329,0.518,0.883,1.21,1.376,1.247c1.929,0.146,3.874,0.06,5.968,0.06
			c-0.226-0.394-0.344-0.627-0.485-0.845c-2.289-3.517-4.543-7.058-6.9-10.527c-0.587-0.862-0.52-1.397,0.056-2.195
			c2.159-2.999,4.243-6.053,6.352-9.089c0.208-0.301,0.389-0.62,0.701-1.122c-1.772,0-3.345-0.092-4.897,0.045
			c-0.629,0.056-1.435,0.459-1.781,0.964c-1.646,2.397-3.161,4.884-4.757,7.391c-0.215-0.321-0.457-0.661-0.679-1.014
			c-1.33-2.119-2.633-4.255-4-6.35c-0.271-0.416-0.771-0.936-1.19-0.958c-1.938-0.102-3.887-0.045-5.99-0.045
			c0.301,0.483,0.488,0.808,0.698,1.118c2.16,3.188,4.306,6.385,6.5,9.549c0.436,0.63,0.465,1.057,0.018,1.714
			c-2.316,3.405-4.571,6.853-6.844,10.288c-0.201,0.305-0.375,0.628-0.666,1.119c1.614,0,3.033-0.068,4.441,0.021
			c1.154,0.074,1.869-0.396,2.457-1.331C172.68,62.29,174.32,59.781,176.012,57.154z M103.717,35.095
			c-1.189,0-2.237-0.107-3.243,0.051c-0.429,0.067-0.969,0.625-1.11,1.071c-0.334,1.056-0.453,2.178-0.67,3.271
			c-0.194,0.977-0.103,2.251-0.692,2.839c-0.583,0.583-1.864,0.451-2.828,0.679c-0.307,0.073-0.737,0.222-0.841,0.456
			c-0.775,1.744,0.215,3.318,2.088,3.216c1.189-0.064,1.481,0.303,1.467,1.471c-0.053,4.239-0.051,8.48,0.064,12.717
			c0.066,2.416,1.182,4.364,3.569,5.161c1.204,0.402,2.574,0.515,3.852,0.442c1.928-0.109,3.742-0.726,5.223-2.113
			c-0.506-0.822-0.998-1.56-1.426-2.334c-0.499-0.904-1.045-1.132-2.05-0.604c-2.005,1.055-3.428,0.136-3.437-2.127
			c-0.014-3.546-0.004-7.093-0.004-10.639c0-0.606,0-1.211,0-1.978c2.14,0,4.155,0,6.159,0c0-1.45,0-2.736,0-4.14
			c-2.069,0-4.056,0-6.121,0C103.717,40.041,103.717,37.662,103.717,35.095z M85.752,45.343c-0.222-0.232-0.367-0.406-0.534-0.557
			c-2.569-2.324-5.645-3.019-9-2.754c-3.917,0.309-6.97,2.033-8.836,5.584c-1.425,2.713-1.661,5.615-1.396,8.628
			c0.56,6.379,5.241,10.574,11.627,10.26c2.974-0.147,5.634-1.12,7.808-3.252c0.481-0.472,0.505-0.805,0.082-1.351
			c-1.854-2.392-1.836-2.405-4.441-0.784c-0.131,0.081-0.264,0.158-0.399,0.231c-3.274,1.779-6.962,0.428-8.186-3.084
			c-0.94-2.694-0.921-5.448,0.002-8.151c0.819-2.397,2.733-3.675,5.28-3.708c1.528-0.021,2.841,0.55,4.11,1.324
			c1.177,0.719,1.722,0.594,2.541-0.506C84.845,46.638,85.258,46.037,85.752,45.343z M127.126,66.074c0-4.539-0.001-8.932,0-13.324
			c0-2.914,2.248-5.199,5.155-5.189c0.724,0.002,1.447,0.149,2.17,0.234c0.812,0.097,1.317-0.133,1.419-1.061
			c0.112-1.03,0.28-2.063,0.546-3.063c0.221-0.829-0.061-1.177-0.814-1.442c-2.501-0.879-5.271-0.071-7.273,2.199
			c-0.489,0.555-0.935,1.148-1.524,1.878c-0.153-1.044-0.178-1.908-0.435-2.696c-0.151-0.465-0.638-1.111-1.03-1.154
			c-1.312-0.146-2.647-0.055-3.948-0.055c0,7.968,0,15.813,0,23.674C123.313,66.074,125.149,66.074,127.126,66.074z M153.268,66.062
			c0.041-0.216,0.092-0.362,0.092-0.509c0.005-7.467,0-14.934,0.019-22.401c0.002-0.676-0.275-0.859-0.898-0.844
			c-1.269,0.031-2.544,0.072-3.809-0.011c-1.001-0.066-1.208,0.327-1.204,1.252c0.034,7.121,0.02,14.241,0.02,21.362
			c0,0.372,0,0.744,0,1.15C149.51,66.062,151.376,66.062,153.268,66.062z M54.116,42.396c-1.913,0-3.775,0-5.661,0
			c0,7.939,0,15.808,0,23.67c1.935,0,3.769,0,5.661,0C54.116,58.153,54.116,50.313,54.116,42.396z M154.186,35.427
			c-0.014-2.069-1.697-3.682-3.8-3.642c-2.012,0.04-3.644,1.716-3.621,3.723c0.022,1.975,1.726,3.589,3.76,3.564
			C152.591,39.046,154.199,37.444,154.186,35.427z M51.31,31.784c-2.063-0.012-3.637,1.558-3.648,3.637
			c-0.011,2.097,1.523,3.646,3.614,3.652c2.038,0.005,3.75-1.607,3.78-3.558C55.087,33.493,53.383,31.796,51.31,31.784z"/>
		<path fill-rule="evenodd" clip-rule="evenodd" d="M5.349,32.662c1.887,0,3.695-0.133,5.463,0.072
			c0.62,0.072,1.42,0.867,1.668,1.512c3.062,7.958,6.038,15.95,9.036,23.933c0.04,0.104,0.086,0.206,0.037,0.09
			c2.978-7.783,6.011-15.714,9.047-23.645c0.63-1.644,1.176-2.021,2.928-2.021c1.349,0,2.697,0.008,4.046,0.018
			c0.071,0,0.143,0.048,0.367,0.129c-0.187,0.482-0.367,0.966-0.561,1.445C33.27,44.387,29.139,54.571,25.07,64.78
			c-0.424,1.063-0.932,1.498-2.084,1.383c-1.145-0.114-2.313,0.025-3.464-0.056c-0.356-0.025-0.876-0.333-1.002-0.642
			c-4.366-10.71-8.693-21.435-13.023-32.16C5.43,33.14,5.414,32.952,5.349,32.662z"/>
		<path fill-rule="evenodd" clip-rule="evenodd" d="M176.012,57.154c-1.691,2.627-3.332,5.136-4.926,7.674
			c-0.588,0.936-1.303,1.405-2.457,1.331c-1.408-0.09-2.827-0.021-4.441-0.021c0.291-0.491,0.465-0.814,0.666-1.119
			c2.272-3.436,4.527-6.883,6.844-10.288c0.447-0.657,0.418-1.084-0.018-1.714c-2.194-3.164-4.34-6.361-6.5-9.549
			c-0.21-0.31-0.397-0.635-0.698-1.118c2.104,0,4.052-0.057,5.99,0.045c0.419,0.022,0.919,0.542,1.19,0.958
			c1.367,2.095,2.67,4.231,4,6.35c0.222,0.353,0.464,0.693,0.679,1.014c1.596-2.507,3.11-4.994,4.757-7.391
			c0.347-0.505,1.152-0.908,1.781-0.964c1.553-0.137,3.125-0.045,4.897-0.045c-0.313,0.501-0.493,0.821-0.701,1.122
			c-2.108,3.036-4.192,6.09-6.352,9.089c-0.575,0.798-0.643,1.333-0.056,2.195c2.357,3.47,4.611,7.011,6.9,10.527
			c0.142,0.218,0.26,0.451,0.485,0.845c-2.094,0-4.039,0.086-5.968-0.06c-0.493-0.037-1.047-0.729-1.376-1.247
			C179.122,62.29,177.6,59.749,176.012,57.154z"/>
		<path fill-rule="evenodd" clip-rule="evenodd" d="M103.717,35.095c0,2.567,0,4.946,0,7.442c2.065,0,4.052,0,6.121,0
			c0,1.404,0,2.69,0,4.14c-2.004,0-4.02,0-6.159,0c0,0.766,0,1.372,0,1.978c0,3.546-0.01,7.093,0.004,10.639
			c0.009,2.263,1.432,3.182,3.437,2.127c1.005-0.528,1.551-0.301,2.05,0.604c0.428,0.774,0.92,1.512,1.426,2.334
			c-1.48,1.388-3.295,2.004-5.223,2.113c-1.277,0.072-2.647-0.04-3.852-0.442c-2.388-0.797-3.503-2.745-3.569-5.161
			c-0.115-4.237-0.117-8.479-0.064-12.717c0.014-1.168-0.278-1.536-1.467-1.471c-1.873,0.102-2.863-1.472-2.088-3.216
			c0.104-0.234,0.534-0.383,0.841-0.456c0.964-0.228,2.245-0.096,2.828-0.679c0.589-0.588,0.498-1.863,0.692-2.839
			c0.217-1.093,0.336-2.216,0.67-3.271c0.142-0.446,0.682-1.004,1.11-1.071C101.479,34.988,102.527,35.095,103.717,35.095z"/>
		<path fill-rule="evenodd" clip-rule="evenodd" d="M85.752,45.343c-0.494,0.694-0.908,1.295-1.343,1.88
			c-0.819,1.101-1.363,1.226-2.541,0.506c-1.269-0.774-2.583-1.345-4.11-1.324c-2.547,0.033-4.461,1.312-5.28,3.708
			c-0.923,2.703-0.942,5.457-0.002,8.151c1.224,3.512,4.912,4.863,8.186,3.084c0.135-0.073,0.269-0.15,0.399-0.231
			c2.605-1.621,2.587-1.607,4.441,0.784c0.423,0.546,0.399,0.879-0.082,1.351c-2.173,2.132-4.833,3.104-7.808,3.252
			c-6.386,0.314-11.067-3.881-11.627-10.26c-0.264-3.014-0.029-5.916,1.396-8.628c1.866-3.551,4.918-5.275,8.836-5.584
			c3.355-0.264,6.431,0.431,9,2.754C85.385,44.937,85.531,45.111,85.752,45.343z"/>
		<path fill-rule="evenodd" clip-rule="evenodd" d="M127.126,66.074c-1.977,0-3.813,0-5.735,0c0-7.861,0-15.706,0-23.674
			c1.301,0,2.637-0.091,3.948,0.055c0.393,0.043,0.879,0.689,1.03,1.154c0.257,0.788,0.281,1.651,0.435,2.696
			c0.59-0.73,1.035-1.323,1.524-1.878c2.002-2.27,4.772-3.078,7.273-2.199c0.754,0.265,1.035,0.613,0.814,1.442
			c-0.266,1-0.434,2.034-0.546,3.063c-0.102,0.927-0.607,1.157-1.419,1.061c-0.723-0.085-1.446-0.232-2.17-0.234
			c-2.907-0.01-5.155,2.275-5.155,5.189C127.125,57.143,127.126,61.535,127.126,66.074z"/>
		<path fill-rule="evenodd" clip-rule="evenodd" d="M153.268,66.062c-1.892,0-3.758,0-5.781,0c0-0.406,0-0.778,0-1.15
			c0-7.121,0.015-14.241-0.02-21.362c-0.004-0.925,0.203-1.318,1.204-1.252c1.265,0.083,2.54,0.042,3.809,0.011
			c0.623-0.015,0.9,0.167,0.898,0.844c-0.019,7.467-0.014,14.934-0.019,22.401C153.359,65.699,153.309,65.846,153.268,66.062z"/>
		<path fill-rule="evenodd" clip-rule="evenodd" d="M54.116,42.396c0,7.918,0,15.758,0,23.67c-1.893,0-3.726,0-5.661,0
			c0-7.862,0-15.731,0-23.67C50.341,42.396,52.204,42.396,54.116,42.396z"/>
		<path fill-rule="evenodd" clip-rule="evenodd" d="M154.186,35.427c0.014,2.018-1.595,3.62-3.661,3.646
			c-2.034,0.025-3.737-1.589-3.76-3.564c-0.022-2.007,1.609-3.684,3.621-3.723C152.488,31.745,154.172,33.357,154.186,35.427z"/>
		<path fill-rule="evenodd" clip-rule="evenodd" d="M51.31,31.784c2.073,0.012,3.777,1.709,3.746,3.73
			c-0.03,1.951-1.742,3.563-3.78,3.558c-2.091-0.005-3.625-1.555-3.614-3.652C47.673,33.342,49.248,31.772,51.31,31.784z"/>
	</g>
</g>
</svg>
