<?xml version="1.0" encoding="utf-8"?>
<!-- Generator: Adobe Illustrator 16.0.0, SVG Export Plug-In . SVG Version: 6.00 Build 0)  -->
<!DOCTYPE svg PUBLIC "-//W3C//DTD SVG 1.1//EN" "http://www.w3.org/Graphics/SVG/1.1/DTD/svg11.dtd">
<svg version="1.1" id="Layer_1" xmlns="http://www.w3.org/2000/svg" xmlns:xlink="http://www.w3.org/1999/xlink" x="0px" y="0px"
	 width="200px" height="100px" viewBox="0 0 200 100" enable-background="new 0 0 200 100" xml:space="preserve">
<g>
	<title>Asset 45</title>
	<g id="Layer_2">
		<g id="Layer_1-2">
			<ellipse fill="#010101" cx="40.332" cy="91.284" rx="6.563" ry="1.069"/>
			<path fill="#010101" d="M65.819,31.09c1.295-9.789-1.301-19.865-1.301-19.865s-7.941-2.321-24.609-0.085
				c-13.698,1.839-25.064,8.991-25.425,20.062c6.374-2.037,15.591-3.314,25.84-3.314C50.396,27.887,59.46,29.12,65.819,31.09z"/>
			<path fill="#010101" d="M22.224,46.543c4.577,3.588,10.812,5.798,17.686,5.798c6.756,0,12.894-2.134,17.447-5.617
				c-5.033,0.816-10.841,1.281-17.026,1.281C33.699,48.006,27.5,47.471,22.224,46.543z"/>
			<path fill="#010101" d="M14.484,31.741c0-0.182,0.003-0.361,0.009-0.539c-5.587,1.785-8.988,4.148-8.988,6.74
				c0,3.641,6.697,6.83,16.727,8.596C17.449,42.797,14.484,37.551,14.484,31.741z"/>
			<path fill="#010101" d="M75.166,37.948c0-2.65-3.549-5.061-9.347-6.857c-0.696,5.271-2.52,10.459-6.491,13.947l0,0
				c-0.625,0.598-1.285,1.16-1.972,1.684C67.984,45.002,75.166,41.717,75.166,37.948z"/>
			<path fill="#010101" d="M52.774,66.191c0,7.961-6.183,17.77-12.534,17.77s-12.358-9.809-12.358-17.77s6.007-13.656,12.358-13.656
				C46.589,52.535,52.774,58.227,52.774,66.191z"/>
			
				<ellipse transform="matrix(-0.9778 -0.2096 0.2096 -0.9778 96.4331 87.2174)" fill="#010101" cx="52.838" cy="38.499" rx="2.786" ry="6.16"/>
			
				<ellipse transform="matrix(-0.2096 -0.9778 0.9778 -0.2096 -3.092 74.4996)" fill="#010101" cx="28.565" cy="38.5" rx="6.159" ry="2.786"/>
			<path fill="#010101" d="M151.204,46.848h-0.131l-4.52,19.011h-6.102l-6.41-29.199h5.355l4.521,21.777h0.178l4.477-19.449h5.445
				l4.563,19.488h0.086l4.215-21.82h5.268l-6.279,29.197h-5.973L151.204,46.848z"/>
			<path fill="#010101" d="M168.108,65.859l10.098-29.199h5.973l10.316,29.199h-5.707l-2.635-7.729H175.88l-2.592,7.729H168.108z
				 M176.933,54.092h8.166l-3.951-12.511h-0.133L176.933,54.092z"/>
			<rect x="100.056" y="21.51" fill="#010101" width="0.965" height="59.501"/>
		</g>
	</g>
</g>
</svg>
